<?xml version="1.0" standalone="no"?>
<!DOCTYPE svg PUBLIC "-//W3C//DTD SVG 20010904//EN"
 "http://www.w3.org/TR/2001/REC-SVG-20010904/DTD/svg10.dtd">
<svg version="1.0" xmlns="http://www.w3.org/2000/svg"
 width="960.000000pt" height="960.000000pt" viewBox="0 0 960.000000 960.000000"
 preserveAspectRatio="xMidYMid meet">

<g transform="translate(0.000000,960.000000) scale(0.100000,-0.100000)"
fill="#000000" stroke="none">
<path d="M376 4813 c4 -2425 8 -4409 9 -4410 1 -2 1993 -3 4426 -3 l4424 0 -4
4402 c-2 2422 -6 4406 -8 4411 -2 4 -1995 7 -4429 7 l-4425 0 7 -4407z m8828
1265 c4 -1712 6 -3683 4 -4381 l-3 -1267 -4395 0 -4395 0 -6 2142 c-3 1179 -7
3150 -8 4381 l-1 2237 4399 0 4399 0 6 -3112z"/>
<path d="M1196 8962 c-14 -85 -41 -178 -53 -188 -8 -7 -48 -15 -89 -19 l-75
-7 5 -141 c2 -78 7 -149 11 -158 3 -9 5 -36 3 -60 -3 -40 -6 -33 -32 71 -33
133 -51 180 -66 180 -6 0 -23 8 -38 19 -70 48 -155 101 -163 101 -5 0 11 -33
36 -72 25 -40 45 -79 45 -87 0 -8 -16 -33 -35 -57 -19 -23 -35 -46 -35 -50 0
-10 89 -95 153 -146 57 -44 49 -52 -10 -9 -77 56 -100 63 -151 52 -89 -21
-141 -37 -149 -45 -4 -5 -3 -6 3 -3 11 6 111 -19 126 -32 3 -3 8 -28 11 -56
l4 -50 94 2 c68 2 88 0 71 -7 -13 -5 -37 -11 -54 -12 -23 -2 -37 -12 -59 -45
-16 -23 -29 -46 -29 -51 0 -5 -7 -15 -15 -22 -9 -7 -14 -15 -12 -17 7 -6 57
19 52 26 -11 18 57 3 81 -18 l28 -24 54 59 c49 53 52 54 27 17 -26 -41 -27
-44 -15 -95 18 -74 22 -78 34 -27 10 41 13 44 44 44 l32 0 1 55 c1 50 2 52 10
23 6 -20 23 -40 45 -53 40 -25 54 -22 24 5 -19 17 -19 19 -2 47 l17 29 -53 46
c-47 41 -51 47 -38 62 8 9 30 43 49 76 19 33 53 91 76 129 41 66 55 89 108
182 l23 42 -29 123 c-16 68 -32 139 -36 156 -9 47 -22 49 -29 5z m-259 -748
c-3 -3 -12 -4 -19 -1 -8 3 -5 6 6 6 11 1 17 -2 13 -5z"/>
<path d="M4801 8766 c2 -2 18 -6 34 -10 22 -5 26 -4 15 4 -14 9 -59 15 -49 6z"/>
<path d="M5200 8750 c0 -5 5 -10 11 -10 5 0 7 5 4 10 -3 6 -8 10 -11 10 -2 0
-4 -4 -4 -10z"/>
<path d="M4790 8739 c0 -5 5 -7 10 -4 6 3 10 8 10 11 0 2 -4 4 -10 4 -5 0 -10
-5 -10 -11z"/>
<path d="M5285 8740 c3 -5 8 -10 11 -10 2 0 4 5 4 10 0 6 -5 10 -11 10 -5 0
-7 -4 -4 -10z"/>
<path d="M5121 8674 c0 -11 3 -14 6 -6 3 7 2 16 -1 19 -3 4 -6 -2 -5 -13z"/>
<path d="M5596 8677 c3 -10 9 -15 12 -12 3 3 0 11 -7 18 -10 9 -11 8 -5 -6z"/>
<path d="M4036 8661 c-4 -5 3 -7 14 -4 23 6 26 13 6 13 -8 0 -17 -4 -20 -9z"/>
<path d="M3861 8634 c0 -11 3 -14 6 -6 3 7 2 16 -1 19 -3 4 -6 -2 -5 -13z"/>
<path d="M3712 8576 c13 -10 15 -15 6 -24 -8 -8 -9 -12 -1 -12 9 0 23 21 23
35 0 1 -10 5 -22 8 -21 5 -21 5 -6 -7z"/>
<path d="M4340 8566 c0 -2 7 -7 16 -10 8 -3 12 -2 9 4 -6 10 -25 14 -25 6z"/>
<path d="M692 8530 c0 -14 2 -19 5 -12 2 6 2 18 0 25 -3 6 -5 1 -5 -13z"/>
<path d="M5218 8543 c6 -2 18 -2 25 0 6 3 1 5 -13 5 -14 0 -19 -2 -12 -5z"/>
<path d="M3575 8529 c-4 -6 -5 -12 -2 -15 2 -3 7 2 10 11 7 17 1 20 -8 4z"/>
<path d="M4075 8521 c4 -8 2 -17 -6 -22 -9 -6 -10 -9 -2 -9 19 0 27 21 13 33
-10 9 -11 9 -5 -2z"/>
<path d="M5950 8520 c-9 -6 -10 -10 -3 -10 6 0 15 5 18 10 8 12 4 12 -15 0z"/>
<path d="M4038 8513 c7 -3 16 -2 19 1 4 3 -2 6 -13 5 -11 0 -14 -3 -6 -6z"/>
<path d="M5061 8494 c0 -11 3 -14 6 -6 3 7 2 16 -1 19 -3 4 -6 -2 -5 -13z"/>
<path d="M4915 8469 c-4 -6 -5 -12 -2 -15 2 -3 7 2 10 11 7 17 1 20 -8 4z"/>
<path d="M6190 8451 c0 -6 4 -13 10 -16 6 -3 7 1 4 9 -7 18 -14 21 -14 7z"/>
<path d="M1402 8425 c-11 -23 -10 -24 8 -13 11 7 20 18 20 25 0 22 -16 14 -28
-12z"/>
<path d="M2042 8425 c0 -16 2 -22 5 -12 2 9 2 23 0 30 -3 6 -5 -1 -5 -18z"/>
<path d="M4879 8433 c-13 -16 -12 -17 4 -4 9 7 17 15 17 17 0 8 -8 3 -21 -13z"/>
<path d="M4216 8421 c-13 -14 -14 -21 -5 -27 7 -4 10 -3 6 3 -4 6 -1 16 7 22
11 9 15 9 19 -1 4 -9 6 -9 6 -1 2 21 -16 23 -33 4z"/>
<path d="M3360 8426 c0 -2 8 -10 18 -17 15 -13 16 -12 3 4 -13 16 -21 21 -21
13z"/>
<path d="M4671 8414 c0 -11 3 -14 6 -6 3 7 2 16 -1 19 -3 4 -6 -2 -5 -13z"/>
<path d="M1521 8404 c0 -11 3 -14 6 -6 3 7 2 16 -1 19 -3 4 -6 -2 -5 -13z"/>
<path d="M1976 8404 c-10 -25 -7 -154 3 -154 6 0 13 5 16 10 3 6 1 10 -6 10
-8 0 -10 22 -7 75 2 41 3 75 2 75 -1 0 -5 -7 -8 -16z"/>
<path d="M2203 8370 c0 -30 2 -43 4 -27 2 15 2 39 0 55 -2 15 -4 2 -4 -28z"/>
<path d="M5128 8413 c6 -2 18 -2 25 0 6 3 1 5 -13 5 -14 0 -19 -2 -12 -5z"/>
<path d="M1421 8398 c0 -7 4 -22 9 -33 8 -18 9 -17 9 7 1 15 -3 30 -9 33 -5 3
-10 0 -9 -7z"/>
<path d="M1703 8393 c30 -5 31 -6 17 -34 -16 -29 -4 -23 20 11 l21 30 -43 -1
c-30 -2 -34 -3 -15 -6z"/>
<path d="M3698 8383 c7 -3 16 -2 19 1 4 3 -2 6 -13 5 -11 0 -14 -3 -6 -6z"/>
<path d="M4350 8370 c0 -5 7 -7 15 -4 8 4 15 8 15 10 0 2 -7 4 -15 4 -8 0 -15
-4 -15 -10z"/>
<path d="M1360 8360 c0 -5 5 -10 10 -10 6 0 10 5 10 10 0 6 -4 10 -10 10 -5 0
-10 -4 -10 -10z"/>
<path d="M1400 8360 c0 -5 5 -10 10 -10 6 0 10 5 10 10 0 6 -4 10 -10 10 -5 0
-10 -4 -10 -10z"/>
<path d="M1531 8354 c0 -11 3 -14 6 -6 3 7 2 16 -1 19 -3 4 -6 -2 -5 -13z"/>
<path d="M3321 8365 c1 -19 18 -51 18 -35 0 8 -4 22 -9 30 -5 8 -9 11 -9 5z"/>
<path d="M4278 8363 c7 -3 16 -2 19 1 4 3 -2 6 -13 5 -11 0 -14 -3 -6 -6z"/>
<path d="M2021 8344 c0 -11 3 -14 6 -6 3 7 2 16 -1 19 -3 4 -6 -2 -5 -13z"/>
<path d="M1883 8280 c0 -36 2 -50 4 -32 2 17 2 47 0 65 -2 17 -4 3 -4 -33z"/>
<path d="M1330 8313 c0 -5 23 -6 51 -4 36 2 54 -1 60 -10 7 -11 9 -10 9 4 0
14 -9 17 -60 17 -33 0 -60 -3 -60 -7z"/>
<path d="M2003 8304 c-15 -16 -16 -24 -4 -24 8 0 24 30 19 35 -2 2 -9 -3 -15
-11z"/>
<path d="M2121 8275 c0 -31 2 -36 9 -23 6 10 7 25 1 40 -9 20 -10 18 -10 -17z"/>
<path d="M3796 8282 l-19 -27 24 22 c12 12 21 24 18 27 -2 2 -13 -8 -23 -22z"/>
<path d="M5580 8306 c0 -2 9 -6 20 -9 11 -3 18 -1 14 4 -5 9 -34 13 -34 5z"/>
<path d="M2280 8270 c0 -16 4 -30 8 -30 5 0 7 14 4 30 -2 17 -6 30 -8 30 -2 0
-4 -13 -4 -30z"/>
<path d="M3950 8290 c0 -5 5 -10 11 -10 5 0 7 5 4 10 -3 6 -8 10 -11 10 -2 0
-4 -4 -4 -10z"/>
<path d="M1551 8274 c0 -11 3 -14 6 -6 3 7 2 16 -1 19 -3 4 -6 -2 -5 -13z"/>
<path d="M2192 8260 c0 -19 2 -27 5 -17 2 9 2 25 0 35 -3 9 -5 1 -5 -18z"/>
<path d="M1715 8270 c3 -5 8 -10 11 -10 2 0 4 5 4 10 0 6 -5 10 -11 10 -5 0
-7 -4 -4 -10z"/>
<path d="M2023 8261 c-8 -13 -9 -22 -3 -26 11 -7 24 18 18 35 -2 6 -9 1 -15
-9z"/>
<path d="M6310 8260 c-6 -11 -8 -20 -6 -20 3 0 10 9 16 20 6 11 8 20 6 20 -3
0 -10 -9 -16 -20z"/>
<path d="M2161 8263 c-1 -6 -4 -20 -7 -30 -5 -17 -5 -17 6 0 6 10 9 23 6 30
-3 9 -5 9 -5 0z"/>
<path d="M2980 8260 c-8 -5 -10 -10 -5 -10 6 0 17 5 25 10 8 5 11 10 5 10 -5
0 -17 -5 -25 -10z"/>
<path d="M3640 8255 c-7 -9 -8 -15 -2 -15 5 0 12 7 16 15 3 8 4 15 2 15 -2 0
-9 -7 -16 -15z"/>
<path d="M1815 8253 c31 -8 45 -23 46 -52 2 -24 2 -25 6 -3 6 29 -22 62 -51
61 -20 -1 -20 -2 -1 -6z"/>
<path d="M1445 8230 c-3 -5 -1 -10 4 -10 6 0 11 5 11 10 0 6 -2 10 -4 10 -3 0
-8 -4 -11 -10z"/>
<path d="M3565 8220 c10 -11 20 -20 23 -20 3 0 -3 9 -13 20 -10 11 -20 20 -23
20 -3 0 3 -9 13 -20z"/>
<path d="M5900 8215 c13 -14 26 -25 28 -25 3 0 -5 11 -18 25 -13 14 -26 25
-28 25 -3 0 5 -11 18 -25z"/>
<path d="M1997 8223 c-4 -3 -7 -11 -7 -17 0 -6 5 -5 12 2 6 6 9 14 7 17 -3 3
-9 2 -12 -2z"/>
<path d="M3444 8214 c-18 -14 -18 -15 4 -4 12 6 22 13 22 15 0 8 -5 6 -26 -11z"/>
<path d="M1770 8201 c10 -21 30 -37 30 -26 0 14 -21 45 -31 45 -6 0 -6 -7 1
-19z"/>
<path d="M3715 8210 c-3 -5 -1 -10 4 -10 6 0 11 5 11 10 0 6 -2 10 -4 10 -3 0
-8 -4 -11 -10z"/>
<path d="M5955 8210 c3 -5 14 -10 23 -10 15 0 15 2 2 10 -20 13 -33 13 -25 0z"/>
<path d="M3470 8200 c-9 -6 -10 -10 -3 -10 6 0 15 5 18 10 8 12 4 12 -15 0z"/>
<path d="M6635 8200 c3 -5 8 -10 11 -10 2 0 4 5 4 10 0 6 -5 10 -11 10 -5 0
-7 -4 -4 -10z"/>
<path d="M3545 8190 c3 -5 8 -10 11 -10 2 0 4 5 4 10 0 6 -5 10 -11 10 -5 0
-7 -4 -4 -10z"/>
<path d="M4605 8184 c-286 -31 -556 -96 -775 -189 -205 -86 -439 -223 -620
-363 -117 -91 -371 -347 -456 -462 -288 -384 -453 -781 -515 -1235 -6 -49 -19
-103 -27 -120 -10 -20 -11 -30 -3 -33 15 -5 15 -144 0 -214 -9 -39 -9 -53 0
-56 16 -5 15 -129 -1 -134 -9 -3 -8 -9 5 -22 19 -19 25 -106 7 -106 -5 0 -10
-5 -10 -11 0 -6 6 -9 14 -6 16 7 30 -72 15 -87 -14 -15 -11 -36 5 -30 18 7 33
-83 17 -99 -16 -16 -13 -31 3 -18 11 10 16 3 26 -38 8 -36 9 -55 1 -70 -14
-25 -14 -51 -1 -51 6 0 10 8 10 17 0 32 17 -1 45 -87 16 -47 45 -128 67 -180
21 -52 38 -96 38 -98 0 -2 -7 -2 -15 2 -8 3 -15 1 -15 -5 0 -5 11 -14 25 -19
33 -13 75 -98 54 -111 -11 -7 -10 -9 6 -9 27 0 75 -87 56 -100 -18 -11 -5 -29
17 -24 12 3 27 -12 51 -53 22 -37 30 -58 23 -61 -7 -2 -12 -8 -12 -14 0 -7 5
-7 13 1 19 15 166 -172 167 -211 0 -28 15 -38 22 -17 7 20 143 -141 140 -165
-2 -16 -1 -18 7 -7 8 12 18 8 56 -23 37 -31 44 -42 39 -59 -6 -18 -4 -20 7
-10 21 17 129 -70 129 -104 0 -24 15 -32 22 -11 3 9 11 8 29 -5 27 -20 211
-142 247 -164 13 -8 20 -19 16 -25 -5 -8 -2 -9 9 -5 22 8 220 -90 211 -104 -4
-7 0 -9 12 -5 23 7 190 -59 187 -73 -2 -6 10 -9 25 -8 23 1 274 -61 322 -80 8
-4 19 -5 23 -4 5 1 34 -3 65 -9 107 -21 187 -25 447 -25 293 1 391 12 627 71
475 120 914 378 1254 737 175 185 317 387 432 614 132 260 208 498 259 808 25
155 25 560 0 730 -66 442 -239 857 -503 1207 -134 176 -336 379 -512 512 -174
132 -453 287 -642 356 -317 117 -546 160 -880 165 -124 2 -243 1 -265 -1z
m595 -59 c351 -54 723 -193 1000 -373 637 -415 1051 -1052 1165 -1792 22 -144
31 -477 16 -621 -68 -660 -355 -1224 -856 -1680 -99 -90 -375 -289 -400 -289
-15 0 1 214 19 250 10 19 67 82 127 140 100 97 109 108 109 143 0 72 -105 157
-195 157 -25 0 -45 3 -45 8 0 4 39 37 85 74 l85 67 37 -20 c80 -45 153 -101
198 -151 56 -64 105 -156 105 -199 0 -26 3 -29 14 -20 11 9 12 21 4 54 -21 95
-121 216 -249 299 l-76 49 35 35 35 35 67 -45 c93 -64 206 -181 259 -269 13
-21 26 -36 28 -33 8 8 -41 86 -95 149 -58 68 -135 135 -207 182 -49 31 -51 34
-47 69 2 20 7 36 10 36 3 0 35 -16 71 -36 82 -45 134 -90 212 -184 34 -41 73
-88 86 -104 13 -16 26 -26 29 -23 6 6 -132 176 -183 225 -38 37 -157 116 -197
132 -14 5 -26 17 -26 27 0 10 -7 31 -15 46 -14 27 -14 28 8 21 65 -21 180 -75
232 -111 62 -42 107 -87 188 -192 43 -55 67 -74 67 -53 0 4 -38 54 -84 112
-113 143 -170 184 -355 255 -78 30 -83 34 -58 40 16 4 76 5 135 2 184 -9 259
-49 380 -201 30 -39 57 -73 59 -75 2 -2 6 -1 10 2 3 4 -5 20 -18 35 -14 15
-44 53 -68 84 -23 31 -58 69 -77 83 -46 35 -129 72 -183 80 -40 7 -43 9 -27
20 10 8 35 16 56 20 39 7 39 7 42 58 l3 52 105 0 c123 -1 156 -10 244 -71 71
-48 76 -50 76 -31 0 16 -105 83 -172 109 -59 24 -173 29 -293 14 l-70 -8 0 85
0 86 70 12 c94 16 243 6 325 -21 36 -12 98 -39 138 -61 41 -21 72 -34 70 -27
-6 18 -122 75 -213 104 -66 22 -100 26 -190 27 -60 0 -131 -5 -157 -11 -42
-11 -52 -10 -83 8 -47 26 -89 26 -107 -1 -14 -22 -14 -22 -54 -3 -21 10 -79
54 -127 96 -121 107 -155 128 -319 205 -199 92 -324 170 -402 252 l-29 30 19
106 19 107 30 -7 c112 -27 192 -21 379 25 183 45 273 52 420 35 157 -19 352
-19 441 0 101 21 225 84 284 143 74 74 87 128 71 288 -7 67 -10 138 -6 158 5
25 3 36 -5 36 -9 0 -10 -34 -5 -142 4 -79 7 -161 6 -183 -1 -55 -34 -118 -83
-161 -50 -43 -182 -107 -252 -122 -92 -20 -237 -24 -365 -10 -218 23 -320 17
-522 -30 -186 -44 -281 -52 -348 -29 -34 12 -35 14 -47 86 -22 129 -115 251
-192 251 -13 0 -27 12 -37 33 -35 68 -93 135 -137 156 -50 24 -78 22 -140 -12
-47 -26 -59 -16 -65 56 l-4 54 56 28 c49 24 65 27 121 23 96 -8 135 -36 278
-200 133 -154 181 -198 267 -246 93 -51 122 -55 420 -57 197 -1 308 -6 389
-18 142 -21 203 -21 289 -2 128 29 217 102 243 199 6 23 17 109 24 192 10 125
17 162 39 209 28 62 25 94 -5 48 -31 -46 -48 -117 -59 -256 -15 -179 -31 -231
-85 -283 -69 -67 -137 -88 -280 -88 -66 0 -196 8 -290 17 -132 14 -208 17
-340 11 -146 -6 -179 -4 -230 11 -124 36 -196 89 -327 240 -140 160 -198 213
-255 235 -67 25 -136 25 -190 0 -24 -10 -43 -16 -43 -13 0 3 17 35 37 70 31
53 42 64 71 69 52 10 135 -2 181 -26 23 -11 112 -89 197 -173 171 -168 202
-191 319 -248 111 -53 177 -68 350 -80 83 -5 206 -17 275 -25 76 -10 165 -15
225 -12 87 4 108 8 154 33 100 55 115 87 166 353 26 136 39 172 82 230 14 18
23 36 20 38 -6 6 -49 -50 -70 -91 -21 -43 -35 -96 -62 -251 -18 -105 -30 -147
-52 -182 -70 -113 -191 -142 -448 -107 -60 9 -180 20 -265 25 -316 18 -420 68
-688 331 -180 176 -220 201 -331 201 l-68 0 21 58 c12 33 24 62 27 65 15 14
119 23 160 14 61 -14 96 -44 187 -161 168 -218 365 -364 564 -418 101 -27 453
-63 550 -56 170 12 240 79 282 266 44 195 65 247 130 333 36 48 36 66 0 25
-63 -71 -94 -145 -135 -316 -69 -291 -133 -322 -569 -278 -249 26 -330 50
-482 143 -110 68 -229 180 -330 310 -123 160 -158 180 -285 169 -72 -6 -73 -5
-79 20 -4 13 -1 45 6 70 8 26 10 68 7 100 -5 51 -3 58 21 83 72 74 186 121
295 121 65 0 71 -2 103 -34 32 -32 34 -37 34 -108 0 -40 -5 -110 -11 -155 -11
-72 -10 -91 6 -148 61 -227 357 -459 650 -510 99 -17 331 -20 386 -5 49 14 99
49 124 87 12 17 43 93 70 169 58 170 93 242 150 316 54 70 43 87 -14 21 -57
-67 -99 -153 -162 -332 -80 -227 -112 -251 -343 -251 -313 0 -590 128 -756
348 -89 119 -101 178 -79 377 24 212 -46 283 -239 242 -93 -21 -147 -46 -207
-99 -25 -22 -47 -39 -48 -37 -2 2 -12 24 -22 48 -25 58 -95 127 -152 153 -25
11 -72 23 -104 25 -53 5 -59 8 -59 29 0 58 55 144 114 179 86 50 165 39 248
-34 55 -48 140 -82 232 -93 178 -20 217 -27 262 -49 51 -26 75 -55 94 -113 14
-44 11 -98 -19 -282 -32 -202 -15 -258 121 -400 140 -146 252 -206 449 -240
162 -28 301 -4 372 64 42 40 61 75 112 212 54 143 90 212 151 291 47 59 60 97
23 63 -64 -58 -147 -203 -198 -348 -77 -217 -137 -266 -327 -266 -153 0 -314
44 -424 117 -82 54 -203 181 -235 247 -40 81 -41 123 -10 310 34 200 28 250
-33 318 -58 64 -133 87 -328 102 -97 8 -145 27 -228 90 -90 69 -138 83 -209
62 -92 -27 -174 -119 -187 -210 -5 -38 -8 -41 -65 -63 -32 -13 -61 -23 -63
-23 -3 0 -2 39 0 88 5 106 39 189 101 250 69 67 423 309 463 316 55 11 77 -10
114 -106 65 -173 73 -189 107 -217 21 -17 79 -43 151 -66 141 -45 162 -55 217
-106 54 -50 96 -142 103 -225 4 -51 -2 -85 -29 -181 -40 -145 -43 -228 -9
-318 18 -49 39 -76 109 -145 132 -130 250 -182 416 -183 172 -1 262 65 315
228 25 78 98 221 159 314 34 51 60 95 57 98 -7 7 -97 -131 -149 -227 -25 -47
-60 -128 -79 -180 -26 -76 -42 -104 -78 -140 -79 -80 -206 -101 -364 -60 -101
26 -173 67 -261 152 -123 117 -159 240 -116 398 50 184 55 210 43 274 -21 110
-78 198 -164 252 -20 13 -74 35 -120 49 -128 41 -184 64 -206 88 -11 12 -36
67 -56 122 -55 150 -56 151 -81 175 -20 19 -32 22 -73 18 -42 -4 -67 -18 -188
-103 -76 -54 -167 -118 -201 -142 -74 -52 -134 -117 -162 -178 -23 -49 -44
-161 -40 -216 3 -31 -4 -44 -44 -89 -26 -29 -49 -51 -51 -49 -6 9 13 297 23
342 29 126 66 176 210 286 172 132 274 239 342 358 23 40 19 77 -5 40 -96
-155 -185 -251 -341 -369 -212 -160 -237 -215 -255 -573 -16 -294 -22 -345
-53 -397 -41 -71 -98 -114 -242 -184 -144 -71 -159 -83 -350 -285 -107 -113
-161 -142 -278 -147 -99 -5 -149 9 -227 62 -142 96 -247 268 -327 537 -31 107
-37 138 -37 229 -1 90 2 111 21 145 27 50 117 137 253 246 162 128 235 196
312 287 90 107 148 149 336 245 141 73 222 129 222 156 0 20 -19 12 -41 -18
-14 -19 -76 -57 -183 -112 -204 -104 -229 -122 -313 -216 -113 -128 -193 -204
-344 -325 -227 -181 -269 -232 -290 -345 -20 -109 45 -363 143 -563 55 -109
72 -135 143 -206 57 -58 100 -90 150 -115 65 -32 77 -34 165 -34 155 0 201 29
421 269 69 74 109 102 259 176 126 63 193 115 226 175 24 44 34 45 27 1 -3
-19 0 -58 7 -87 l13 -53 -44 -39 c-26 -24 -107 -70 -198 -113 l-154 -74 -116
-118 c-91 -93 -130 -126 -181 -150 -71 -35 -179 -62 -250 -62 -61 0 -160 25
-219 54 -132 67 -331 253 -389 364 -16 31 -55 129 -87 217 -32 88 -82 215
-111 282 -30 67 -54 125 -54 128 0 10 76 109 101 131 13 12 78 52 144 89 246
138 337 207 510 380 88 89 182 176 208 194 27 18 46 35 43 38 -12 12 -113 -73
-246 -207 -145 -148 -229 -216 -370 -302 -153 -93 -250 -147 -250 -140 0 4 44
55 99 113 68 72 115 113 155 134 96 50 284 199 298 237 7 17 144 101 263 161
279 139 583 226 920 261 92 9 504 -3 605 -19z m-1930 -506 c-44 -40 -80 -65
-80 -54 0 6 113 95 120 95 3 -1 -15 -19 -40 -41z m-404 -963 c91 -248 110
-281 234 -407 180 -183 317 -253 490 -253 173 1 258 43 439 218 130 126 140
133 236 175 124 53 176 83 227 129 37 34 39 34 53 16 8 -10 19 -32 26 -47 11
-25 9 -31 -17 -58 -42 -45 -102 -84 -207 -136 -83 -41 -174 -96 -187 -113 -18
-24 -166 -128 -221 -155 -179 -90 -406 -105 -569 -36 -38 16 -134 65 -214 110
-259 146 -369 191 -465 191 -145 0 -270 -95 -361 -273 -54 -107 -59 -102 -35
34 51 289 182 624 349 892 l61 98 48 -102 c26 -56 77 -183 113 -283z m1752
-241 c19 -42 15 -50 -52 -112 -61 -56 -102 -82 -412 -261 -209 -122 -316 -151
-555 -154 -159 -2 -211 9 -374 84 -273 125 -346 145 -472 127 -126 -18 -183
-69 -269 -242 -31 -61 -72 -131 -92 -154 -36 -45 -129 -119 -138 -110 -3 3 -1
61 4 128 l9 124 72 135 c78 148 131 208 217 250 132 63 264 28 572 -152 104
-60 214 -116 267 -135 109 -39 298 -34 441 11 97 31 173 76 295 172 56 45 143
100 222 141 88 45 148 84 186 119 31 29 59 53 62 54 3 0 11 -11 17 -25z m42
-124 c0 -35 -7 -45 -63 -97 -35 -33 -95 -77 -133 -100 -57 -34 -82 -42 -144
-48 -93 -9 -122 -24 -165 -85 -53 -74 -158 -112 -355 -131 -264 -25 -398 -9
-663 80 -133 45 -159 51 -237 51 -100 0 -142 -15 -198 -73 -30 -31 -72 -127
-72 -163 0 -8 -13 -44 -29 -79 -34 -76 -80 -114 -174 -146 -34 -11 -85 -33
-113 -49 l-52 -28 -7 60 c-3 33 -3 63 2 66 4 4 40 33 80 65 79 63 119 117 181
246 78 164 150 215 302 214 106 0 164 -17 339 -99 215 -100 256 -110 446 -110
249 1 352 28 547 144 63 37 150 87 194 111 105 58 177 107 244 168 30 27 58
48 63 45 4 -2 7 -21 7 -42z m561 -93 c23 -18 57 -58 75 -88 l32 -55 -60 -3
c-44 -2 -70 2 -101 17 -54 27 -139 100 -131 113 14 22 71 48 106 48 26 0 49
-9 79 -32z m-627 -46 c-33 -30 -118 -89 -139 -95 l-20 -7 20 16 c91 69 151
111 154 108 3 -2 -4 -12 -15 -22z m-1479 -251 c164 -58 299 -89 414 -97 177
-11 505 35 559 78 20 17 23 4 7 -35 -14 -33 -19 -36 -87 -52 -95 -22 -490 -38
-602 -26 -45 6 -124 19 -176 30 -204 42 -279 44 -342 9 -54 -30 -82 -79 -108
-193 -36 -155 -87 -200 -264 -231 -95 -16 -154 -35 -205 -65 -18 -11 -36 -17
-39 -15 -3 3 -7 27 -10 54 l-4 48 70 37 c38 20 76 37 83 37 8 0 41 13 74 29
92 43 132 99 161 224 51 214 192 265 469 168z m91 -112 c124 -27 174 -32 304
-34 259 -4 480 13 553 41 14 5 17 0 17 -24 0 -19 -6 -32 -17 -37 -23 -9 -487
-24 -771 -24 -293 -1 -306 -7 -369 -170 -46 -121 -73 -164 -121 -195 -51 -33
-87 -42 -237 -60 -114 -14 -140 -21 -206 -54 l-77 -39 -7 41 c-5 36 -3 43 20
62 36 28 131 60 240 80 160 28 221 80 251 209 56 244 108 269 420 204z m876
-104 c3 -14 1 -28 -3 -31 -5 -3 -89 -7 -187 -9 -262 -5 -642 -44 -696 -72 -51
-25 -95 -74 -137 -148 -100 -181 -175 -223 -444 -244 -155 -12 -188 -21 -256
-67 -28 -19 -53 -33 -55 -31 -2 1 -6 21 -9 42 -7 40 -6 40 47 72 67 40 104 50
256 68 222 26 271 63 346 262 15 40 36 84 48 98 41 53 45 53 478 60 343 5 443
9 591 23 10 1 18 -8 21 -23z m11 -62 c3 -10 8 -31 12 -47 l6 -29 -43 6 c-24 4
-117 10 -208 13 -191 8 -323 -5 -442 -42 -101 -32 -160 -74 -236 -170 -107
-133 -168 -191 -240 -226 -65 -32 -69 -33 -246 -39 -100 -3 -192 -10 -206 -14
-36 -12 -90 -48 -127 -84 -35 -35 -38 -34 -48 25 -6 41 -5 43 40 77 65 50 118
65 290 81 259 26 326 64 428 246 20 36 42 72 49 80 28 34 86 69 128 79 90 20
370 44 585 51 121 3 228 7 237 8 9 1 19 -6 21 -15z m-144 -83 c73 -6 142 -15
152 -21 26 -14 24 -57 -5 -116 -13 -26 -29 -73 -36 -104 l-12 -56 -172 -52
c-269 -83 -326 -112 -533 -268 -61 -47 -117 -82 -123 -78 -6 3 -18 23 -28 43
-20 43 -48 51 -96 28 -55 -26 -61 -40 -61 -140 l0 -91 -52 1 -53 2 0 -38 c0
-34 -5 -41 -49 -69 -72 -46 -163 -79 -256 -92 -127 -18 -124 -20 -183 128 -71
179 -105 298 -93 320 18 34 76 82 126 105 43 19 73 23 230 29 106 4 194 12
215 19 82 31 154 91 242 204 119 151 162 182 308 220 134 35 264 42 479 26z
m1647 -136 c95 -80 159 -118 334 -201 188 -89 222 -110 336 -212 49 -44 108
-89 131 -98 24 -10 43 -21 43 -24 0 -21 -106 -99 -135 -99 -19 0 -84 43 -175
116 -118 94 -260 184 -395 250 l-132 64 -7 46 c-7 51 -51 180 -68 201 -23 29
6 10 68 -43z m-1556 -208 c0 -35 -20 -66 -42 -66 -85 0 -334 -95 -465 -176
-70 -44 -198 -144 -214 -167 -7 -9 -69 21 -69 33 0 8 201 158 271 203 76 48
158 82 334 138 165 52 185 56 185 35z m1238 -204 c-18 -17 -34 -29 -36 -28 -1
2 5 32 13 67 8 35 17 82 21 104 7 39 8 39 22 -37 l14 -77 -34 -29z m463 112
c126 -62 237 -133 354 -223 44 -34 104 -78 133 -98 l53 -37 -24 -24 c-24 -24
-27 -24 -78 -12 -77 17 -351 170 -449 249 -84 68 -99 83 -104 112 -4 16 -9 43
-12 59 -3 19 -1 30 5 30 6 0 61 -25 122 -56z m-1369 -1 c6 -43 4 -48 -15 -40
-9 3 -12 17 -9 41 5 47 19 46 24 -1z m-350 -12 c-4 -26 -9 -30 -65 -41 -99
-21 -265 -77 -326 -112 -73 -41 -111 -69 -193 -140 -60 -53 -69 -57 -88 -46
-11 7 -20 16 -20 20 0 4 33 36 74 70 137 117 309 206 486 252 129 33 138 33
132 -3z m364 -65 c11 -23 33 -91 30 -93 -2 -3 -24 2 -48 10 -38 14 -43 18 -40
44 5 48 10 55 34 47 13 -3 23 -7 24 -8z m-432 -35 c-32 -25 -75 -46 -124 -60
-114 -34 -211 -86 -292 -156 -70 -62 -115 -84 -139 -70 -14 10 67 93 146 149
101 73 216 124 350 157 107 26 114 24 59 -20z m1366 -8 c0 -15 22 -73 56 -149
4 -9 -76 -64 -93 -64 -5 0 -63 125 -63 136 0 11 82 94 92 94 4 0 8 -8 8 -17z
m-933 -63 l43 -19 -22 -38 c-12 -21 -23 -40 -24 -42 -5 -7 -94 34 -94 43 0 26
26 76 40 76 8 0 34 -9 57 -20z m-573 -43 c-73 -54 -216 -132 -266 -145 -21 -6
-38 -9 -38 -7 0 11 62 62 120 100 71 46 182 94 219 95 19 0 12 -8 -35 -43z
m516 -67 c22 -11 40 -21 40 -23 0 -1 -9 -26 -21 -56 -14 -39 -20 -73 -18 -120
2 -61 1 -66 -19 -69 -17 -3 -23 4 -32 38 -14 51 -67 111 -120 135 -22 10 -40
21 -40 25 0 4 21 17 48 29 26 12 58 31 72 41 32 25 42 25 90 0z m-1178 -25 c0
-5 -5 -11 -11 -13 -6 -2 -11 4 -11 13 0 9 5 15 11 13 6 -2 11 -8 11 -13z
m2351 -29 c105 -51 251 -100 415 -141 62 -15 112 -29 110 -30 -2 -2 -68 -8
-148 -15 -80 -6 -167 -16 -193 -21 -41 -7 -64 -5 -140 18 -92 26 -175 34 -212
21 -18 -7 -20 -3 -23 45 -1 28 -3 67 -5 86 -2 31 2 36 42 58 24 12 48 23 53
23 5 0 50 -20 101 -44z m1005 -3 l-3 -48 -35 3 c-63 7 -66 15 -19 55 23 21 47
37 51 37 5 0 8 -21 6 -47z m-3288 -8 l24 -25 -34 -30 c-39 -35 -46 -36 -60
-11 -15 29 -12 62 8 77 25 19 36 17 62 -11z m937 -42 c44 -21 100 -84 112
-128 9 -34 8 -40 -17 -65 l-27 -27 -47 18 c-60 24 -246 55 -408 69 -115 11
-141 15 -129 23 2 1 56 15 119 31 63 15 162 45 220 66 107 38 120 39 177 13z
m-922 -23 c-3 -5 -12 -10 -18 -10 -7 0 -6 4 3 10 19 12 23 12 15 0z m3243 0
c6 0 12 -4 12 -10 0 -11 -30 -13 -54 -4 -25 9 -19 27 7 20 12 -3 28 -6 35 -6z
m-3477 -102 c22 -6 39 -14 39 -17 -1 -9 -131 -88 -192 -116 -31 -14 -96 -34
-144 -44 -161 -34 -149 -34 -167 5 -10 19 -17 38 -17 43 0 5 35 11 78 13 93 6
190 37 274 88 72 43 76 44 129 28z m2517 -17 c80 -21 99 -31 61 -31 -13 0 -55
-11 -93 -24 l-70 -24 -18 23 c-10 13 -32 26 -48 30 -39 9 -47 23 -18 34 37 15
108 12 186 -8z m-2379 -21 c20 0 22 -2 10 -16 -49 -60 -258 -175 -394 -217
-143 -44 -141 -44 -165 3 -12 23 -20 44 -18 46 2 2 56 14 120 28 121 25 235
75 316 137 29 23 44 28 72 24 19 -3 46 -5 59 -5z m144 -17 c5 -3 -1 -12 -13
-20 -12 -9 -30 -34 -40 -58 -19 -45 -105 -117 -193 -162 -55 -27 -339 -145
-342 -141 -41 60 -66 100 -63 102 1 2 46 16 98 30 124 35 276 110 377 184 44
33 84 66 88 72 7 11 67 6 88 -7z m-29 -252 c9 -10 16 -22 16 -28 0 -21 -59
-61 -204 -138 -89 -48 -161 -93 -186 -119 -24 -24 -44 -37 -48 -31 -4 6 -34
46 -66 88 -34 45 -55 81 -50 86 5 5 63 30 129 56 147 58 254 113 320 164 l50
39 12 -50 c6 -27 18 -57 27 -67z m125 -97 c61 -46 62 -47 44 -67 -10 -11 -70
-54 -133 -95 -78 -50 -142 -102 -199 -161 l-85 -87 -73 79 c-61 65 -72 81 -63
97 11 21 89 90 102 90 15 0 262 139 293 164 17 14 35 25 42 26 6 0 39 -21 72
-46z m122 -99 l39 -35 -118 -92 c-64 -51 -144 -113 -176 -138 -33 -25 -75 -66
-95 -92 -19 -27 -38 -48 -41 -48 -3 0 -25 19 -48 43 l-42 43 60 66 c61 68 147
135 255 200 33 20 71 48 84 62 14 14 29 26 34 26 5 0 27 -16 48 -35z m2731
-35 c51 -14 127 -86 134 -128 7 -35 3 -40 -148 -177 -85 -78 -101 -117 -106
-257 l-4 -118 -32 -19 c-46 -28 -126 -71 -131 -71 -3 0 -20 31 -39 68 -80 159
-269 397 -361 453 l-30 19 73 0 c40 0 94 5 120 11 74 18 222 92 308 157 44 32
87 62 95 65 23 9 81 8 121 -3z m-2628 -45 c42 -33 58 -55 38 -55 -14 0 -148
-93 -206 -144 -48 -41 -155 -171 -184 -222 -8 -15 -17 -11 -65 27 -31 24 -56
51 -56 60 -1 26 103 126 229 221 63 48 131 100 150 117 19 17 38 30 41 31 3 0
27 -16 53 -35z m261 -152 l70 -28 340 -5 c225 -3 323 -8 290 -13 -263 -43
-357 -126 -289 -258 30 -59 184 -176 389 -297 39 -23 86 -58 105 -77 31 -32
35 -42 35 -90 0 -29 -3 -56 -6 -60 -4 -3 -46 -3 -93 1 -82 6 -87 8 -92 33 -12
51 -55 110 -112 154 -103 78 -225 145 -322 179 -83 28 -107 32 -195 31 -107
-1 -253 -27 -345 -62 l-54 -21 -56 32 c-91 51 -260 169 -260 182 0 20 71 119
129 179 65 68 149 135 227 182 l55 33 57 -33 c31 -19 89 -47 127 -62z m1214
-69 c-74 -38 -158 -65 -279 -89 -136 -27 -207 -52 -229 -82 -32 -39 -27 -74
17 -117 46 -47 84 -67 193 -100 166 -50 228 -118 251 -275 7 -44 10 -83 7 -86
-3 -3 -53 -8 -111 -11 l-105 -7 -5 68 c-4 65 -6 69 -49 109 -25 22 -112 82
-193 131 -264 161 -353 273 -285 359 35 45 113 75 294 113 74 16 524 35 549
24 5 -2 -20 -19 -55 -37z m427 17 c80 -49 228 -211 306 -336 52 -83 107 -195
99 -200 -5 -2 -45 -20 -90 -39 l-81 -35 -102 100 c-56 55 -118 109 -137 118
-79 40 -140 35 -193 -16 -41 -40 -60 -110 -62 -232 l-2 -106 -88 -11 c-62 -7
-89 -7 -91 0 -2 6 -5 41 -8 77 -5 79 -35 151 -85 202 -46 48 -73 62 -188 98
-146 46 -229 116 -198 167 18 29 96 60 193 77 126 22 260 66 346 115 l70 40
140 0 c120 0 144 -3 171 -19z m-21 -400 c22 -10 85 -63 139 -117 l100 -98
-116 -38 c-63 -21 -158 -47 -209 -58 -52 -11 -105 -23 -118 -26 l-24 -5 5 118
c6 133 19 175 67 216 39 33 96 36 156 8z m-1339 -12 c129 -40 309 -144 390
-225 38 -38 76 -116 62 -129 -3 -3 -31 -1 -64 3 -55 8 -63 12 -124 73 -68 69
-155 119 -240 138 -61 14 -251 14 -319 0 -55 -12 -57 -11 -149 31 -50 24 -92
47 -92 51 0 5 30 18 68 29 169 53 353 65 468 29z m69 -168 c73 -26 172 -91
202 -134 12 -17 21 -32 20 -33 -6 -6 -166 28 -211 45 -29 11 -82 25 -117 31
-63 11 -256 75 -273 90 -5 5 9 12 30 15 22 4 44 8 49 11 6 2 62 2 125 0 85 -3
131 -9 175 -25z"/>
<path d="M4598 8088 c8 -8 17 -8 34 0 22 10 21 11 -11 11 -27 1 -32 -2 -23
-11z"/>
<path d="M4905 8042 c-43 -83 -136 -170 -251 -237 -201 -117 -208 -134 -234
-565 -17 -280 -26 -347 -56 -407 -30 -62 -88 -114 -229 -205 -131 -85 -214
-152 -296 -241 -36 -39 -98 -94 -138 -121 -59 -41 -81 -50 -126 -54 -117 -10
-239 85 -315 242 -75 157 -125 361 -118 481 7 102 31 142 166 270 132 125 290
284 407 407 97 102 160 137 317 177 213 55 257 80 277 160 16 62 20 111 10
111 -5 0 -9 -9 -9 -20 0 -49 -24 -124 -49 -151 -21 -23 -52 -35 -156 -64 -265
-74 -327 -109 -461 -266 -45 -52 -130 -140 -190 -195 -298 -273 -330 -317
-328 -459 1 -92 47 -291 94 -404 55 -135 138 -234 233 -280 39 -19 60 -23 117
-19 63 3 75 8 137 50 37 26 113 93 167 148 72 73 138 127 235 192 238 160 279
206 300 339 6 35 17 177 26 314 26 416 35 439 205 535 101 56 172 112 221 174
45 55 82 122 77 137 -2 5 -16 -17 -33 -49z"/>
<path d="M5615 7949 c-4 -6 -10 -62 -13 -123 -7 -160 12 -193 148 -261 120
-60 225 -201 285 -380 35 -103 31 -167 -18 -285 -72 -173 -73 -259 -5 -361 67
-101 169 -169 284 -190 117 -22 213 6 274 78 17 21 55 92 84 158 29 66 88 189
130 274 42 84 75 155 72 158 -6 7 -144 -267 -212 -422 -29 -66 -67 -137 -85
-159 -45 -54 -107 -79 -194 -78 -157 1 -292 89 -370 242 -29 55 -24 131 14
235 85 234 85 227 41 358 -65 192 -156 309 -301 387 -45 24 -92 58 -105 75
-30 40 -39 117 -25 219 11 78 10 99 -4 75z"/>
<path d="M3997 7664 c-47 -9 -85 -24 -124 -51 -56 -37 -75 -58 -237 -257 -43
-53 -120 -132 -171 -176 -152 -131 -181 -189 -179 -365 3 -278 133 -490 290
-472 56 6 107 40 287 190 76 63 177 141 224 173 47 32 104 81 125 108 92 116
111 193 112 451 1 178 -1 194 -23 250 -52 129 -152 179 -304 149z m200 -31
c73 -34 123 -165 123 -320 -2 -327 -57 -469 -226 -585 -69 -48 -130 -95 -353
-277 -85 -69 -130 -91 -183 -91 -146 1 -258 209 -258 483 0 141 38 213 175
327 75 63 181 180 278 307 26 34 65 77 88 97 105 89 244 112 356 59z"/>
<path d="M3965 7495 c-47 -21 -78 -52 -153 -155 -38 -53 -107 -137 -154 -186
-109 -118 -151 -170 -175 -219 -67 -134 -51 -312 34 -391 72 -66 118 -47 409
172 172 129 206 164 244 249 63 139 66 379 6 467 -48 72 -136 98 -211 63z
m146 -18 c19 -12 45 -43 59 -67 24 -43 25 -53 25 -200 -1 -176 -13 -223 -83
-315 -38 -50 -213 -189 -385 -305 -76 -51 -95 -60 -133 -60 -58 0 -92 32 -122
113 -27 72 -28 136 -2 219 26 85 60 133 183 265 56 60 120 134 142 164 95 133
120 161 164 184 59 31 108 31 152 2z"/>
<path d="M6256 7418 c-18 -27 -12 -82 18 -167 10 -25 16 -76 16 -122 0 -91
-26 -169 -83 -247 -66 -90 -87 -139 -87 -207 0 -54 5 -69 33 -111 75 -114 242
-139 326 -50 25 26 96 197 160 386 52 151 58 221 23 290 -55 111 -218 230
-339 246 -47 6 -52 4 -67 -18z m182 -39 c110 -62 189 -135 217 -203 19 -44 19
-127 1 -186 -22 -71 -101 -288 -134 -369 -45 -108 -93 -151 -168 -151 -122 0
-223 93 -224 207 0 52 10 77 78 182 78 120 96 169 96 271 0 60 -7 105 -22 154
-23 70 -28 117 -14 130 16 17 114 -3 170 -35z"/>
<path d="M7240 5833 c-156 -97 -306 -158 -471 -194 -94 -20 -189 -49 -351
-108 -64 -24 -123 -26 -195 -10 -42 10 -54 9 -82 -5 -79 -42 -34 -86 114 -111
34 -6 55 -22 136 -104 153 -155 254 -211 461 -256 174 -39 254 -62 318 -95 58
-29 94 -39 74 -21 -28 26 -181 80 -351 122 -257 64 -320 96 -465 238 -119 116
-132 125 -198 136 -25 4 -62 16 -83 27 -31 15 -36 22 -27 33 22 27 63 33 120
18 69 -18 115 -11 238 34 138 51 174 61 297 89 172 38 340 108 475 197 55 37
54 36 49 41 -2 1 -29 -12 -59 -31z"/>
<path d="M7255 5658 c-65 -23 -294 -122 -358 -155 -71 -37 -113 -78 -123 -119
-14 -54 46 -133 134 -176 53 -25 371 -108 377 -97 3 3 -48 19 -113 34 -186 44
-250 66 -306 106 -30 21 -61 54 -70 73 -15 31 -15 39 -3 68 8 18 31 46 52 62
39 30 305 153 415 192 36 12 56 22 45 22 -11 0 -33 -4 -50 -10z"/>
<path d="M3600 5431 c-36 -10 -84 -27 -106 -39 -77 -39 -180 -180 -172 -234 6
-48 61 -37 297 59 186 75 218 92 241 121 37 47 19 74 -62 92 -92 19 -131 20
-198 1z m140 -2 c95 -21 118 -30 124 -46 16 -41 -78 -91 -372 -199 -110 -40
-152 -44 -152 -14 0 52 84 164 153 204 23 14 76 34 117 45 90 24 76 23 130 10z"/>
<path d="M2535 4946 c-70 -30 -123 -128 -110 -200 18 -94 91 -142 205 -134
110 8 206 75 261 180 33 65 -1 108 -119 147 -71 24 -190 28 -237 7z m175 -6
c30 -6 77 -21 107 -35 90 -41 92 -85 10 -180 -135 -156 -387 -128 -387 43 0
80 42 141 117 167 46 17 84 18 153 5z"/>
<path d="M3745 3743 c-67 -35 -81 -65 -45 -98 15 -13 30 -16 61 -12 86 11 119
91 48 116 -18 6 -32 11 -33 11 -1 -1 -14 -8 -31 -17z m79 -19 c9 -8 16 -19 16
-24 0 -14 -30 -40 -54 -46 -78 -19 -116 28 -54 66 40 24 71 26 92 4z"/>
<path d="M6271 8174 c0 -11 3 -14 6 -6 3 7 2 16 -1 19 -3 4 -6 -2 -5 -13z"/>
<path d="M6610 8170 c0 -11 4 -20 9 -20 5 0 7 9 4 20 -3 11 -7 20 -9 20 -2 0
-4 -9 -4 -20z"/>
<path d="M1730 8160 c8 -5 20 -10 25 -10 6 0 3 5 -5 10 -8 5 -19 10 -25 10 -5
0 -3 -5 5 -10z"/>
<path d="M1783 8143 c9 -2 23 -2 30 0 6 3 -1 5 -18 5 -16 0 -22 -2 -12 -5z"/>
<path d="M1132 8100 c0 -14 2 -19 5 -12 2 6 2 18 0 25 -3 6 -5 1 -5 -13z"/>
<path d="M3050 8111 c0 -6 4 -13 10 -16 6 -3 7 1 4 9 -7 18 -14 21 -14 7z"/>
<path d="M1258 8103 c7 -3 16 -2 19 1 4 3 -2 6 -13 5 -11 0 -14 -3 -6 -6z"/>
<path d="M1763 8103 c9 -2 23 -2 30 0 6 3 -1 5 -18 5 -16 0 -22 -2 -12 -5z"/>
<path d="M3362 8070 c0 -14 2 -19 5 -12 2 6 2 18 0 25 -3 6 -5 1 -5 -13z"/>
<path d="M6281 8074 c0 -11 3 -14 6 -6 3 7 2 16 -1 19 -3 4 -6 -2 -5 -13z"/>
<path d="M1621 8038 c-1 -27 3 -48 7 -48 4 0 6 17 4 38 -5 58 -10 62 -11 10z"/>
<path d="M1748 8069 c13 -17 66 -33 56 -18 -3 5 -13 9 -23 9 -9 0 -23 6 -31
13 -12 10 -12 9 -2 -4z"/>
<path d="M1961 8064 c0 -11 3 -14 6 -6 3 7 2 16 -1 19 -3 4 -6 -2 -5 -13z"/>
<path d="M3090 8042 c6 -13 14 -21 18 -18 3 4 -2 14 -12 24 -18 16 -18 16 -6
-6z"/>
<path d="M2100 8040 c0 -6 7 -10 15 -10 8 0 15 2 15 4 0 2 -7 6 -15 10 -8 3
-15 1 -15 -4z"/>
<path d="M2685 8039 c-4 -6 -5 -12 -2 -15 2 -3 7 2 10 11 7 17 1 20 -8 4z"/>
<path d="M3275 8040 c-3 -6 1 -7 9 -4 18 7 21 14 7 14 -6 0 -13 -4 -16 -10z"/>
<path d="M3316 8035 c-11 -8 -15 -15 -9 -15 6 0 16 7 23 15 16 19 11 19 -14 0z"/>
<path d="M1402 8010 c0 -19 2 -27 5 -17 2 9 2 25 0 35 -3 9 -5 1 -5 -18z"/>
<path d="M1776 8003 c-6 -14 -5 -15 5 -6 7 7 10 15 7 18 -3 3 -9 -2 -12 -12z"/>
<path d="M6357 7979 c7 -7 15 -10 18 -7 3 3 -2 9 -12 12 -14 6 -15 5 -6 -5z"/>
<path d="M6744 7975 c-10 -8 -14 -15 -8 -15 6 0 17 7 24 15 16 19 9 19 -16 0z"/>
<path d="M3001 7934 c0 -11 3 -14 6 -6 3 7 2 16 -1 19 -3 4 -6 -2 -5 -13z"/>
<path d="M6595 7880 c-16 -11 -25 -20 -20 -20 10 0 64 39 55 40 -3 0 -18 -9
-35 -20z"/>
<path d="M2671 7874 c0 -11 3 -14 6 -6 3 7 2 16 -1 19 -3 4 -6 -2 -5 -13z"/>
<path d="M6760 7850 c0 -5 5 -10 11 -10 5 0 7 5 4 10 -3 6 -8 10 -11 10 -2 0
-4 -4 -4 -10z"/>
<path d="M2690 7844 c0 -6 7 -19 16 -30 14 -18 14 -18 3 6 -14 31 -19 36 -19
24z"/>
<path d="M2940 7820 c-9 -6 -10 -10 -3 -10 6 0 15 5 18 10 8 12 4 12 -15 0z"/>
<path d="M2740 7786 c0 -2 7 -7 16 -10 8 -3 12 -2 9 4 -6 10 -25 14 -25 6z"/>
<path d="M790 3131 c0 -6 14 -11 31 -13 32 -3 39 -14 85 -142 15 -42 19 -46
30 -32 10 14 5 33 -24 106 l-36 90 -43 0 c-24 0 -43 -4 -43 -9z"/>
<path d="M1035 3130 c-3 -5 2 -10 12 -10 19 0 20 -24 10 -195 l-2 -40 40 -2
c33 -2 36 -1 18 7 -22 9 -23 15 -23 116 0 90 3 109 18 120 15 12 12 13 -25 14
-23 0 -45 -4 -48 -10z"/>
<path d="M2337 3133 c-14 -14 -6 -19 23 -15 28 4 30 3 21 -19 -4 -13 -9 -77
-9 -142 -1 -75 -6 -124 -13 -133 -12 -15 -2 -19 18 -6 24 15 33 66 33 183 0
73 4 119 10 119 6 0 10 5 10 10 0 11 -83 14 -93 3z"/>
<path d="M821 2998 c-1 -54 -2 -101 -3 -105 -2 -5 13 -9 32 -10 30 -2 32 -1
13 7 -21 9 -23 16 -24 87 0 43 -4 87 -9 98 -6 13 -9 -14 -9 -77z"/>
<path d="M1015 3081 c-3 -6 -10 -9 -15 -6 -4 3 -6 -5 -2 -17 3 -14 1 -19 -6
-14 -6 3 -14 1 -18 -5 -5 -8 -3 -9 6 -4 15 9 8 -18 -26 -93 -28 -61 -28 -62
-11 -62 13 0 94 196 85 206 -3 3 -9 0 -13 -5z"/>
<path d="M1525 3077 c-12 -10 -14 -16 -7 -21 7 -4 11 -36 11 -82 -1 -42 1 -78
4 -80 10 -10 44 -12 58 -3 11 7 9 9 -8 9 -16 0 -23 8 -28 30 -4 16 -4 34 0 40
3 5 2 26 -4 45 -9 34 -9 35 15 29 14 -4 24 -2 24 5 0 6 -9 11 -21 11 -15 0
-19 5 -15 15 7 19 -4 19 -29 2z"/>
<path d="M1180 3035 c-20 -21 -21 -25 -6 -25 9 0 19 7 22 15 7 18 42 14 55 -6
5 -8 9 -37 9 -65 0 -33 5 -56 15 -64 18 -15 42 -3 26 13 -6 6 -11 34 -11 62 0
59 -13 81 -55 89 -25 5 -36 2 -55 -19z"/>
<path d="M1695 3050 c-6 -9 0 -14 16 -12 11 2 41 -36 32 -41 -4 -2 -23 -2 -40
0 -30 5 -32 8 -26 32 6 26 6 26 -16 7 -27 -25 -27 -46 2 -47 120 -5 133 0 100
39 -22 24 -59 37 -68 22z"/>
<path d="M1848 3049 c-9 -6 -6 -9 11 -9 13 0 30 -8 37 -17 12 -17 13 -17 14 3
0 24 -38 38 -62 23z"/>
<path d="M2029 3044 c-11 -13 -9 -14 12 -9 24 6 27 2 45 -54 10 -34 22 -61 26
-61 18 0 19 26 2 68 -12 33 -14 47 -6 50 7 2 12 8 12 13 0 16 -77 10 -91 -7z"/>
<path d="M2157 3046 c-4 -10 0 -14 13 -11 19 4 19 2 -1 -48 -11 -29 -27 -59
-35 -68 -8 -9 -17 -27 -19 -40 -3 -13 -13 -31 -22 -39 -26 -23 -29 -44 -4 -30
11 5 43 59 72 120 29 60 56 110 61 110 4 0 8 5 8 10 0 16 -67 12 -73 -4z"/>
<path d="M2457 3053 c-13 -13 -7 -21 13 -16 18 5 20 0 20 -48 0 -69 18 -104
50 -103 39 2 40 3 40 21 0 15 -1 15 -13 -2 -13 -17 -15 -17 -30 6 -12 16 -17
44 -17 86 0 62 0 63 -28 63 -16 0 -32 -3 -35 -7z"/>
<path d="M2577 3053 c-13 -12 -7 -25 6 -14 22 18 27 2 27 -81 l0 -78 33 0 c26
1 29 2 15 11 -15 8 -18 24 -18 89 l0 80 -28 0 c-16 0 -32 -3 -35 -7z"/>
<path d="M2765 3050 c-6 -10 -4 -11 25 -14 8 0 16 -11 18 -23 2 -15 10 -23 23
-23 33 0 22 38 -18 59 -27 14 -40 14 -48 1z"/>
<path d="M2867 3046 c-5 -11 0 -13 21 -7 26 8 27 6 28 -28 0 -20 8 -52 16 -71
13 -30 17 -32 23 -16 5 11 2 38 -7 66 -14 42 -14 48 1 58 13 9 6 11 -30 11
-32 1 -49 -4 -52 -13z"/>
<path d="M2994 3048 c-5 -8 0 -9 14 -6 12 4 22 2 22 -3 0 -5 -4 -9 -8 -9 -5 0
-15 -19 -22 -42 -6 -24 -21 -53 -31 -67 -22 -28 -24 -41 -6 -41 6 0 25 32 40
70 16 39 35 77 43 84 8 8 14 17 14 20 0 11 -59 6 -66 -6z"/>
<path d="M3150 3050 c-12 -8 -9 -10 12 -10 17 0 31 -8 38 -19 13 -25 1 -33
-39 -25 -22 5 -31 12 -31 26 0 16 -3 18 -13 9 -8 -6 -16 -8 -20 -5 -3 3 -3 -3
0 -15 3 -12 13 -22 22 -22 9 -1 27 -3 41 -4 32 -4 80 5 80 15 0 14 -35 48 -55
54 -11 3 -27 1 -35 -4z"/>
<path d="M3314 3049 c-3 -5 4 -9 15 -9 11 0 25 -8 30 -17 9 -16 10 -16 11 3 0
15 -8 23 -25 26 -14 3 -28 1 -31 -3z"/>
<path d="M1360 3029 c0 -24 23 -21 28 4 2 10 -3 17 -12 17 -10 0 -16 -9 -16
-21z"/>
<path d="M1438 3043 c9 -4 10 -8 2 -18 -9 -10 -7 -13 7 -11 28 4 29 36 1 35
-13 0 -17 -3 -10 -6z"/>
<path d="M1817 3033 c-16 -15 -5 -35 29 -55 36 -21 55 -52 47 -75 -3 -7 -10
-10 -16 -6 -6 3 -7 1 -3 -5 9 -15 34 -4 47 19 10 20 -3 59 -21 59 -5 0 -24 16
-43 35 -19 19 -37 32 -40 28z"/>
<path d="M2725 3020 c-10 -11 -16 -22 -14 -24 8 -8 78 -10 85 -3 4 4 -7 7 -25
7 -28 0 -31 3 -26 20 8 25 3 25 -20 0z"/>
<path d="M3279 3016 c4 -12 22 -30 39 -41 36 -23 52 -62 31 -76 -11 -7 -11 -9
3 -9 10 0 22 9 28 21 14 25 -8 64 -40 74 -12 4 -25 17 -30 29 -11 30 -41 31
-31 2z"/>
<path d="M1385 3003 c-5 -10 -11 -41 -14 -69 l-7 -50 41 -2 c35 -1 37 0 16 9
-22 9 -23 13 -18 69 5 59 -3 78 -18 43z"/>
<path d="M2581 2994 c0 -11 3 -14 6 -6 3 7 2 16 -1 19 -3 4 -6 -2 -5 -13z"/>
<path d="M3066 2993 c-6 -14 -5 -15 5 -6 7 7 10 15 7 18 -3 3 -9 -2 -12 -12z"/>
<path d="M2462 2980 c0 -14 2 -19 5 -12 2 6 2 18 0 25 -3 6 -5 1 -5 -13z"/>
<path d="M1205 2968 c-50 -37 -58 -57 -25 -65 11 -3 20 -8 20 -12 0 -3 11 -6
24 -6 19 0 22 3 14 13 -6 7 -17 11 -24 8 -25 -10 -25 28 1 51 22 21 31 34 23
33 -2 0 -16 -10 -33 -22z"/>
<path d="M2672 2970 c0 -14 2 -19 5 -12 2 6 2 18 0 25 -3 6 -5 1 -5 -13z"/>
<path d="M3261 2983 c-1 -17 16 -25 25 -12 4 7 3 9 -4 5 -5 -3 -13 0 -15 6 -4
9 -6 10 -6 1z"/>
<path d="M1630 2952 c0 -31 22 -56 58 -65 27 -6 29 4 3 20 -11 7 -22 26 -26
43 -9 39 -35 40 -35 2z"/>
<path d="M2712 2948 c2 -20 13 -38 30 -51 34 -25 47 -16 19 12 -12 12 -21 32
-21 46 0 16 -6 25 -16 25 -11 0 -14 -8 -12 -32z"/>
<path d="M3090 2968 c1 -34 15 -60 42 -74 35 -18 51 -10 21 11 -12 8 -24 29
-28 45 -6 29 -35 43 -35 18z"/>
<path d="M1492 2935 c0 -16 2 -22 5 -12 2 9 2 23 0 30 -3 6 -5 -1 -5 -18z"/>
<path d="M2903 2936 c7 -14 13 -23 15 -21 7 6 -9 45 -18 45 -4 0 -3 -11 3 -24z"/>
<path d="M1860 2931 c0 -6 4 -13 10 -16 6 -3 7 1 4 9 -7 18 -14 21 -14 7z"/>
<path d="M1810 2907 c0 -17 6 -23 27 -25 l27 -2 -24 25 c-29 31 -30 31 -30 2z"/>
<path d="M2682 2916 c7 -8 15 -12 17 -11 5 6 -10 25 -20 25 -5 0 -4 -6 3 -14z"/>
<path d="M3070 2923 c0 -6 8 -17 18 -24 16 -13 16 -13 2 6 -8 11 -16 22 -17
24 -2 2 -3 0 -3 -6z"/>
<path d="M3270 2910 c0 -11 3 -20 8 -20 4 0 18 -3 30 -7 24 -6 24 -6 -2 21
-32 31 -36 32 -36 6z"/>
<path d="M1610 2910 c0 -5 5 -10 11 -10 5 0 7 5 4 10 -3 6 -8 10 -11 10 -2 0
-4 -4 -4 -10z"/>
<path d="M1740 2908 c-16 -7 -20 -12 -12 -15 8 -3 21 2 30 11 19 18 17 19 -18
4z"/>
<path d="M2810 2905 c-16 -9 -19 -14 -9 -15 8 0 24 7 35 15 24 18 7 19 -26 0z"/>
<path d="M3200 2905 c-15 -8 -19 -14 -10 -14 18 -1 46 16 40 23 -3 2 -16 -2
-30 -9z"/>
<path d="M2270 2842 c0 -12 18 -27 44 -36 17 -6 18 -5 4 16 -16 24 -48 37 -48
20z"/>
<path d="M2250 2815 c7 -8 17 -15 22 -15 5 0 3 7 -6 15 -8 8 -18 15 -22 15 -3
0 -1 -7 6 -15z"/>
<path d="M2030 2810 c0 -5 7 -7 15 -4 8 4 15 8 15 10 0 2 -7 4 -15 4 -8 0 -15
-4 -15 -10z"/>
<path d="M4311 2723 c-6 -54 -14 -117 -17 -139 l-5 -42 60 -7 c68 -8 97 3 111
41 22 57 -26 121 -81 110 l-31 -6 3 67 c3 56 1 68 -12 71 -14 2 -18 -14 -28
-95z m109 -88 c31 -38 -27 -96 -65 -65 -15 13 -21 61 -8 73 12 13 60 7 73 -8z"/>
<path d="M3580 2787 c0 -9 19 -21 47 -31 57 -19 63 -20 63 -3 0 8 -18 19 -41
26 -23 7 -47 15 -55 18 -8 3 -14 -1 -14 -10z"/>
<path d="M5993 2783 c-24 -8 -43 -21 -43 -29 0 -8 1 -14 3 -14 28 2 93 31 95
44 4 19 0 19 -55 -1z"/>
<path d="M3860 2773 c-39 -14 -64 -85 -42 -120 15 -23 64 -42 87 -33 18 7 27
4 41 -11 22 -25 29 -17 29 34 1 23 5 59 9 80 8 37 7 39 -15 36 -13 -2 -34 2
-46 9 -23 13 -38 14 -63 5z m68 -45 c7 -7 12 -21 12 -33 0 -12 -5 -26 -12 -33
-7 -7 -21 -12 -33 -12 -12 0 -26 5 -33 12 -7 7 -12 21 -12 33 0 12 5 26 12 33
7 7 21 12 33 12 12 0 26 -5 33 -12z"/>
<path d="M5642 2748 c-16 -16 -15 -53 1 -65 6 -6 25 -13 40 -17 36 -8 30 -31
-8 -31 -16 0 -30 -5 -32 -12 -6 -18 44 -27 73 -14 21 9 25 17 22 44 -2 27 -9
34 -38 43 -42 14 -52 34 -16 34 16 0 26 6 26 15 0 18 -50 21 -68 3z"/>
<path d="M4031 2677 c-14 -83 -14 -97 3 -97 15 0 20 12 30 72 6 35 28 54 48
42 5 -3 8 -34 6 -68 -2 -48 0 -61 11 -61 10 0 18 19 25 55 9 46 15 56 34 58
15 2 22 -2 23 -15 2 -25 2 -23 -6 -70 -6 -38 -5 -43 13 -43 21 0 32 33 32 100
0 46 -19 63 -63 58 -20 -2 -39 2 -47 10 -7 8 -23 12 -36 9 -14 -2 -27 0 -30 4
-3 5 -11 9 -19 9 -8 0 -17 -23 -24 -63z"/>
<path d="M5458 2700 c-25 -26 -29 -36 -24 -63 18 -94 166 -86 166 9 0 79 -85
111 -142 54z m102 -51 c0 -41 -40 -61 -70 -34 -26 24 -22 56 9 72 35 17 61 0
61 -38z"/>
<path d="M5373 2699 c-12 -4 -24 -17 -28 -28 -8 -26 -13 -26 -45 -1 -23 18
-60 27 -60 15 0 -3 16 -19 35 -37 l36 -33 -27 -38 c-14 -21 -23 -41 -21 -44
11 -11 45 9 55 32 14 30 22 31 45 5 9 -11 27 -20 39 -20 20 0 19 3 -12 35
l-35 36 23 40 c27 46 26 50 -5 38z"/>
<path d="M1170 2672 c-14 -9 -26 -24 -28 -34 -3 -17 42 -58 64 -58 21 0 17 18
-5 25 -22 7 -33 28 -25 49 8 20 25 25 52 15 31 -12 38 -37 20 -69 -14 -24 -13
-28 3 -49 25 -31 25 -77 0 -91 -47 -24 -86 4 -78 56 4 23 1 34 -9 38 -8 3 -13
2 -10 -3 3 -4 0 -22 -6 -39 -10 -27 -9 -34 7 -53 17 -18 27 -20 70 -15 30 3
55 12 63 23 18 25 15 67 -8 96 -17 22 -18 26 -5 37 22 18 18 57 -7 74 -29 21
-67 20 -98 -2z"/>
<path d="M1468 2676 c-10 -7 -18 -23 -18 -35 0 -11 -5 -21 -11 -21 -7 0 -9 10
-5 26 5 17 3 23 -4 19 -12 -7 -14 -42 -2 -48 4 -3 19 -3 33 0 22 4 25 9 21 34
-4 28 10 40 23 19 4 -6 11 -8 16 -4 15 9 39 -16 39 -41 0 -12 -9 -30 -20 -40
l-21 -19 26 -23 c29 -28 32 -60 8 -79 -16 -12 -16 -13 -2 -14 21 0 49 32 49
57 0 11 -11 30 -25 43 -25 23 -25 24 -5 42 27 25 25 63 -2 82 -27 19 -77 20
-100 2z"/>
<path d="M1710 2683 c-35 -14 -45 -37 -49 -115 -2 -51 1 -83 9 -93 6 -8 8 -20
4 -26 -4 -8 -3 -9 5 -5 6 4 17 3 24 -2 7 -5 21 -6 32 -1 15 5 16 8 4 8 -34 2
-49 35 -49 107 0 101 6 116 43 112 60 -6 97 -103 65 -173 -6 -14 -16 -24 -22
-23 -7 2 -13 -1 -14 -7 -5 -24 34 -7 55 24 62 92 -14 230 -107 194z"/>
<path d="M2283 2678 c-50 -24 -43 -148 9 -148 20 0 20 1 5 18 -17 18 -23 76
-11 106 4 10 18 16 35 16 21 0 32 -7 44 -30 46 -89 -28 -238 -84 -169 -22 28
-47 18 -28 -11 14 -24 45 -25 92 -6 43 18 65 61 65 126 0 44 -5 56 -29 81 -31
30 -60 35 -98 17z"/>
<path d="M2577 2675 c-8 -8 -17 -12 -19 -9 -3 3 -3 -7 -1 -21 3 -15 1 -25 -6
-25 -6 0 -11 10 -11 23 0 18 -2 19 -10 7 -13 -21 9 -40 41 -33 21 4 25 9 21
29 -4 21 -1 24 25 24 35 0 53 -16 53 -46 0 -22 -22 -48 -33 -39 -4 3 -5 2 -2
-2 3 -3 -3 -12 -13 -20 -16 -13 -15 -14 4 -8 17 4 25 -2 39 -31 16 -34 16 -37
-1 -55 -15 -17 -15 -19 -1 -19 17 0 47 36 47 58 0 7 -12 24 -26 39 l-25 25 20
20 c26 24 27 52 1 78 -24 24 -82 27 -103 5z"/>
<path d="M2803 2674 c-17 -7 -35 -19 -39 -25 -5 -8 -3 -9 6 -4 9 6 11 4 5 -5
-8 -13 -15 -183 -7 -175 3 2 14 -2 26 -10 27 -19 76 -19 104 1 68 47 67 172
-1 217 -31 20 -51 20 -94 1z m96 -45 c30 -52 26 -129 -8 -160 -14 -13 -21 -15
-22 -7 0 10 -2 10 -6 1 -7 -19 -27 -16 -47 6 -19 21 -25 102 -13 164 7 34 11
37 41 37 27 0 36 -6 55 -41z"/>
<path d="M4565 2672 c-73 -15 -89 -114 -24 -147 42 -22 67 -18 101 15 25 26
29 36 24 62 -3 17 -11 37 -17 44 -14 17 -59 31 -84 26z m49 -48 c19 -18 20
-28 6 -55 -20 -36 -80 -21 -80 20 0 48 42 68 74 35z"/>
<path d="M5088 2650 c-25 -26 -29 -36 -24 -63 13 -68 94 -91 144 -40 24 24 25
28 9 31 -10 2 -26 -3 -36 -12 -22 -20 -55 -21 -70 -2 -15 18 -8 22 62 30 31 4
57 11 57 14 0 10 -31 55 -44 64 -25 17 -68 7 -98 -22z m76 -6 c27 -10 18 -22
-19 -26 -23 -3 -35 0 -35 8 0 19 28 28 54 18z"/>
<path d="M4717 2652 c-26 -28 -20 -51 18 -73 45 -27 45 -43 2 -35 -38 7 -52
-1 -36 -21 12 -14 67 -18 85 -5 24 16 24 43 -1 68 -13 13 -29 24 -35 24 -7 0
-10 6 -7 13 2 6 10 11 17 9 7 -2 20 0 29 3 14 6 14 8 -3 21 -27 19 -50 18 -69
-4z"/>
<path d="M4946 2655 c-27 -27 -20 -54 19 -72 19 -9 35 -23 35 -31 0 -11 -8
-13 -35 -8 -36 7 -44 -1 -23 -22 18 -18 63 -14 82 7 24 26 13 56 -24 71 -35
15 -41 41 -7 37 14 -1 22 3 22 13 0 21 -49 25 -69 5z"/>
<path d="M2320 2656 c0 -2 7 -7 16 -10 8 -3 12 -2 9 4 -6 10 -25 14 -25 6z"/>
<path d="M2630 2639 c0 -5 5 -7 10 -4 6 3 10 8 10 11 0 2 -4 4 -10 4 -5 0 -10
-5 -10 -11z"/>
<path d="M1619 2593 c-5 -14 -8 -30 -6 -36 1 -5 8 7 14 27 13 42 7 49 -8 9z"/>
<path d="M1987 2592 c-21 -23 -21 -32 -3 -32 7 0 16 9 19 20 6 23 16 25 41 7
14 -10 19 -28 20 -70 1 -62 15 -84 43 -72 12 5 14 9 6 12 -8 3 -13 24 -13 57
0 66 -20 96 -64 96 -19 0 -40 -8 -49 -18z"/>
<path d="M2211 2594 c0 -11 3 -14 6 -6 3 7 2 16 -1 19 -3 4 -6 -2 -5 -13z"/>
<path d="M1945 2580 c-3 -5 -1 -10 4 -10 6 0 11 5 11 10 0 6 -2 10 -4 10 -3 0
-8 -4 -11 -10z"/>
<path d="M1350 2573 c0 -5 5 -15 10 -23 7 -11 12 -12 21 -3 6 6 8 16 5 22 -8
12 -36 15 -36 4z"/>
<path d="M1480 2571 c0 -5 7 -11 14 -14 10 -4 13 -1 9 9 -6 15 -23 19 -23 5z"/>
<path d="M2030 2558 c0 -15 -11 -29 -31 -41 -25 -14 -30 -22 -27 -42 4 -18 1
-25 -10 -25 -9 0 -13 7 -9 20 3 11 1 20 -5 20 -5 0 -8 -10 -6 -22 3 -19 10
-23 45 -25 24 0 45 3 49 8 3 5 -2 9 -10 9 -8 0 -18 5 -21 10 -9 15 4 50 20 50
15 0 27 48 14 56 -5 3 -9 -5 -9 -18z"/>
<path d="M2460 2573 c0 -5 5 -15 10 -23 7 -11 12 -12 21 -3 6 6 8 16 5 22 -8
12 -36 15 -36 4z"/>
<path d="M2585 2570 c4 -6 11 -8 16 -5 14 9 11 15 -7 15 -8 0 -12 -5 -9 -10z"/>
<path d="M1325 2561 c-3 -5 -1 -12 5 -16 5 -3 10 1 10 9 0 18 -6 21 -15 7z"/>
<path d="M1221 2531 c13 -11 26 -17 29 -14 6 6 -30 33 -43 33 -5 0 1 -9 14
-19z"/>
<path d="M2325 2540 c-3 -5 -1 -10 4 -10 6 0 11 5 11 10 0 6 -2 10 -4 10 -3 0
-8 -4 -11 -10z"/>
<path d="M1438 2524 c-16 -8 -28 -19 -28 -25 0 -6 7 -3 16 5 21 22 41 21 23
-1 -8 -10 -14 -27 -14 -38 0 -16 8 -21 39 -23 21 -2 43 1 48 6 5 5 0 8 -13 8
-30 -1 -48 28 -32 53 20 32 3 39 -39 15z"/>
<path d="M2549 2523 c-12 -15 -12 -16 3 -10 15 5 16 4 5 -13 -9 -15 -9 -25 -1
-38 14 -22 76 -24 81 -2 4 12 3 13 -5 1 -22 -32 -65 16 -44 49 19 31 -15 43
-39 13z"/>
<path d="M1621 2514 c0 -11 3 -14 6 -6 3 7 2 16 -1 19 -3 4 -6 -2 -5 -13z"/>
<path d="M2031 2484 c0 -11 3 -14 6 -6 3 7 2 16 -1 19 -3 4 -6 -2 -5 -13z"/>
<path d="M2516 2491 c-3 -4 1 -17 8 -27 13 -17 14 -17 9 9 -6 29 -9 32 -17 18z"/>
<path d="M1350 2473 c0 -5 5 -15 10 -23 7 -11 12 -12 21 -3 6 6 8 16 5 22 -8
12 -36 15 -36 4z"/>
<path d="M2463 2460 c1 -13 7 -20 17 -18 20 4 19 32 -2 36 -12 2 -16 -3 -15
-18z"/>
<path d="M1325 2450 c3 -5 8 -10 11 -10 2 0 4 5 4 10 0 6 -5 10 -11 10 -5 0
-7 -4 -4 -10z"/>
<path d="M2435 2450 c3 -5 8 -10 11 -10 2 0 4 5 4 10 0 6 -5 10 -11 10 -5 0
-7 -4 -4 -10z"/>
<path d="M2050 2440 c0 -5 5 -10 11 -10 5 0 7 5 4 10 -3 6 -8 10 -11 10 -2 0
-4 -4 -4 -10z"/>
<path d="M6757 2033 c-11 -11 -8 -163 3 -163 6 0 10 14 10 30 0 25 4 30 23 30
31 0 67 27 67 51 0 28 -36 59 -68 59 -16 0 -32 -3 -35 -7z m74 -29 c18 -21 0
-48 -35 -52 -24 -3 -26 0 -26 32 0 31 3 36 24 36 13 0 29 -7 37 -16z"/>
<path d="M6947 2033 c-11 -11 -8 -163 3 -163 6 0 10 14 10 30 0 18 5 30 13 30
7 0 23 -13 35 -30 13 -16 27 -30 33 -30 5 0 0 14 -13 30 l-22 30 22 16 c28 20
28 58 0 78 -23 16 -69 21 -81 9z m67 -19 c9 -3 16 -16 16 -29 0 -23 -17 -35
-51 -35 -15 0 -19 7 -19 35 0 36 15 44 54 29z"/>
<path d="M7159 2011 c-35 -35 -38 -77 -8 -115 16 -21 29 -26 64 -26 35 0 48 5
64 26 36 46 24 106 -26 132 -35 19 -63 14 -94 -17z m92 -2 c28 -15 41 -54 28
-83 -31 -68 -129 -49 -129 25 0 53 53 84 101 58z"/>
<path d="M7397 2033 c-11 -11 -8 -163 3 -163 6 0 10 16 10 35 0 34 1 35 40 35
22 0 40 5 40 10 0 6 -18 10 -40 10 -38 0 -40 2 -40 30 0 28 2 30 40 30 22 0
40 5 40 10 0 11 -83 14 -93 3z"/>
<path d="M7577 2033 c-4 -3 -7 -42 -7 -85 l0 -78 58 2 c56 2 56 2 10 5 -46 4
-48 6 -48 34 0 27 2 29 40 29 22 0 40 5 40 10 0 6 -18 10 -40 10 -38 0 -40 2
-40 30 0 29 2 30 46 30 27 0 43 4 39 10 -7 11 -88 14 -98 3z"/>
<path d="M7788 2029 c-21 -12 -24 -52 -5 -67 6 -6 24 -13 39 -17 38 -10 54
-31 38 -50 -16 -20 -49 -19 -72 2 -19 17 -35 12 -23 -7 21 -34 97 -33 116 1
15 28 -4 55 -48 70 -42 13 -54 25 -46 46 6 15 59 18 68 3 3 -5 11 -10 17 -10
6 0 3 9 -7 20 -20 22 -50 25 -77 9z"/>
<path d="M8007 2029 c-24 -14 -49 -73 -40 -96 13 -36 46 -63 79 -63 46 0 63 9
79 41 22 42 18 67 -14 100 -31 31 -71 37 -104 18z m91 -29 c31 -29 29 -73 -4
-99 -35 -27 -59 -26 -89 4 -30 30 -31 54 -4 89 25 32 66 34 97 6z"/>
<path d="M8230 2038 c-6 -33 -5 -168 1 -168 5 0 9 14 9 30 0 18 5 30 13 30 7
0 23 -13 35 -30 30 -40 50 -39 21 1 l-21 30 21 15 c45 32 11 94 -51 94 -16 0
-28 -1 -28 -2z m78 -47 c4 -26 -12 -41 -45 -41 -20 0 -23 5 -23 36 0 34 1 35
33 32 25 -2 33 -8 35 -27z"/>
<path d="M8448 1972 c-40 -97 -41 -102 -30 -102 6 0 14 9 17 20 5 15 15 20 45
20 30 0 40 -5 45 -20 5 -16 25 -29 25 -16 0 8 -62 152 -68 158 -4 4 -19 -23
-34 -60z m50 -12 c11 -29 10 -30 -20 -30 -25 0 -29 3 -23 18 4 9 10 25 12 34
7 23 19 15 31 -22z"/>
<path d="M877 2013 c-4 -3 -7 -42 -7 -85 l0 -78 56 0 c34 0 53 4 49 10 -3 6
-24 10 -46 10 -34 0 -39 3 -39 24 0 26 34 41 64 30 9 -3 16 -1 16 5 0 6 -17
11 -40 11 -38 0 -40 2 -40 30 0 28 2 30 40 30 22 0 40 5 40 10 0 11 -83 14
-93 3z"/>
<path d="M1070 1935 c0 -95 17 -117 22 -29 l3 57 39 -57 c21 -31 40 -56 42
-56 2 0 4 38 4 85 0 55 -4 85 -11 85 -7 0 -10 -20 -7 -55 1 -30 0 -55 -3 -55
-3 0 -23 25 -44 55 -20 30 -39 55 -41 55 -2 0 -4 -38 -4 -85z"/>
<path d="M1428 1952 c-40 -100 -41 -102 -30 -102 6 0 14 9 17 20 5 16 15 20
47 20 31 0 41 -4 45 -20 3 -11 10 -20 15 -20 6 0 7 8 4 18 -32 86 -60 152 -65
152 -3 0 -18 -31 -33 -68z m58 -39 c-2 -3 -15 -3 -29 -1 -25 3 -25 4 -11 38
l15 35 15 -34 c8 -19 12 -36 10 -38z"/>
<path d="M1610 2011 c0 -6 20 -11 45 -13 l45 -3 -45 -67 c-25 -37 -45 -70 -45
-73 0 -3 27 -5 60 -5 70 0 82 17 15 22 l-45 3 45 65 c25 36 45 68 45 73 0 4
-27 7 -60 7 -33 0 -60 -4 -60 -9z"/>
<path d="M1810 1957 c0 -78 17 -107 63 -107 55 1 67 18 67 99 0 93 -18 92 -22
-1 l-3 -73 -34 -3 c-43 -4 -51 8 -51 86 0 34 -4 62 -10 62 -6 0 -10 -28 -10
-63z"/>
<path d="M2030 1935 l0 -85 40 0 c22 0 40 5 40 10 0 6 -13 10 -30 10 l-30 0 0
75 c0 43 -4 75 -10 75 -6 0 -10 -35 -10 -85z"/>
<path d="M2353 2008 c-48 -23 -54 -112 -10 -143 12 -8 36 -15 53 -15 33 0 84
33 72 46 -5 4 -16 -1 -27 -10 -29 -26 -82 -18 -100 16 -35 61 29 121 91 85 40
-23 47 -15 12 12 -29 23 -57 26 -91 9z"/>
<path d="M2560 1936 c0 -51 4 -86 10 -86 6 0 10 17 10 38 l1 37 33 -37 c40
-45 69 -52 32 -7 l-26 30 28 24 c26 23 26 25 12 52 -13 23 -23 29 -58 31 l-42
3 0 -85z m86 42 c7 -24 -17 -48 -48 -48 -14 0 -18 8 -18 35 0 32 2 35 29 35
22 0 32 -6 37 -22z"/>
<path d="M2750 1935 c0 -50 4 -85 10 -85 6 0 10 35 10 85 0 50 -4 85 -10 85
-6 0 -10 -35 -10 -85z"/>
<path d="M2878 2009 c-38 -22 -13 -67 47 -86 32 -10 45 -40 23 -54 -20 -13
-45 -11 -63 7 -20 20 -33 11 -15 -11 16 -19 84 -20 100 -1 23 29 8 59 -40 77
-50 19 -62 42 -30 59 17 9 26 8 46 -5 25 -16 33 -8 12 13 -15 15 -57 15 -80 1z"/>
<path d="M3055 2010 c3 -5 13 -10 21 -10 11 0 14 -16 14 -69 0 -39 5 -73 10
-76 6 -4 10 22 10 69 0 69 2 76 20 76 11 0 20 5 20 10 0 6 -23 10 -51 10 -31
0 -48 -4 -44 -10z"/>
<path d="M3276 1989 c-8 -19 -24 -56 -35 -82 -24 -55 -24 -57 -13 -57 5 0 14
10 19 23 9 20 17 23 48 19 26 -3 39 -10 42 -23 5 -18 23 -27 23 -11 0 9 -59
154 -65 161 -3 2 -11 -11 -19 -30z m40 -76 c-2 -2 -15 -3 -28 -1 -24 3 -24 4
-10 38 l15 35 14 -34 c8 -18 12 -35 9 -38z"/>
<path d="M3450 1936 l0 -86 41 0 c24 0 38 4 34 10 -3 6 -17 10 -31 10 -23 0
-24 2 -24 69 0 39 -4 73 -10 76 -6 4 -10 -25 -10 -79z"/>
<path d="M7091 1571 c-18 -18 -61 -119 -61 -144 0 -7 -6 -22 -14 -33 -8 -11
-16 -31 -18 -44 -2 -17 -10 -26 -26 -28 -38 -6 -51 14 -46 66 7 63 -6 81 -39
59 -14 -9 -34 -31 -46 -50 -32 -52 -96 -76 -85 -32 8 33 -3 75 -20 75 -8 0
-32 -19 -55 -41 -39 -39 -43 -41 -55 -24 -11 16 -13 12 -12 -28 1 -43 9 -61
18 -37 2 5 17 6 38 1 25 -5 51 -3 87 9 49 16 52 16 56 -2 6 -23 44 -24 69 -1
17 15 19 15 38 -2 14 -13 29 -16 55 -12 19 3 37 1 40 -4 10 -15 41 -10 70 13
34 27 93 30 106 6 13 -25 34 -22 107 12 35 17 66 30 68 30 2 0 4 -8 4 -19 0
-28 26 -44 60 -38 35 7 106 53 114 73 8 21 -1 17 -42 -16 -41 -32 -96 -49
-106 -31 -4 6 7 26 24 43 57 59 98 176 69 194 -17 10 -45 -24 -88 -110 -37
-74 -43 -81 -93 -102 -56 -25 -98 -30 -98 -14 0 6 6 10 14 10 26 0 76 56 76
85 0 25 -3 27 -27 21 -16 -4 -40 -21 -55 -39 -15 -18 -35 -40 -43 -49 -23 -27
-47 -12 -39 24 5 23 3 29 -7 26 -8 -3 -16 -15 -17 -29 -4 -27 -49 -79 -69 -79
-16 0 -17 53 -2 82 6 11 20 31 32 44 32 37 67 105 67 131 0 28 -23 30 -49 4z
m14 -51 c-10 -22 -22 -40 -27 -40 -4 0 -8 2 -8 4 0 8 29 72 36 79 16 16 16 -5
-1 -43z m375 0 c0 -14 -37 -88 -62 -123 -36 -50 -32 -20 7 58 34 68 55 92 55
65z m-579 -131 c-10 -43 -32 -69 -58 -69 -26 0 -9 43 40 97 27 30 30 25 18
-28z m373 27 c-6 -16 -53 -50 -60 -43 -2 2 5 16 17 30 22 29 52 37 43 13z
m-534 -28 c0 -42 -57 -77 -76 -46 -7 11 47 68 66 68 6 0 10 -10 10 -22z"/>
<path d="M7662 1565 c-15 -33 -15 -78 0 -93 8 -8 7 -22 -7 -57 -15 -41 -21
-46 -41 -42 -26 5 -30 -3 -12 -21 10 -10 5 -19 -21 -43 -44 -40 -32 -51 13
-11 32 28 36 29 75 19 34 -9 46 -8 70 6 16 9 38 17 49 17 12 0 24 5 27 10 12
19 25 10 20 -13 -4 -15 -1 -28 9 -36 20 -17 68 8 84 43 9 20 19 26 42 26 34 0
34 0 18 -35 -20 -44 -1 -39 52 14 28 28 53 51 55 51 3 0 2 -13 -1 -30 -8 -35
9 -60 40 -59 21 0 21 0 -1 11 -25 12 -28 32 -13 74 6 15 9 29 6 31 -6 6 -47
-16 -75 -41 l-23 -21 6 23 c7 22 -7 31 -19 12 -3 -5 -22 -10 -41 -10 -30 0
-34 3 -34 25 0 36 -29 32 -69 -9 -29 -30 -94 -56 -107 -43 -3 2 14 48 36 103
22 54 40 99 40 101 0 2 -6 3 -13 3 -7 0 -19 -15 -25 -34 -12 -31 -66 -76 -93
-76 -6 0 -7 25 -3 65 6 60 5 65 -13 65 -12 0 -25 -11 -31 -25z m32 -32 c-8
-33 -12 -39 -20 -30 -9 9 5 57 16 57 6 0 8 -11 4 -27z m77 -91 c-5 -9 -16 -34
-25 -55 -16 -39 -46 -58 -78 -49 -23 6 -23 14 2 62 17 33 26 40 49 40 17 0 31
6 35 16 3 8 10 13 16 9 6 -3 6 -13 1 -23z m159 -30 c0 -13 -12 -22 -22 -16
-10 6 -1 24 13 24 5 0 9 -4 9 -8z m-10 -50 c-1 -13 -25 -38 -42 -45 -21 -7
-25 22 -8 54 9 15 15 17 30 9 11 -6 20 -14 20 -18z"/>
<path d="M6557 1552 c-23 -26 -37 -68 -37 -116 0 -41 -2 -44 -31 -50 -76 -15
-151 -3 -171 28 -4 6 -10 7 -14 3 -14 -13 20 -59 62 -83 46 -27 96 -31 137
-10 15 8 27 11 27 6 0 -13 57 -70 70 -70 7 0 -2 16 -19 35 -47 54 -40 76 42
116 27 13 44 25 39 27 -6 2 -25 -4 -42 -13 -18 -9 -33 -15 -35 -13 -1 2 2 26
8 54 10 50 4 104 -12 104 -4 0 -15 -8 -24 -18z m23 -39 c0 -39 -19 -103 -30
-103 -13 0 -13 46 1 93 12 43 29 49 29 10z m-85 -170 c-22 -16 -108 -14 -126
4 -7 7 6 9 38 6 26 -3 59 0 73 5 32 13 41 5 15 -15z"/>
<path d="M8590 1543 c-31 -40 -81 -146 -83 -178 -2 -22 -9 -32 -29 -39 -43
-15 -61 -2 -53 40 8 43 -2 94 -18 94 -18 -1 -53 -33 -76 -71 -40 -66 -17 -109
41 -76 26 15 31 15 44 2 18 -18 47 -19 75 -4 15 7 24 7 34 -1 16 -13 68 -5
100 16 18 12 23 11 38 -6 19 -23 46 -20 109 11 21 11 51 19 67 19 16 0 33 5
36 10 13 21 26 9 23 -22 -3 -28 -8 -34 -39 -43 -55 -16 -85 -40 -108 -89 -26
-52 -17 -86 23 -86 35 0 70 32 102 95 16 30 35 55 43 55 9 0 10 4 4 13 -10 12
-2 118 11 149 6 14 -1 17 -48 20 -35 2 -55 -1 -53 -7 2 -5 20 -10 40 -10 21 0
37 -5 37 -10 0 -17 -22 -35 -42 -35 -10 0 -26 -4 -36 -10 -70 -39 -152 -62
-152 -42 0 4 18 18 40 32 42 26 61 63 41 83 -16 16 -59 -10 -93 -58 -32 -43
-79 -74 -115 -75 -31 0 -29 21 3 51 30 28 84 134 84 165 0 33 -26 37 -50 7z
m30 -19 c0 -9 -61 -128 -70 -138 -6 -5 -12 -7 -15 -4 -9 8 63 148 75 148 6 0
10 -3 10 -6z m-219 -130 c-7 -44 -56 -88 -71 -64 -6 9 1 27 22 57 39 54 57 56
49 7z m349 27 c0 -12 -59 -55 -66 -49 -2 3 5 17 17 31 20 26 49 36 49 18z
m130 -154 c0 -23 -62 -108 -87 -120 -35 -16 -47 2 -28 45 22 53 115 113 115
75z"/>
<path d="M1682 1446 c-17 -27 -33 -53 -35 -59 -2 -6 -15 -7 -31 -3 -23 6 -26
9 -15 22 6 8 9 18 5 22 -8 8 -75 -67 -76 -85 0 -17 8 -16 26 2 16 15 55 20 67
9 3 -4 0 -22 -8 -40 -20 -48 5 -46 28 1 19 39 51 47 60 16 6 -23 63 -61 92
-61 33 0 64 28 76 70 11 35 10 43 -5 59 -17 18 -16 20 6 27 34 10 69 35 63 45
-3 4 -21 -1 -41 -13 -19 -11 -45 -21 -57 -22 -13 -1 -27 -12 -35 -29 -17 -35
-11 -43 17 -25 18 11 23 11 31 -2 11 -17 4 -49 -15 -68 -10 -11 -21 -8 -64 17
-29 17 -60 31 -71 31 -31 0 -32 17 -5 65 37 62 25 81 -13 21z m63 -126 c3 -5
2 -10 -4 -10 -5 0 -13 5 -16 10 -3 6 -2 10 4 10 5 0 13 -4 16 -10z"/>
<path d="M2383 1466 c-11 -14 -26 -39 -33 -56 -10 -25 -18 -30 -42 -28 -26 2
-28 5 -23 28 6 23 2 21 -36 -16 -43 -43 -48 -78 -6 -49 12 8 32 15 45 15 25 0
27 -16 7 -62 -14 -33 15 -19 31 16 l16 33 79 0 c69 0 79 -2 79 -17 0 -31 72
-67 115 -56 42 11 80 113 46 124 -21 7 -11 19 29 37 22 10 40 24 40 32 0 11
-8 9 -36 -8 -20 -12 -45 -22 -57 -23 -12 -1 -28 -13 -36 -28 -17 -30 -9 -47
13 -29 32 27 50 -26 23 -63 -13 -17 -16 -17 -65 10 -29 15 -52 32 -52 37 0 6
-30 7 -74 3 -48 -4 -77 -3 -81 4 -3 5 6 33 21 60 30 55 28 76 -3 36z m162
-154 c-3 -3 -11 0 -18 7 -9 10 -8 11 6 5 10 -3 15 -9 12 -12z"/>
<path d="M1437 1458 c-64 -60 -94 -137 -65 -166 21 -21 77 -14 103 13 29 28
31 38 10 55 -13 11 -21 10 -42 -1 -26 -14 -40 -35 -30 -45 3 -3 15 4 27 16 11
11 26 18 32 14 18 -11 -32 -45 -61 -42 -42 5 -37 37 14 107 49 66 54 88 12 49z"/>
<path d="M2787 1473 c-4 -3 -7 -30 -7 -59 0 -49 -2 -52 -35 -68 -26 -12 -35
-23 -35 -41 0 -49 74 -44 85 6 4 17 30 52 61 83 56 55 69 82 35 71 -11 -3 -22
-1 -26 5 -7 11 -68 14 -78 3z m63 -23 c13 -8 11 -14 -12 -37 l-27 -27 -11 28
c-5 15 -8 32 -4 37 7 12 35 11 54 -1z m-70 -129 c0 -16 -30 -33 -47 -26 -16 6
-15 8 7 20 29 17 40 18 40 6z"/>
<path d="M3143 1465 c-32 -22 -83 -105 -83 -135 0 -35 17 -50 57 -50 23 0 42
8 58 25 29 28 31 38 10 55 -21 17 -63 -5 -71 -36 -4 -14 -11 -21 -20 -17 -24
9 -15 39 32 103 47 65 52 80 17 55z m19 -147 c-11 -11 -26 -18 -33 -16 -9 3
-6 11 9 26 13 13 28 20 33 16 7 -4 4 -14 -9 -26z"/>
<path d="M1251 1444 c-32 -28 -24 -39 15 -19 58 30 73 9 29 -43 -19 -23 -36
-31 -77 -36 -28 -4 -60 -12 -70 -17 -20 -11 -25 -49 -7 -49 20 0 93 23 107 33
8 7 19 4 34 -9 21 -19 21 -19 14 9 -5 20 0 37 19 65 14 20 25 48 25 63 0 22
-4 26 -31 26 -19 0 -43 -10 -58 -23z m-54 -130 c-3 -3 -12 -4 -19 -1 -8 3 -5
6 6 6 11 1 17 -2 13 -5z"/>
<path d="M2101 1415 c-74 -82 -79 -128 -14 -128 42 0 79 29 104 80 17 35 20
52 13 72 -16 45 -46 38 -103 -24z m87 12 c5 -27 -29 -87 -59 -102 -60 -32 -76
-12 -35 43 54 73 87 94 94 59z"/>
<path d="M2966 1461 c-16 -3 -31 -12 -34 -20 -3 -10 5 -12 39 -7 41 6 43 6 25
-9 -11 -8 -30 -15 -43 -15 -13 0 -23 -4 -23 -10 0 -10 14 -14 37 -11 7 1 22
-3 33 -9 17 -9 18 -14 10 -31 -18 -32 -58 -43 -102 -25 -42 16 -51 6 -16 -18
26 -18 80 -21 109 -5 30 16 43 58 27 88 -10 19 -10 25 0 28 6 3 12 16 12 29 0
26 -14 28 -74 15z"/>
<path d="M8173 1445 c2 -5 20 -11 40 -13 20 -2 37 -7 37 -12 0 -6 -18 -21 -40
-35 -22 -14 -40 -30 -40 -35 0 -10 27 -3 47 12 19 15 32 0 24 -28 -5 -20 -19
-31 -57 -45 -59 -22 -107 -85 -102 -134 3 -26 8 -30 34 -33 26 -3 37 4 67 39
20 23 41 57 47 75 7 19 16 34 21 34 5 0 9 31 9 69 0 39 5 73 10 76 6 3 10 12
10 20 0 9 -17 14 -55 17 -34 2 -54 -1 -52 -7z m47 -178 c0 -17 -51 -98 -73
-116 -26 -21 -50 -6 -42 27 10 41 30 67 67 85 40 20 48 21 48 4z"/>
<path d="M7492 1046 c-17 -27 -33 -53 -34 -58 -2 -5 -16 -6 -31 -3 -22 6 -25
10 -16 26 17 33 -6 21 -39 -20 -38 -47 -42 -69 -10 -47 33 23 68 21 68 -5 0
-11 -5 -29 -10 -40 -19 -34 7 -21 30 16 26 42 52 45 66 7 8 -20 22 -32 53 -42
57 -18 88 -2 110 57 14 39 13 44 -2 61 -16 17 -15 19 23 36 22 10 40 24 40 31
0 11 -9 9 -36 -7 -19 -11 -45 -21 -57 -22 -12 -1 -28 -13 -36 -28 -17 -30 -9
-47 13 -29 30 25 48 -17 26 -59 -12 -22 -25 -19 -82 17 -21 13 -46 23 -57 23
-32 0 -34 17 -6 65 37 62 25 81 -13 21z m63 -134 c-3 -3 -11 0 -18 7 -9 10 -8
11 6 5 10 -3 15 -9 12 -12z"/>
<path d="M7834 1071 c-96 -60 -113 -145 -20 -106 17 8 17 6 2 -23 -17 -32 -21
-72 -8 -72 4 0 15 21 25 48 11 26 27 68 38 94 10 26 19 51 19 56 0 19 -28 20
-56 3z m15 -46 c-12 -20 -29 -40 -39 -45 -52 -28 -54 7 -2 49 51 41 67 40 41
-4z"/>
<path d="M6929 1049 c-64 -68 -86 -128 -57 -157 19 -19 73 -14 102 9 30 23 33
41 11 59 -13 11 -20 11 -40 0 -23 -12 -40 -38 -31 -47 2 -3 14 5 26 17 11 11
26 18 32 14 18 -11 -32 -45 -61 -42 -42 5 -37 37 14 107 51 70 53 93 4 40z"/>
<path d="M7172 1030 c-24 -44 -30 -50 -52 -44 -33 8 -35 11 -20 29 24 29 -3
15 -36 -20 -40 -41 -48 -76 -12 -51 28 20 68 21 68 2 0 -8 -5 -27 -10 -41 -14
-38 9 -28 29 12 16 31 17 31 94 31 50 0 83 4 90 12 10 10 -4 11 -65 6 -48 -4
-79 -3 -83 4 -3 5 5 29 19 53 29 48 31 57 16 57 -6 0 -22 -23 -38 -50z"/>
<path d="M7958 1044 c-87 -94 -90 -164 -8 -164 45 0 85 37 75 69 -3 12 -12 21
-19 21 -20 0 -67 -40 -60 -52 4 -5 16 -1 29 12 17 16 25 18 30 9 17 -27 -52
-50 -85 -29 -13 8 -12 15 9 54 13 25 36 57 52 73 16 15 29 31 29 36 0 17 -22
5 -52 -29z"/>
<path d="M8328 1043 c-38 -40 -68 -92 -68 -117 0 -42 69 -60 115 -30 28 18 34
61 10 70 -21 9 -65 -23 -65 -46 0 -24 -13 -26 -30 -5 -10 12 -7 23 13 57 14
24 37 54 51 67 26 24 33 41 18 41 -4 0 -24 -17 -44 -37z m52 -106 c0 -14 -39
-41 -48 -33 -6 7 27 46 40 46 4 0 8 -6 8 -13z"/>
<path d="M8579 1033 c-22 -36 -36 -48 -55 -49 -22 -1 -25 2 -20 22 9 33 -4 29
-42 -16 -35 -41 -36 -76 -2 -45 22 20 65 16 64 -5 -1 -8 -4 -25 -8 -37 -11
-35 7 -27 28 12 16 29 25 35 55 36 30 2 32 3 9 6 -35 5 -35 18 -2 77 34 61 12
60 -27 -1z"/>
<path d="M6748 1039 c-36 -31 -27 -38 18 -14 59 31 72 10 27 -42 -22 -25 -39
-33 -77 -38 -63 -8 -86 -20 -86 -46 0 -19 4 -20 38 -14 20 3 50 13 66 21 26
13 31 12 49 -3 20 -18 20 -17 14 13 -5 24 0 39 19 65 13 18 24 45 24 59 0 23
-4 27 -30 27 -18 0 -42 -11 -62 -28z m-51 -125 c-3 -3 -12 -4 -19 -1 -8 3 -5
6 6 6 11 1 17 -2 13 -5z"/>
<path d="M8155 1044 c-36 -28 -25 -44 14 -21 16 9 36 17 45 17 15 0 15 -3 0
-32 -23 -45 -40 -55 -100 -63 -59 -7 -97 -36 -75 -58 9 -9 25 -7 74 10 45 16
65 19 75 11 18 -15 28 -2 12 17 -11 13 -10 19 7 38 27 29 43 61 43 84 0 29
-58 27 -95 -3z m-58 -130 c-3 -3 -12 -4 -19 -1 -8 3 -5 6 6 6 11 1 17 -2 13
-5z"/>
<path d="M1470 874 c0 -35 -1 -35 -31 -29 -45 10 -69 -16 -69 -75 0 -33 6 -52
18 -63 21 -19 58 -22 68 -6 4 8 9 8 17 0 6 -6 17 -11 24 -11 10 0 13 26 13
110 0 103 -1 110 -20 110 -16 0 -20 -7 -20 -36z m0 -104 c0 -36 -24 -57 -45
-40 -21 17 -19 67 2 79 24 13 43 -4 43 -39z"/>
<path d="M1003 890 c-13 -5 -23 -17 -23 -26 0 -13 7 -15 40 -9 37 6 40 5 40
-17 0 -15 -17 -40 -45 -68 -25 -24 -45 -52 -45 -62 0 -16 9 -18 70 -18 63 0
70 2 70 20 0 17 -7 20 -42 20 l-42 0 36 38 c50 51 55 101 13 120 -30 14 -42
14 -72 2z"/>
<path d="M2655 888 c-11 -6 -21 -12 -23 -13 -1 -1 0 -9 4 -18 4 -13 10 -14 29
-5 28 13 55 5 55 -16 0 -8 -21 -38 -47 -67 -27 -28 -48 -57 -48 -63 0 -7 25
-11 70 -11 56 0 70 3 70 15 0 10 -14 17 -45 20 l-44 5 31 26 c55 46 66 86 33
119 -22 22 -54 25 -85 8z"/>
<path d="M3323 885 c-40 -17 -58 -70 -43 -127 18 -63 77 -86 140 -53 66 34 57
160 -13 185 -38 13 -45 12 -84 -5z m87 -44 c26 -50 4 -111 -40 -111 -33 0 -50
23 -50 65 0 42 17 65 50 65 19 0 33 -7 40 -19z"/>
<path d="M4257 894 c-14 -15 -6 -34 14 -34 14 0 19 5 17 17 -3 18 -20 27 -31
17z"/>
<path d="M4600 800 c0 -85 3 -101 18 -109 12 -6 23 -6 33 0 11 8 11 12 2 16
-9 3 -13 33 -13 99 0 87 -1 94 -20 94 -19 0 -20 -7 -20 -100z"/>
<path d="M1144 876 c-3 -8 -4 -31 -2 -52 3 -37 5 -39 36 -39 34 0 54 -18 45
-42 -3 -8 -22 -13 -49 -13 -24 0 -44 -4 -44 -8 0 -18 26 -32 57 -32 38 0 83
37 83 67 0 33 -29 63 -61 63 -22 0 -29 5 -29 20 0 16 7 20 35 20 24 0 35 5 35
15 0 21 -98 22 -106 1z"/>
<path d="M1800 790 c0 -82 3 -100 15 -100 12 0 15 16 16 78 l1 77 26 -77 c34
-103 51 -104 85 -5 l25 72 1 -72 c1 -66 3 -73 21 -73 19 0 20 7 20 100 l0 100
-29 0 c-28 0 -31 -4 -52 -70 -13 -39 -26 -67 -30 -63 -3 5 -14 36 -25 71 -16
57 -20 62 -46 62 l-28 0 0 -100z"/>
<path d="M2820 825 c-23 -35 -40 -70 -38 -77 3 -8 18 -12 41 -10 31 3 36 0 39
-20 4 -29 41 -32 47 -3 2 11 8 23 15 27 8 5 7 11 -2 20 -7 7 -12 37 -12 70 0
54 -1 58 -24 58 -18 0 -33 -15 -66 -65z m42 -25 c-3 -21 -10 -30 -23 -30 -18
0 -19 2 -4 30 9 17 19 30 24 30 4 0 6 -13 3 -30z"/>
<path d="M2955 846 c-9 -55 -2 -67 33 -60 19 4 33 0 41 -10 22 -27 6 -46 -39
-46 -34 0 -41 -3 -38 -17 5 -28 81 -30 107 -4 43 43 16 111 -43 111 -21 0 -27
4 -24 18 2 12 14 18 41 20 24 2 37 8 37 18 0 10 -14 14 -54 14 l-55 0 -6 -44z"/>
<path d="M3735 881 c-39 -17 -58 -49 -58 -96 0 -64 30 -95 94 -95 40 0 51 4
69 27 30 39 9 53 -30 19 -37 -31 -39 -31 -68 -10 -17 12 -22 25 -22 58 0 67
50 99 87 56 18 -20 53 -28 53 -11 0 38 -80 71 -125 52z"/>
<path d="M4330 861 c0 -11 -6 -22 -12 -25 -10 -5 -10 -7 0 -12 7 -3 12 -24 12
-47 0 -70 9 -87 41 -87 31 0 39 14 14 24 -10 4 -15 20 -15 52 0 37 4 47 20 51
11 3 20 9 20 13 0 4 -9 10 -20 13 -11 3 -20 12 -20 21 0 9 -8 16 -20 16 -13 0
-20 -7 -20 -19z"/>
<path d="M1570 832 c-31 -25 -31 -99 1 -124 34 -28 109 -22 109 9 0 11 -7 13
-26 9 -32 -8 -64 1 -64 19 0 9 15 15 48 17 44 3 47 5 44 28 -7 53 -69 77 -112
42z m68 -29 c2 -8 -6 -13 -22 -13 -25 0 -33 10 -19 24 10 10 36 3 41 -11z"/>
<path d="M2083 843 c-26 -10 -13 -31 18 -29 18 0 34 -5 36 -11 3 -8 -4 -13
-16 -13 -40 0 -71 -22 -71 -50 0 -14 5 -31 12 -38 15 -15 51 -15 66 0 8 8 15
8 26 -1 25 -21 33 -4 29 61 -3 42 -10 67 -21 76 -16 12 -56 15 -79 5z m57 -98
c0 -9 -7 -18 -16 -22 -18 -7 -39 11 -30 26 11 17 46 13 46 -4z"/>
<path d="M2217 843 c-3 -4 8 -39 23 -78 29 -72 27 -105 -5 -105 -8 0 -15 -7
-15 -15 0 -21 43 -19 63 3 15 16 77 172 77 193 0 5 -9 9 -19 9 -14 0 -23 -11
-31 -37 -6 -21 -14 -45 -17 -53 -3 -9 -12 5 -23 35 -15 46 -41 68 -53 48z"/>
<path d="M2420 843 c-25 -10 -39 -36 -40 -74 0 -66 64 -101 118 -63 17 12 22
25 22 60 0 66 -42 99 -100 77z m44 -29 c22 -9 22 -80 0 -88 -36 -14 -62 52
-32 82 14 14 12 14 32 6z"/>
<path d="M3908 829 c-21 -12 -24 -39 -4 -39 7 0 19 7 26 15 16 20 36 19 44 -1
9 -23 8 -24 -22 -24 -35 0 -72 -26 -72 -50 0 -29 36 -50 71 -40 17 5 31 5 34
-1 4 -5 13 -9 21 -9 10 0 14 14 14 55 0 79 -15 105 -59 105 -20 0 -44 -5 -53
-11z m70 -85 c-5 -25 -35 -41 -49 -27 -9 9 -9 16 1 28 17 21 52 20 48 -1z"/>
<path d="M4060 733 c0 -96 1 -103 20 -103 16 0 20 7 20 34 0 30 2 33 25 28 57
-10 95 23 95 83 0 45 -32 64 -100 62 l-60 -1 0 -103z m102 70 c22 -20 23 -56
2 -77 -31 -32 -64 -11 -64 39 0 51 28 69 62 38z"/>
<path d="M4250 759 c0 -71 2 -80 18 -77 14 3 17 16 20 81 3 72 1 77 -18 77
-18 0 -20 -6 -20 -81z"/>
<path d="M4447 822 c-10 -10 -17 -22 -17 -25 0 -14 33 -7 45 10 14 19 45 11
45 -12 0 -9 -9 -15 -26 -15 -49 0 -81 -31 -67 -66 8 -22 43 -33 70 -23 13 5
25 4 28 -1 4 -6 13 -10 21 -10 18 0 20 130 2 148 -19 19 -82 15 -101 -6z m73
-81 c0 -23 -28 -35 -46 -20 -11 9 -11 15 -3 25 17 21 49 17 49 -5z"/>
<path d="M3175 781 c-11 -19 5 -31 41 -31 28 0 35 4 32 18 -4 19 -62 30 -73
13z"/>
<path d="M3490 771 c0 -17 6 -21 36 -21 28 0 35 3 32 18 -2 11 -14 18 -36 20
-27 3 -32 0 -32 -17z"/>
</g>
</svg>
