<?xml version="1.0" standalone="no"?>
<!DOCTYPE svg PUBLIC "-//W3C//DTD SVG 20010904//EN"
 "http://www.w3.org/TR/2001/REC-SVG-20010904/DTD/svg10.dtd">
<svg version="1.0" xmlns="http://www.w3.org/2000/svg"
 width="1080.000000pt" height="1080.000000pt" viewBox="0 0 1080.000000 1080.000000"
 preserveAspectRatio="xMidYMid meet">
<metadata>
Created by potrace 1.16, written by Peter Selinger 2001-2019
</metadata>
<g transform="translate(0.000000,1080.000000) scale(0.100000,-0.100000)"
fill="#000000" stroke="none">
<path d="M4980 10646 c-259 -18 -374 -31 -630 -72 -332 -53 -371 -63 -410
-107 -17 -20 -49 -50 -69 -66 -36 -29 -37 -29 -61 -11 l-23 18 21 27 c12 16
21 30 18 32 -6 6 -306 -81 -491 -142 -525 -174 -1072 -442 -1541 -756 -163
-109 -330 -231 -469 -343 -110 -89 -340 -289 -368 -321 -36 -40 -60 -107 -59
-170 0 -110 17 -135 260 -372 244 -239 271 -258 372 -258 90 1 133 24 265 140
663 587 1448 998 2300 1205 262 64 516 106 806 135 152 15 489 21 694 14 528
-20 984 -105 1505 -279 278 -93 445 -163 705 -295 434 -220 803 -469 1139
-770 150 -133 174 -147 262 -153 116 -7 142 10 395 260 139 137 223 227 235
253 10 22 20 68 22 102 7 100 -21 147 -163 277 -282 258 -629 516 -985 733
-759 464 -1661 775 -2555 882 -383 46 -836 60 -1175 37z m671 -145 c106 -10
145 -25 202 -80 59 -55 80 -104 81 -186 0 -112 -49 -195 -148 -248 -36 -19
-56 -22 -163 -22 -67 0 -123 2 -126 5 -2 3 1 104 9 225 7 121 13 241 13 268 1
54 -11 50 132 38z m-768 -123 c126 -239 211 -407 207 -411 -3 -2 -32 -7 -65
-10 l-60 -6 -24 55 c-17 40 -28 53 -40 50 -9 -3 -55 -8 -103 -12 -68 -5 -88
-10 -92 -23 -3 -9 -10 -35 -15 -57 l-11 -41 -62 -6 c-35 -3 -64 -5 -65 -4 -1
1 35 127 80 279 90 306 77 282 164 287 30 1 34 -3 86 -101z m1441 56 l128 -18
-6 -50 c-3 -27 -7 -51 -9 -53 -3 -2 -33 1 -68 7 -112 18 -115 17 -123 -37 -3
-25 -4 -49 -1 -52 3 -2 40 -10 83 -16 l77 -10 -1 -48 c0 -25 -3 -49 -7 -53 -3
-4 -43 -1 -88 5 -44 7 -82 11 -84 9 -2 -2 -7 -26 -10 -55 l-7 -51 92 -12 91
-13 -6 -51 c-4 -28 -8 -52 -10 -54 -2 -2 -298 39 -303 43 -2 2 64 459 74 508
5 23 10 28 27 24 12 -3 80 -13 151 -23z m-2270 -122 c11 -52 11 -52 -89 -76
-41 -10 -75 -22 -75 -27 0 -6 5 -30 11 -53 l11 -44 71 19 c102 26 102 26 114
-28 13 -57 13 -57 -72 -73 -89 -17 -90 -18 -75 -79 9 -40 16 -51 29 -47 30 10
146 36 157 36 7 0 15 -16 18 -36 4 -19 9 -41 12 -48 4 -10 -36 -24 -141 -50
-80 -20 -150 -34 -154 -31 -5 2 -12 22 -16 42 -4 21 -29 128 -55 238 -27 110
-50 209 -52 219 -3 18 13 24 127 52 72 18 139 32 150 31 15 -2 22 -13 29 -45z
m2936 -11 c25 -11 57 -31 73 -44 l27 -22 -38 -44 -37 -43 -38 25 c-98 67 -223
34 -263 -68 -43 -114 43 -217 181 -216 l62 0 12 -51 c6 -28 9 -54 5 -57 -3 -3
-47 -6 -97 -6 -80 0 -99 4 -143 27 -95 50 -164 157 -164 254 0 105 71 207 175
250 75 31 174 29 245 -5z m415 -130 c149 -55 192 -99 183 -192 -8 -75 -76
-149 -138 -149 -11 0 -20 -4 -20 -10 0 -5 20 -64 45 -131 25 -67 44 -124 41
-126 -2 -2 -34 6 -70 19 l-66 23 -43 128 -42 128 -17 -40 c-9 -21 -24 -64 -34
-95 -12 -39 -23 -56 -34 -56 -21 0 -82 20 -93 30 -10 9 162 510 174 510 4 0
56 -18 114 -39z m-3918 -26 c127 -53 197 -214 148 -342 -20 -52 -74 -117 -116
-138 -53 -28 -193 -75 -200 -68 -4 5 -39 103 -79 218 -39 116 -77 227 -85 248
-12 29 -12 38 -3 42 7 2 47 15 88 29 41 14 84 27 95 30 30 7 114 -3 152 -19z
m-523 -174 l25 -48 -85 -38 c-46 -21 -84 -42 -84 -47 0 -11 39 -88 45 -88 2 0
39 15 81 34 l78 34 22 -46 22 -47 -80 -38 c-86 -41 -86 -41 -52 -109 16 -30
12 -31 118 16 32 14 60 26 62 26 5 0 44 -77 44 -88 0 -7 -237 -117 -268 -124
-7 -2 -27 29 -46 72 -136 299 -186 413 -184 415 3 2 272 123 275 124 2 1 14
-21 27 -48z m5123 -76 l52 -23 -16 -42 c-9 -23 -22 -44 -28 -47 -7 -2 -47 12
-90 32 -43 19 -79 34 -80 33 -1 -2 -12 -24 -23 -50 l-20 -47 79 -37 c43 -20
79 -38 79 -39 0 -1 -9 -23 -20 -48 -23 -52 -21 -52 -119 -2 -28 14 -54 25 -59
25 -5 0 -19 -21 -30 -47 l-21 -48 82 -38 c45 -22 83 -40 85 -42 3 -3 -35 -83
-43 -93 -4 -5 -275 122 -275 129 0 4 39 92 86 196 48 103 97 211 110 240 l23
52 88 -41 c48 -22 111 -51 140 -63z m541 -291 c2 -1 -8 -23 -23 -48 l-27 -46
-55 31 c-30 17 -56 30 -57 28 -2 -2 -48 -83 -101 -179 -54 -96 -101 -179 -105
-183 -7 -8 -110 37 -110 47 0 2 47 88 106 191 58 103 104 188 102 189 -2 2
-25 15 -53 31 -27 15 -52 29 -53 31 -2 1 8 23 23 47 l26 45 162 -90 c89 -50
164 -92 165 -94z m-6159 99 c45 -34 64 -70 69 -127 3 -43 0 -63 -16 -89 l-20
-34 129 -49 c71 -26 129 -51 129 -55 0 -9 -109 -69 -126 -69 -7 0 -63 22 -126
49 -62 27 -114 48 -116 46 -1 -1 20 -42 48 -91 27 -48 46 -91 42 -95 -25 -22
-93 -51 -101 -43 -8 9 -210 365 -244 429 l-15 31 94 53 c51 29 106 57 121 61
40 13 102 5 132 -17z m-473 -292 c17 -10 41 -35 54 -55 53 -87 30 -176 -64
-245 l-56 -41 51 -71 c28 -39 53 -77 55 -84 3 -8 -14 -27 -42 -45 l-47 -33
-18 24 c-10 13 -40 55 -66 94 -27 38 -85 123 -131 188 -46 66 -85 125 -88 131
-4 11 42 45 160 119 70 44 139 50 192 18z m6980 -32 c35 -24 43 -35 39 -52
-38 -166 -80 -351 -96 -427 -12 -52 -24 -100 -28 -107 -4 -8 -21 -1 -55 24
-46 33 -48 37 -42 71 3 21 9 46 12 58 5 18 -8 31 -80 79 l-86 59 -46 -33 -47
-32 -54 37 -54 37 238 158 c131 86 242 158 246 158 5 1 28 -13 53 -30z m446
-343 c94 -82 114 -107 123 -158 7 -37 -12 -97 -43 -132 -30 -34 -99 -58 -143
-51 l-39 7 0 -141 c0 -78 -3 -141 -6 -141 -3 0 -30 21 -61 48 l-55 47 6 135 7
135 -44 -50 c-24 -27 -55 -63 -69 -80 l-26 -29 -46 38 c-40 33 -45 40 -34 55
29 39 333 391 339 391 4 0 44 -33 91 -74z m-8059 -10 c12 -7 124 -66 250 -131
125 -65 227 -122 227 -126 0 -4 -20 -24 -45 -45 l-46 -37 -50 28 c-44 24 -52
25 -67 13 -9 -8 -45 -38 -79 -67 l-62 -53 21 -55 c11 -30 18 -56 16 -58 -42
-39 -93 -74 -98 -68 -4 4 -47 127 -95 272 l-88 264 41 39 c47 43 45 43 75 24z"/>
<path d="M5636 10328 c-3 -35 -8 -107 -11 -160 l-6 -98 33 0 c85 0 148 68 148
159 0 88 -60 161 -132 161 -25 0 -27 -3 -32 -62z"/>
<path d="M3310 10040 c-14 -9 2 -68 82 -288 l8 -23 40 21 c137 70 81 300 -74
300 -23 0 -48 -5 -56 -10z"/>
<path d="M1843 9300 c-24 -10 -43 -24 -43 -30 0 -6 18 -36 39 -66 l40 -55 37
33 c46 43 49 81 10 115 -32 28 -30 27 -83 3z"/>
<path d="M4868 9280 c-9 -30 -24 -92 -33 -136 -10 -45 -21 -87 -24 -93 -4 -6
-51 -17 -104 -25 -54 -7 -100 -15 -103 -18 -4 -5 -1 -65 26 -406 10 -129 13
-218 6 -211 -2 2 -27 92 -55 199 -28 107 -55 211 -61 230 -9 31 -26 45 -146
120 -75 47 -140 87 -146 88 -5 2 21 -42 57 -98 l66 -101 -38 -52 c-21 -29 -44
-58 -51 -66 -16 -17 -33 0 191 -191 92 -78 166 -144 164 -147 -2 -2 -73 39
-158 91 l-154 95 -95 -20 c-183 -37 -175 -32 -85 -54 44 -10 85 -23 91 -27 6
-5 15 -36 18 -69 l7 -62 52 6 c29 4 115 9 192 12 l140 5 -143 -38 -142 -37
-55 -82 -55 -82 60 32 c43 23 63 29 73 22 8 -5 26 -18 40 -28 l25 -18 53 58
c104 111 152 158 137 133 -8 -14 -34 -55 -57 -91 -41 -66 -41 -67 -30 -120 16
-83 21 -88 33 -39 11 43 14 45 50 48 l39 3 -6 111 c-6 119 3 130 23 29 14 -65
26 -83 81 -115 l32 -19 -16 24 c-21 29 -21 48 -2 69 14 16 10 22 -51 75 -45
40 -64 63 -61 75 4 14 149 264 298 512 27 46 28 48 15 100 -16 63 -63 266 -74
323 l-8 40 -16 -55z"/>
<path d="M5082 8587 c-148 -237 -149 -239 -177 -255 -16 -9 -6 -11 55 -11 55
0 69 3 53 9 -30 12 -29 41 3 96 l26 44 78 0 78 0 6 -31 c13 -65 7 -99 -16
-109 -16 -6 12 -9 87 -9 73 0 103 3 88 9 -32 13 -40 33 -73 192 -49 230 -61
278 -68 278 -4 0 -67 -96 -140 -213z"/>
<path d="M6178 8788 c-56 -10 -80 -28 -37 -28 21 0 21 -1 14 -208 -6 -188 -6
-210 10 -225 28 -28 79 -22 109 14 14 17 26 38 26 47 -1 13 -6 10 -21 -10 -39
-53 -42 -38 -35 155 3 100 9 201 12 225 7 47 12 45 -78 30z"/>
<path d="M5773 8647 c-49 -9 -73 -27 -38 -27 18 0 17 6 19 -153 1 -115 3 -130
20 -143 48 -34 100 -5 144 81 l21 40 1 -45 c0 -61 21 -90 65 -90 27 0 39 7 59
33 27 35 33 57 17 57 -5 0 -13 -9 -16 -21 -4 -11 -12 -18 -18 -16 -9 3 -11 44
-8 147 3 131 2 142 -14 136 -9 -3 -29 -6 -45 -6 -27 0 -28 -1 -32 -68 -4 -82
-50 -185 -84 -190 -21 -3 -21 -1 -16 137 4 117 2 141 -9 140 -8 -1 -38 -6 -66
-12z"/>
<path d="M5430 8588 l0 -62 20 22 c17 17 32 22 75 22 30 0 55 -2 55 -5 0 -2
-31 -56 -70 -120 -38 -64 -70 -118 -70 -120 0 -3 13 -5 28 -5 15 0 43 -11 62
-25 69 -51 144 -53 170 -5 23 42 -14 99 -54 84 -22 -8 -27 -30 -14 -64 21 -61
-19 -46 -52 21 -11 20 -30 45 -44 55 l-25 19 69 115 c38 63 70 118 70 123 0 4
-49 7 -110 7 l-110 0 0 -62z"/>
<path d="M5088 7803 c-10 -2 -18 -8 -18 -13 0 -5 -6 -7 -13 -4 -18 6 -52 -21
-52 -42 0 -11 -9 -20 -20 -22 -11 -3 -23 -9 -27 -15 -5 -8 -14 -8 -32 1 -28
13 -49 -3 -25 -19 13 -8 -22 -12 -92 -13 -10 0 -15 -5 -12 -12 4 -12 -41 -64
-57 -64 -12 0 -101 -116 -134 -175 -42 -75 -110 -267 -76 -215 5 8 10 12 10 8
0 -12 -29 -118 -35 -128 -3 -5 -8 -28 -11 -52 -4 -24 -11 -52 -16 -62 -8 -15
-7 -18 5 -13 13 5 13 0 5 -31 -9 -33 -14 -62 -17 -114 -1 -10 -6 -18 -12 -18
-6 0 -8 9 -4 20 4 11 2 20 -4 20 -6 0 -11 -11 -11 -24 0 -14 -4 -28 -10 -31
-5 -3 -10 -13 -10 -21 0 -8 5 -14 10 -14 6 0 10 10 10 22 0 12 3 18 6 15 8 -8
-13 -118 -32 -169 -18 -50 -26 -150 -13 -159 8 -4 6 -15 -6 -32 -16 -25 -16
-25 7 -21 14 3 10 -1 -11 -10 -30 -14 -32 -18 -20 -33 12 -15 12 -16 -3 -10
-19 7 -34 -8 -18 -18 15 -9 52 15 46 30 -3 9 0 12 10 8 18 -7 18 -6 -4 -31
-11 -12 -17 -34 -16 -51 2 -29 0 -31 -32 -31 -20 0 -34 5 -34 13 0 9 -2 9 -8
0 -6 -9 -123 -13 -478 -15 l-471 -3 -49 -30 c-37 -23 -56 -44 -76 -84 -28 -54
-28 -57 -28 -245 0 -171 -3 -196 -21 -236 -24 -53 -52 -85 -94 -108 -27 -15
-97 -18 -635 -22 -669 -6 -630 -2 -698 -72 -57 -57 -64 -105 -60 -386 l3 -247
28 -47 c18 -31 44 -57 75 -75 l47 -28 1010 -5 1010 -5 2 -65 c6 -257 26 -412
73 -568 l19 -62 -44 -128 c-24 -70 -51 -157 -60 -193 -20 -87 -46 -310 -39
-336 5 -17 0 -21 -34 -26 -49 -8 -143 -50 -161 -71 -11 -13 -12 -39 -7 -116
l6 -100 -30 0 c-30 0 -30 0 -30 55 l0 56 -107 -3 -108 -3 -3 -252 c-3 -281 2
-264 -70 -244 l-32 10 0 -103 0 -103 31 -7 c53 -10 138 -7 172 8 50 21 86 64
103 123 8 29 20 51 25 48 13 -9 49 -91 49 -113 0 -26 118 -265 136 -275 8 -4
14 -13 14 -18 0 -6 -5 -7 -12 -3 -7 4 -8 3 -4 -4 4 -6 12 -9 19 -6 15 5 40
-33 31 -47 -3 -6 -17 -9 -30 -6 -13 2 -21 1 -19 -4 3 -4 -4 -10 -14 -14 -11
-3 -31 -19 -44 -35 l-25 -29 -22 24 c-58 62 -199 81 -274 37 -38 -22 -38 -22
-33 -2 5 19 0 20 -106 22 -179 4 -214 1 -256 -23 -22 -12 -45 -32 -51 -45 -7
-13 -18 -21 -23 -17 -6 3 -7 1 -4 -5 4 -5 3 -20 -1 -32 -6 -17 -12 -8 -31 52
-13 40 -32 97 -43 125 l-19 53 -104 0 -103 0 -12 -37 c-12 -37 -56 -161 -127
-358 -20 -55 -40 -104 -45 -110 -4 -5 -8 -18 -8 -30 0 -12 -5 -26 -12 -33 -9
-9 -9 -12 3 -12 12 0 12 -2 -1 -11 -12 -9 -11 -9 5 -3 11 5 68 10 126 12 l107
3 6 30 c3 17 10 28 15 24 6 -3 8 -13 5 -23 -5 -15 -4 -15 6 -2 9 12 11 10 6
-12 -3 -14 -9 -34 -13 -45 -6 -16 -5 -16 10 -4 18 14 24 77 8 83 -4 2 -11 13
-15 25 -6 18 -2 24 18 29 41 10 60 1 70 -34 9 -32 1 -56 -12 -36 -4 6 -15 11
-24 11 -17 0 -23 -26 -21 -85 1 -6 -10 -12 -23 -12 -13 0 -33 -9 -44 -20 -33
-33 -67 -42 -97 -26 -17 8 -22 16 -14 20 16 10 14 36 -4 36 -9 0 -26 -7 -40
-16 l-24 -15 22 -22 c13 -13 17 -22 9 -25 -7 -2 -12 -17 -12 -33 0 -21 -5 -29
-18 -29 -13 0 -22 -13 -31 -50 -9 -37 -18 -50 -31 -50 -10 0 -20 -7 -24 -15
-3 -8 -11 -14 -17 -13 -6 2 -19 -12 -28 -29 -19 -39 -24 -40 -39 -8 -9 19 -9
25 0 25 9 0 9 3 0 12 -18 18 -15 28 8 28 17 0 20 7 20 40 0 22 -4 40 -10 40
-5 0 -10 -4 -10 -9 0 -5 -14 -11 -30 -13 -20 -3 -30 0 -30 9 0 7 8 13 18 13
22 0 47 42 39 64 -4 9 -18 16 -32 16 -29 0 -31 11 -10 44 22 33 10 57 -24 50
-54 -12 -61 -16 -61 -32 0 -12 -6 -8 -19 12 -11 16 -27 34 -36 38 -10 6 -14
16 -9 30 4 13 -1 26 -15 39 -12 11 -21 28 -21 39 0 10 -5 20 -11 22 -6 2 -3
11 8 20 18 17 19 16 15 -18 -4 -33 -3 -35 22 -28 22 5 27 2 37 -22 7 -16 14
-40 16 -54 5 -30 2 -29 40 -23 39 6 42 16 10 31 -17 8 -18 11 -4 11 21 1 21 4
2 41 -8 16 -15 33 -14 37 4 23 -4 32 -33 39 -18 3 -39 15 -46 25 -17 24 -32
24 -32 2 -1 -13 -5 -10 -16 10 -10 18 -23 27 -39 27 -16 0 -25 6 -25 15 0 19
-14 19 -30 0 -7 -8 -21 -15 -31 -15 -11 0 -19 -5 -19 -10 0 -6 -7 -6 -19 1
-11 7 -26 9 -37 4 -11 -4 -27 -7 -38 -6 -10 2 -15 -2 -12 -8 4 -5 -3 -15 -14
-21 -11 -6 -20 -17 -20 -25 0 -23 -25 -7 -37 23 l-10 27 -11 -27 c-6 -16 -16
-28 -22 -28 -5 0 -10 -10 -10 -22 0 -38 -14 -52 -38 -39 -11 6 -34 11 -49 11
-16 0 -33 3 -39 7 -5 5 1 -2 14 -15 19 -18 22 -25 12 -37 -7 -8 -19 -15 -27
-15 -8 0 -11 -5 -8 -10 4 -6 15 -8 26 -5 15 5 19 1 19 -14 0 -12 6 -21 14 -21
7 0 27 -7 42 -15 26 -13 27 -15 7 -15 -12 0 -34 5 -48 10 -15 6 -32 7 -38 3
-7 -5 0 -10 18 -14 l30 -7 -32 -1 c-47 -2 -49 -18 -2 -25 35 -6 40 -10 36 -26
-7 -27 36 -27 63 0 26 26 25 33 -4 26 -31 -8 -43 9 -17 23 21 12 34 88 16 95
-5 2 -4 5 3 5 8 1 16 -8 19 -19 6 -24 23 -27 23 -4 0 8 5 12 10 9 6 -3 10 -22
10 -41 0 -30 -3 -34 -19 -29 -16 5 -18 2 -14 -15 8 -31 43 -26 43 6 0 24 23
53 43 54 17 0 5 -28 -16 -38 -17 -8 -18 -11 -4 -11 13 -1 17 -10 17 -41 0 -34
-3 -40 -22 -41 -17 -1 -19 -2 -5 -6 21 -5 23 -23 2 -23 -8 0 -15 -4 -15 -10 0
-5 7 -10 15 -10 21 0 19 -18 -2 -23 -14 -4 -12 -5 5 -6 27 -1 28 -12 3 -35
-16 -15 -19 -30 -17 -82 1 -44 6 -68 16 -75 13 -7 13 -10 1 -18 -14 -9 -51 19
-51 39 0 6 -7 10 -15 10 -11 0 -15 11 -15 40 0 22 -4 40 -10 40 -5 0 -10 -9
-10 -20 0 -19 0 -19 -42 0 l-43 19 -3 -39 c-4 -52 -22 -52 -22 0 0 22 -4 40
-10 40 -5 0 -10 -18 -10 -40 0 -22 -4 -40 -10 -40 -5 0 -10 18 -10 40 0 22 5
40 10 40 6 0 10 8 11 18 0 9 3 12 5 6 3 -7 14 -10 24 -7 11 3 20 0 20 -6 0 -6
5 -11 10 -11 6 0 10 16 10 36 0 19 7 42 15 50 22 22 19 27 -25 47 -40 17 -53
37 -25 37 8 0 15 4 15 9 0 9 -96 21 -168 21 -49 0 -75 17 -69 46 3 19 1 22 -8
14 -7 -6 -11 -19 -8 -30 3 -12 -2 -22 -16 -29 -12 -7 -21 -18 -21 -26 0 -7 -6
-16 -12 -18 -7 -3 5 -6 26 -6 37 -1 39 -2 20 -16 -12 -9 -14 -14 -5 -15 7 0
11 -6 7 -15 -6 -17 9 -21 19 -5 3 6 10 10 15 10 12 0 40 -65 40 -91 0 -20 16
-26 22 -8 2 6 11 7 22 3 18 -7 18 -8 -2 -15 -15 -6 -22 -17 -22 -34 0 -28 21
-33 40 -10 18 21 40 19 40 -5 0 -11 -7 -20 -15 -20 -8 0 -15 -5 -15 -11 0 -8
-12 -10 -35 -6 -19 3 -35 2 -35 -2 0 -17 27 -31 60 -31 30 0 38 -5 54 -35 11
-19 22 -35 25 -35 15 0 41 61 41 94 0 39 9 44 53 24 15 -7 27 -21 27 -31 0
-10 7 -20 15 -23 8 -4 15 -12 15 -20 0 -8 5 -14 10 -14 6 0 10 -7 10 -15 0 -8
5 -15 10 -15 6 0 10 6 10 13 0 20 51 17 74 -5 20 -18 20 -20 3 -32 -19 -15
-22 -26 -7 -26 6 0 23 -12 38 -26 15 -14 38 -31 52 -37 22 -10 14 -12 -60 -17
-58 -3 -89 -1 -97 7 -19 17 -33 61 -27 78 4 8 1 15 -5 15 -6 0 -11 -4 -11 -10
0 -17 -18 -11 -23 8 -4 15 -5 15 -6 -2 0 -11 5 -27 13 -35 7 -9 17 -26 20 -38
6 -18 3 -23 -12 -23 -11 0 -35 -2 -53 -5 l-34 -5 33 15 c44 20 41 43 -5 50
-64 11 -102 26 -113 43 -9 16 -9 16 -10 0 0 -10 -5 -18 -11 -18 -7 0 -10 15
-7 39 3 35 1 39 -27 50 -20 7 -31 8 -33 1 -2 -5 -10 -10 -18 -10 -18 0 -18
-14 1 -30 13 -10 15 -9 15 10 0 36 25 17 28 -22 2 -28 -1 -36 -16 -40 -15 -4
-18 -1 -14 14 4 17 1 19 -15 14 -29 -9 -75 13 -68 33 7 22 -44 25 -68 4 -9 -9
-20 -13 -24 -10 -9 10 0 17 44 33 l38 15 -45 -5 c-24 -3 -49 -11 -55 -19 -7
-9 -17 -11 -30 -6 -37 14 -54 10 -61 -16 -8 -31 -26 -28 -34 6 -6 24 -7 24
-14 2 -4 -11 -13 -24 -20 -26 -8 -3 -17 -20 -21 -38 -4 -18 -16 -40 -26 -48
-10 -9 -30 -47 -44 -86 -13 -38 -28 -69 -33 -68 -4 1 -7 -16 -6 -38 2 -35 -1
-40 -25 -45 -14 -4 -32 -11 -38 -17 -9 -7 -13 -5 -13 7 0 10 -8 16 -21 16 -12
0 -23 8 -26 20 -4 14 -13 20 -32 19 -14 0 -20 -3 -13 -6 19 -7 14 -33 -6 -33
-26 0 -34 11 -21 27 9 10 6 13 -14 13 -19 0 -27 6 -30 23 l-4 22 -8 -22 c-5
-17 -15 -23 -36 -23 -16 0 -29 -5 -29 -10 0 -6 -8 -5 -20 2 -16 10 -24 10 -38
0 -9 -7 -23 -15 -31 -19 -16 -7 -47 11 -44 26 2 6 -4 8 -12 5 -8 -4 -15 -2
-15 3 0 6 -17 15 -38 22 -35 12 -40 18 -51 60 -7 27 -11 52 -10 57 4 24 -2 35
-18 30 -22 -7 -50 8 -34 18 17 11 13 27 -5 24 -10 -2 -19 3 -21 10 -3 6 1 12
7 12 9 0 9 4 0 15 -10 12 -10 19 -2 27 18 18 14 38 -5 38 -14 0 -10 7 15 28
35 30 41 52 15 52 -13 0 -11 5 9 17 21 13 26 23 22 40 -6 20 -3 23 26 23 26 0
30 3 25 19 -3 11 0 21 9 24 8 3 17 20 21 37 6 25 9 29 21 19 12 -9 14 -6 14
21 0 29 -2 31 -16 19 -14 -12 -15 -8 -12 32 3 42 2 44 -24 47 -16 2 -28 8 -28
15 0 6 -7 2 -15 -9 -14 -18 -15 -18 -40 11 -25 29 -26 29 -19 5 l6 -25 -21 24
c-11 13 -21 19 -21 13 0 -7 -15 -12 -35 -12 -28 0 -35 4 -35 20 0 11 6 20 13
20 8 1 7 4 -3 13 -20 16 -16 107 6 107 10 0 14 12 14 40 0 30 4 40 16 40 12 0
9 9 -14 38 -22 27 -27 42 -21 57 13 33 11 55 -5 49 -11 -4 -13 3 -10 33 5 38
-9 74 -22 60 -4 -4 -8 -30 -8 -57 0 -28 -3 -50 -8 -50 -4 0 -8 7 -8 15 0 8 -7
15 -15 15 -11 0 -15 -11 -15 -40 0 -22 5 -40 10 -40 6 0 10 6 10 13 0 8 3 8 9
-2 11 -18 -6 -48 -31 -54 -19 -5 -23 -31 -12 -86 4 -17 13 -31 21 -31 10 0 11
5 4 18 -6 10 -7 30 -3 43 5 21 7 20 15 -16 21 -98 24 -160 11 -182 -12 -19
-11 -22 4 -26 16 -4 16 -5 0 -6 -10 0 -18 -5 -18 -11 0 -5 -7 -10 -15 -10 -8
0 -15 6 -15 14 0 9 -8 12 -25 8 -20 -3 -25 0 -25 17 0 24 -18 28 -26 7 -3 -8
-16 -17 -30 -20 l-24 -6 0 -525 0 -525 28 6 c15 3 46 12 70 20 55 18 91 18 98
-1 3 -8 16 -17 27 -21 12 -4 35 -16 50 -27 16 -11 44 -27 62 -36 18 -9 74 -55
125 -104 69 -66 90 -93 88 -109 -4 -31 44 -59 69 -40 10 6 44 24 75 40 35 17
59 35 62 48 7 27 74 48 127 39 30 -5 45 -2 68 15 17 11 43 21 58 21 50 1 153
-14 153 -22 0 -17 -66 -29 -99 -18 -26 9 -35 8 -49 -5 -10 -8 -27 -17 -38 -19
-10 -2 -28 -8 -39 -14 -11 -6 -26 -8 -32 -6 -7 3 -13 0 -13 -6 0 -6 -3 -10 -7
-9 -5 1 -18 -3 -31 -10 -16 -9 -21 -19 -17 -32 8 -26 -10 -33 -50 -19 -33 12
-36 12 -63 -19 -16 -18 -34 -32 -41 -32 -8 0 -11 -7 -7 -15 3 -8 1 -15 -3 -15
-5 0 -16 -3 -25 -6 -11 -4 -16 -1 -16 10 0 19 -5 20 -31 6 -12 -7 -19 -7 -19
-1 0 5 -9 8 -19 6 -11 -2 -25 3 -31 10 -10 12 -6 14 22 10 l33 -4 -24 20 c-12
10 -27 17 -31 14 -5 -3 -16 5 -24 17 -9 12 -16 19 -16 14 0 -5 -7 -3 -15 4 -9
7 -18 10 -22 7 -3 -4 -17 3 -31 14 -18 14 -28 16 -33 8 -4 -8 -9 -4 -14 10 -3
11 -3 25 0 31 3 5 -1 10 -10 10 -11 0 -14 -6 -10 -23 5 -20 2 -22 -30 -23 -38
-1 -44 6 -19 27 9 7 14 22 11 36 -2 12 0 24 6 26 5 1 2 11 -7 20 -10 9 -13 17
-8 17 6 0 9 8 8 17 -2 10 -8 18 -14 17 -7 -1 -23 -2 -36 -2 -14 -1 -32 -9 -41
-18 -11 -11 -33 -16 -70 -15 -32 0 -55 -4 -55 -10 0 -6 -8 -9 -18 -7 -19 4
-19 23 1 23 6 1 11 7 9 13 -1 7 2 21 7 30 7 14 4 17 -20 18 -24 1 -28 -2 -24
-17 4 -13 1 -19 -9 -19 -9 0 -16 5 -16 11 0 8 -4 8 -15 -1 -11 -9 -14 -52 -15
-231 l0 -219 144 0 c97 0 146 4 148 11 3 8 14 8 43 0 47 -13 1495 -16 1495 -3
0 5 31 42 69 83 37 41 71 84 75 96 6 19 2 23 -31 32 -21 6 -45 11 -54 11 -9 0
-22 7 -29 15 -17 20 -157 88 -190 91 -14 2 -41 5 -60 8 -118 18 -178 22 -197
15 -15 -5 -23 -5 -23 2 0 6 -9 8 -20 4 -17 -5 -71 5 -118 22 -15 6 -15 5 -2
-11 13 -16 12 -18 -10 -14 -14 2 -24 9 -23 15 1 6 -6 9 -16 6 -10 -3 -22 0
-25 6 -9 15 71 34 110 26 37 -6 110 11 135 32 8 7 35 13 58 13 23 0 40 3 38 8
-8 11 45 6 73 -7 20 -10 32 -9 62 3 20 9 39 20 43 26 3 5 19 10 35 10 24 0 27
3 23 23 -4 18 -3 19 6 7 8 -10 13 -12 18 -4 8 11 47 34 57 34 3 0 7 -10 7 -22
1 -17 2 -19 6 -5 2 9 14 17 25 17 25 0 18 10 -8 14 -10 2 -20 8 -22 14 -2 8
13 12 47 12 36 0 51 -4 51 -14 0 -18 98 -68 121 -61 11 4 19 2 19 -4 0 -6 18
-11 40 -11 33 0 40 -3 40 -20 0 -14 7 -20 21 -20 11 0 17 -4 14 -10 -11 -17
-37 -11 -42 10 -6 23 -33 27 -33 5 0 -8 -4 -15 -10 -15 -5 0 -10 7 -10 15 0 8
-4 15 -10 15 -5 0 -10 -4 -10 -10 0 -5 -24 -10 -52 -10 -68 0 -88 -12 -70 -40
11 -18 10 -20 -9 -20 -11 0 -27 -7 -35 -15 -20 -20 -32 -19 -36 3 -3 15 -5 15
-15 -4 -22 -39 16 -91 45 -62 6 6 12 6 16 -1 4 -6 4 -11 0 -11 -4 0 10 -14 31
-30 21 -17 39 -30 40 -30 2 0 2 12 0 26 -3 29 11 20 17 -11 2 -12 10 -19 20
-17 9 1 19 -2 23 -8 3 -5 1 -10 -6 -10 -7 0 -10 -3 -6 -6 8 -8 67 28 61 38 -3
4 2 8 11 8 9 0 14 4 11 9 -6 10 43 25 52 16 3 -3 -2 -5 -11 -5 -10 0 -17 -4
-17 -10 0 -6 9 -5 24 1 15 7 22 17 19 26 -4 9 5 18 26 26 17 6 29 17 27 24 -3
6 6 19 20 27 18 12 24 13 24 4 1 -7 12 0 25 16 13 17 22 33 19 37 -2 4 5 5 16
2 12 -3 20 0 20 6 0 7 -4 9 -10 6 -5 -3 -10 -1 -10 4 0 11 5 13 33 15 18 1
123 109 141 145 9 17 25 35 36 41 11 6 20 17 20 25 0 8 7 15 15 15 14 0 19 12
16 33 0 4 7 7 16 7 16 0 16 2 3 11 -11 8 -12 12 -2 16 6 2 12 13 12 24 0 16 3
18 19 9 26 -14 31 -13 25 5 -4 8 -15 15 -25 15 -10 0 -19 5 -19 10 0 6 4 10 9
10 5 0 11 8 13 18 8 28 36 24 30 -3 -2 -13 1 -25 6 -29 14 -9 42 4 42 19 0 7
7 16 16 19 8 3 12 11 8 17 -4 8 -3 9 4 5 6 -4 25 0 42 9 16 8 30 13 30 10 0
-4 7 0 15 9 17 17 20 46 5 46 -6 0 -29 -8 -50 -19 -27 -13 -40 -15 -43 -7 -3
8 -8 8 -18 0 -22 -17 -48 -24 -54 -14 -3 5 9 16 27 24 41 19 71 38 80 51 5 6
8 4 8 -4 0 -11 6 -8 20 7 12 12 26 22 33 22 8 0 7 3 -2 9 -11 7 -5 16 27 38
41 28 52 43 30 43 -17 0 23 40 41 40 9 1 31 14 50 30 19 16 37 27 40 24 3 -3
-5 -14 -18 -25 -16 -13 -19 -19 -8 -19 14 0 37 20 88 80 l21 25 -2 -25 c-1
-14 -2 -132 -1 -264 l1 -238 143 4 c116 4 152 9 195 26 29 12 51 18 47 12 -3
-5 -11 -10 -16 -10 -5 0 -19 -9 -31 -19 -23 -23 -35 -96 -16 -107 7 -4 8 -3 4
4 -14 23 5 34 29 18 17 -11 25 -12 34 -3 8 8 14 8 22 0 16 -16 3 -47 -16 -39
-9 3 -15 0 -15 -8 0 -7 -11 -18 -25 -24 -20 -9 -25 -9 -25 2 0 8 -9 13 -23 12
-16 -1 -23 -7 -23 -21 1 -15 -6 -21 -31 -23 -24 -2 -33 1 -33 12 0 10 -6 13
-16 9 -8 -3 -13 -12 -10 -19 3 -8 -1 -14 -9 -14 -17 0 -20 16 -5 25 15 9 12
25 -4 25 -8 0 -21 -8 -28 -18 -7 -10 -21 -21 -31 -25 -10 -4 -15 -12 -12 -18
4 -6 13 -8 20 -5 7 2 15 -4 18 -15 7 -25 23 -24 30 1 4 16 12 20 34 17 17 -2
29 -11 31 -22 2 -9 0 -15 -6 -11 -5 3 -21 -5 -33 -18 -22 -23 -25 -24 -41 -9
-13 11 -18 12 -18 3 0 -8 -8 -10 -24 -6 -33 8 -39 -4 -16 -33 18 -24 18 -24
29 -4 6 12 16 20 23 19 14 -2 76 -39 96 -56 20 -18 37 -7 18 12 -18 18 -22 63
-6 73 6 4 10 -5 10 -19 0 -25 0 -26 19 -7 10 10 25 21 32 23 11 4 12 9 1 33
-11 23 -11 30 0 36 9 6 14 2 16 -10 2 -11 14 -22 28 -25 30 -8 31 -22 3 -29
-12 -3 -18 -10 -14 -17 9 -15 -13 -67 -32 -74 -12 -5 -10 -10 10 -26 29 -23
37 -25 37 -7 0 21 17 40 29 32 9 -5 9 -10 0 -21 -10 -12 -8 -16 9 -21 27 -7
27 -19 1 -62 l-20 -34 20 6 c12 3 21 1 21 -4 0 -5 -6 -9 -12 -10 -7 0 -4 -4 7
-8 14 -6 25 -3 38 10 10 11 22 19 27 19 5 0 4 14 -2 31 -8 22 -7 34 1 42 16
16 14 44 -5 51 -20 8 -34 -1 -34 -20 0 -8 -4 -14 -9 -14 -15 0 -23 18 -11 25
5 3 10 17 10 30 0 13 7 28 16 33 9 5 14 14 10 21 -11 17 -23 13 -29 -10 -9
-33 -27 -12 -27 32 0 32 3 39 20 39 11 0 20 -4 20 -9 0 -5 9 -7 20 -4 16 4 18
11 13 31 -4 17 -2 23 6 18 6 -4 18 -1 26 7 8 9 23 14 32 12 10 -2 20 -4 23 -4
3 -1 -2 -5 -10 -11 -8 -5 -11 -13 -6 -17 4 -4 13 0 21 10 8 11 19 15 31 11 17
-6 17 -5 -1 9 -11 9 -25 17 -30 17 -22 0 -9 49 19 75 15 14 30 25 31 23 2 -2
5 -27 7 -57 3 -57 20 -76 61 -68 20 3 20 4 -7 15 -28 12 -28 13 -10 33 18 20
18 20 -11 15 -17 -4 -24 -3 -17 0 6 3 12 13 12 22 0 12 5 11 24 -7 15 -15 26
-19 31 -12 4 8 11 7 21 -3 8 -8 23 -13 34 -11 13 2 21 -3 26 -18 6 -19 7 -20
19 -3 22 29 52 5 57 -46 6 -55 0 -64 -23 -39 -11 12 -24 21 -28 21 -5 0 -12
10 -16 22 l-8 23 -4 -22 c-2 -13 -9 -23 -14 -23 -5 0 -9 -20 -9 -45 0 -55 -12
-57 -56 -10 -18 19 -35 35 -38 35 -3 0 -6 -22 -6 -50 0 -27 5 -50 10 -50 6 0
10 9 10 21 0 12 5 19 13 17 10 -4 19 -19 59 -100 13 -27 10 -46 -5 -27 -17 22
-57 43 -57 29 0 -6 7 -13 15 -16 8 -4 15 -13 15 -20 0 -8 7 -17 15 -20 8 -4
15 -15 15 -25 0 -10 7 -19 15 -19 8 0 15 -4 15 -10 0 -16 -15 -12 -35 10 -23
26 -45 26 -45 0 0 -11 -3 -20 -7 -20 -10 0 -33 -49 -33 -69 1 -12 5 -11 19 6
21 25 31 21 31 -14 0 -15 9 -27 25 -35 14 -6 25 -20 25 -30 0 -18 1 -18 19 -1
10 10 24 28 30 41 11 20 10 26 -5 36 -14 11 -14 14 -2 18 9 4 19 -5 28 -26 8
-17 19 -37 26 -43 7 -7 14 -16 16 -20 1 -5 17 -16 33 -25 17 -9 37 -30 45 -47
12 -24 22 -31 45 -31 30 0 31 1 31 53 l0 53 -28 -14 c-16 -7 -34 -11 -41 -9
-7 3 -5 6 6 6 9 1 17 6 17 11 0 6 -10 8 -23 5 -39 -10 -61 53 -41 115 7 22 6
24 -9 12 -24 -20 -34 -8 -42 53 -3 31 -12 55 -18 55 -7 1 -1 7 13 15 18 9 29
10 37 3 10 -8 13 -6 13 6 0 9 5 16 10 16 6 0 10 -10 10 -22 1 -20 2 -21 10 -6
11 18 4 48 -11 48 -5 0 -9 7 -9 15 0 8 4 15 10 15 5 0 7 15 5 33 -5 44 -16 77
-25 77 -15 0 -20 49 -8 74 13 31 33 35 25 6 -3 -12 1 -33 9 -48 8 -15 15 -34
15 -42 1 -8 5 5 8 30 l7 45 16 -35 16 -35 -6 40 c-6 47 -30 84 -53 85 -19 0
-31 23 -23 44 4 10 17 13 42 10 20 -2 31 -2 24 2 -6 3 -10 10 -6 15 8 14 41
11 47 -5 7 -18 -3 -56 -14 -56 -5 0 -9 -4 -9 -10 0 -5 6 -10 14 -10 8 0 18
-14 21 -31 6 -24 9 -28 17 -18 8 11 8 10 4 -4 -3 -10 -6 -23 -6 -28 0 -6 -5
-7 -11 -3 -8 4 -9 -3 -4 -27 5 -19 9 -45 10 -59 1 -14 6 -37 10 -52 5 -21 3
-27 -11 -30 -16 -3 -17 -4 -1 -20 9 -9 17 -24 17 -32 0 -9 5 -16 10 -16 6 0
10 -7 10 -15 0 -8 -4 -15 -9 -15 -15 0 -23 -51 -9 -67 7 -8 14 -38 16 -67 1
-28 7 -65 13 -82 5 -18 7 -44 3 -58 l-6 -26 281 0 c250 0 281 2 281 16 0 9 -9
18 -19 21 -11 3 -21 14 -23 26 -2 11 -9 22 -17 25 -11 4 -12 -2 -7 -24 l7 -29
-19 31 c-11 17 -23 41 -27 55 -7 23 -7 23 12 7 11 -10 25 -18 32 -18 6 0 25
-7 41 -15 29 -15 30 -14 36 9 6 27 -2 50 -16 41 -11 -7 -23 27 -12 34 14 9 22
40 12 46 -4 3 -10 -1 -13 -7 -2 -7 -7 -10 -11 -6 -8 7 15 48 26 48 5 0 8 -7 8
-16 0 -14 2 -14 15 0 19 19 19 30 0 22 -8 -3 -15 -4 -15 -3 0 1 -4 17 -10 36
-9 32 -9 33 18 27 15 -4 22 -3 16 1 -6 4 -13 14 -16 22 -3 12 -10 9 -28 -9
-15 -15 -19 -25 -12 -28 7 -2 12 -10 12 -19 0 -13 -2 -13 -15 1 -8 8 -15 24
-15 35 0 12 -4 21 -10 21 -5 0 -10 -4 -10 -9 0 -5 -11 -12 -25 -15 -14 -4 -23
-11 -20 -16 3 -6 1 -10 -5 -10 -7 0 -10 6 -7 14 3 8 1 17 -6 20 -7 3 -2 3 11
0 17 -4 22 -1 20 13 -3 34 2 54 12 48 5 -3 2 7 -7 24 -17 28 -17 31 0 49 10
11 15 26 11 36 -3 9 -1 23 6 31 7 9 8 15 2 15 -5 0 -8 9 -5 20 10 38 28 14 28
-37 0 -43 3 -50 18 -48 12 3 17 -3 17 -21 0 -17 5 -24 20 -24 13 0 20 -7 20
-19 0 -13 8 -21 22 -23 17 -2 23 -10 25 -31 2 -27 -12 -38 -19 -15 -3 9 -6 9
-12 0 -4 -7 -2 -12 3 -12 6 0 11 -7 11 -15 0 -8 4 -15 9 -15 5 0 11 -15 15
-32 5 -24 9 -29 15 -19 7 11 10 10 14 -5 4 -15 5 -13 6 6 1 16 14 35 35 52 26
21 34 35 33 54 -1 15 4 29 11 31 7 3 12 -4 12 -17 0 -12 7 -28 15 -36 18 -18
20 -38 4 -28 -8 5 -10 0 -6 -17 7 -30 -15 -62 -37 -53 -10 4 -15 12 -12 19 3
8 -1 15 -7 18 -17 6 -14 -37 2 -57 11 -13 11 -16 -3 -16 -11 0 -16 -7 -15 -18
4 -30 -12 -52 -37 -52 -15 0 -24 -6 -24 -15 0 -8 4 -15 9 -15 5 0 11 -9 14
-21 6 -22 -24 -42 -31 -20 -6 18 -31 -19 -32 -46 0 -20 5 -23 39 -23 35 0 39
2 33 22 -4 17 -2 20 11 15 11 -4 17 -1 17 8 0 8 5 15 10 15 6 0 10 -6 10 -13
0 -8 8 -21 18 -30 21 -19 52 -23 52 -6 0 5 5 7 10 4 6 -3 10 1 10 9 0 9 4 16
10 16 5 0 6 -7 3 -17 -4 -10 -2 -14 4 -10 6 4 14 1 16 -5 3 -8 6 -5 6 5 1 17
2 17 17 3 21 -21 77 -18 67 4 -4 8 -7 29 -7 45 0 21 -5 31 -15 31 -9 1 -23 3
-31 5 -10 3 -14 -2 -14 -14 2 -14 -1 -15 -12 -6 -8 6 -14 8 -15 3 0 -5 -4 0
-9 11 l-9 20 -1 -20 c-2 -11 -2 -23 -1 -28 0 -4 -3 -7 -9 -7 -5 0 -10 6 -10
13 0 6 -3 23 -7 36 -5 20 -3 23 10 18 21 -8 22 3 2 29 -8 10 -14 26 -14 34 0
10 2 11 6 2 2 -6 9 -10 13 -7 5 3 6 13 3 22 -5 12 -3 14 7 8 10 -6 12 -4 7 8
-7 18 8 33 18 18 3 -6 12 -8 20 -4 11 4 15 -3 16 -23 1 -23 3 -20 11 15 7 30
6 52 -1 68 -7 14 -7 23 -1 23 6 0 10 -5 10 -10 0 -20 45 36 57 70 16 43 16 53
2 45 -6 -4 -5 2 2 13 11 18 10 27 -4 57 -10 20 -14 42 -11 48 4 7 4 9 -1 5 -4
-4 -16 -3 -26 3 -15 8 -19 6 -20 -8 -2 -30 2 -48 14 -55 16 -10 12 -119 -5
-129 -8 -5 -16 -2 -22 9 -5 9 -10 18 -11 20 -1 1 -16 -3 -33 -9 -25 -8 -32
-17 -33 -37 -1 -18 -3 -21 -6 -9 -3 10 -11 30 -18 44 -11 20 -11 30 -3 40 9
11 15 10 34 -8 l23 -22 -12 32 c-7 21 -16 29 -27 26 -17 -5 -46 47 -36 64 4 5
-6 19 -20 30 -23 18 -26 26 -21 63 3 23 2 36 -2 29 -5 -7 -12 -12 -17 -11 -14
2 -17 -31 -5 -43 13 -13 15 -41 2 -33 -5 4 -7 -3 -4 -14 3 -11 8 -18 12 -15 4
2 5 -9 3 -26 -2 -16 -9 -29 -14 -29 -5 0 -6 -5 -3 -10 4 -6 11 -8 16 -5 5 4 9
2 9 -4 0 -5 -6 -12 -12 -14 -7 -3 -2 -6 12 -6 18 -1 21 -4 12 -10 -8 -4 -13
-11 -13 -15 4 -28 -1 -36 -21 -32 -17 2 -24 10 -25 32 -1 16 0 23 3 17 9 -20
23 -15 17 6 -3 12 -11 17 -19 14 -8 -3 -14 0 -14 7 0 6 4 9 9 6 5 -3 11 5 13
19 4 21 2 23 -13 15 -12 -7 -20 -7 -24 0 -4 6 -10 8 -15 5 -4 -3 -10 5 -13 16
-3 12 -10 18 -16 15 -5 -4 -12 3 -16 14 -3 11 -13 20 -21 20 -12 0 -12 4 -4
20 6 11 8 26 3 33 -5 8 -9 4 -14 -13 -7 -23 -7 -24 -8 -3 -1 12 -11 28 -23 34
-13 7 -23 11 -23 10 0 -1 -8 1 -18 4 -21 9 -22 31 -2 39 8 3 15 0 15 -6 0 -6
2 -9 5 -6 9 9 -5 35 -20 35 -8 0 -12 -4 -9 -8 2 -4 0 -10 -5 -14 -14 -8 -51
16 -51 33 0 7 -4 10 -10 7 -5 -3 -10 1 -10 9 0 23 19 20 41 -7 10 -12 18 -16
19 -9 0 6 -4 12 -10 12 -5 0 -10 5 -10 10 0 6 11 10 25 10 22 0 25 4 26 38 0
20 3 32 5 25 7 -17 70 -55 108 -63 24 -6 26 -8 8 -9 -13 -1 -20 -5 -17 -11 4
-6 0 -22 -9 -35 -10 -15 -12 -26 -6 -30 6 -3 10 1 10 9 0 9 6 16 14 16 9 0 12
7 9 20 -4 14 0 20 11 20 9 0 16 -5 16 -11 0 -5 5 -7 10 -4 6 4 8 11 5 16 -11
18 41 9 62 -11 18 -16 22 -17 27 -5 6 15 36 21 36 7 0 -4 9 -8 20 -8 13 0 20
7 20 18 0 15 9 18 51 18 52 0 87 -19 73 -41 -5 -8 -3 -9 5 -4 10 5 11 -4 6
-41 -4 -34 -3 -45 4 -34 5 8 7 18 5 22 -8 12 5 10 20 -4 7 -7 11 -20 8 -30 -6
-25 7 -73 18 -62 4 5 11 45 13 88 5 71 8 81 33 102 31 27 39 29 55 12 7 -9 34
-12 78 -10 62 2 65 2 41 -12 -14 -9 -19 -15 -12 -16 7 0 10 -5 6 -12 -4 -6 -3
-8 3 -5 11 7 35 -15 32 -29 -4 -22 2 -34 16 -34 17 0 20 16 5 25 -5 3 -8 22
-5 41 3 22 0 34 -8 34 -7 0 -4 5 6 11 23 14 31 6 19 -18 -7 -13 -6 -22 4 -31
11 -10 14 -10 14 0 0 6 6 4 13 -7 11 -14 16 -15 22 -5 5 8 4 11 -1 7 -5 -3
-10 3 -10 14 0 19 1 19 13 3 7 -9 10 -20 8 -25 -3 -4 -1 -10 5 -14 18 -11 11
-23 -10 -18 -15 4 -20 0 -20 -16 0 -14 4 -20 12 -15 8 5 9 2 5 -10 -4 -10 -7
-21 -7 -26 0 -4 -10 -6 -22 -2 -14 3 -19 2 -14 -6 4 -7 1 -12 -9 -12 -15 0
-15 -1 -1 -16 17 -17 19 -29 7 -58 -5 -14 -10 -16 -15 -7 -4 6 -2 19 5 27 14
17 7 27 -21 31 -14 2 -18 -2 -14 -12 5 -11 0 -14 -17 -13 -17 2 -23 -1 -19
-12 10 -33 5 -124 -7 -136 -20 -20 -15 -29 6 -10 18 16 19 16 17 -1 0 -10 4
-17 9 -16 6 1 11 -10 10 -25 0 -15 -6 -26 -12 -25 -7 2 -11 -7 -11 -20 1 -12
1 -35 0 -50 -2 -24 -4 -26 -16 -14 -8 7 -16 25 -19 38 -2 13 -5 2 -5 -26 -1
-34 1 -45 7 -36 8 12 11 9 17 -14 l7 -28 18 34 c17 32 18 33 19 9 1 -23 2 -23
10 -5 6 13 9 15 9 5 0 -8 -4 -22 -9 -30 -6 -10 -10 -11 -10 -2 0 26 -20 10
-29 -26 -14 -50 -14 -89 2 -95 9 -4 8 -8 -3 -16 -10 -7 100 -10 364 -11 l378
0 -23 36 c-12 21 -28 60 -34 88 -8 32 -17 50 -25 48 -8 -2 -10 3 -7 13 4 8 2
15 -3 15 -5 0 -7 7 -4 15 4 10 2 13 -8 10 -20 -8 -47 24 -29 34 8 6 9 15 2 33
-5 14 -7 30 -3 34 4 5 -1 2 -11 -6 -17 -13 -19 -12 -15 10 1 14 8 28 13 33 6
5 4 12 -6 20 -22 17 -34 68 -18 78 9 5 10 11 2 21 -12 15 -15 78 -5 94 5 7 14
4 27 -9 11 -11 15 -17 9 -14 -7 4 -17 0 -24 -8 -9 -11 -10 -15 -1 -15 8 0 10
-8 6 -20 -3 -11 1 -30 11 -45 9 -14 14 -34 11 -45 -3 -13 0 -20 10 -20 9 0 13
6 9 15 -3 8 -1 15 4 15 10 0 14 -14 11 -39 -2 -7 2 -10 8 -6 7 3 11 -2 11 -15
0 -11 9 -30 19 -41 19 -21 19 -21 14 22 -3 24 -11 48 -17 52 -7 6 -6 7 3 5 7
-2 22 -26 33 -53 18 -47 49 -93 35 -52 -4 9 -3 17 2 17 4 0 8 13 8 30 0 16 -4
27 -8 25 -4 -3 -9 1 -12 9 -5 11 11 26 27 26 1 0 2 -10 3 -22 1 -11 6 -24 11
-27 8 -5 9 -43 2 -61 -6 -15 -4 -47 3 -64 5 -10 5 -16 0 -13 -4 3 -8 -5 -8
-18 0 -14 5 -21 13 -18 7 3 13 -4 14 -16 0 -12 1 -27 2 -33 1 -7 9 -16 19 -20
14 -6 17 -15 13 -39 -3 -19 1 -41 11 -55 15 -23 20 -24 129 -24 78 0 114 4
114 11 0 8 5 7 15 -1 9 -7 18 -10 22 -6 3 3 2 6 -3 6 -5 0 -9 14 -9 32 0 17
-6 33 -12 35 -7 3 -13 -2 -13 -11 0 -9 -4 -16 -10 -16 -5 0 -10 6 -10 14 0 7
-7 19 -15 26 -23 19 -18 36 10 36 14 0 25 -4 25 -8 0 -4 6 -8 13 -8 6 0 23
-25 36 -55 l23 -55 67 0 c39 0 72 5 79 12 9 9 12 9 12 0 0 -8 19 -12 58 -11
40 0 51 3 37 9 -34 14 -65 50 -64 73 2 22 2 22 6 -1 4 -22 37 -43 75 -47 18
-2 15 8 -10 38 -8 9 -12 17 -7 17 12 0 55 -44 55 -57 0 -27 43 -33 234 -33
150 0 196 3 196 13 0 8 4 7 10 -3 8 -12 10 -10 11 10 l0 25 11 -23 c11 -21 17
-22 130 -22 l118 0 0 26 c0 31 20 28 35 -4 l10 -22 503 0 c448 0 502 2 488 15
-8 8 -18 15 -23 15 -5 0 -20 8 -33 17 -14 10 -35 19 -47 21 -17 2 -20 -1 -16
-19 10 -37 -61 -58 -74 -21 -3 9 -22 33 -42 52 -29 28 -37 44 -39 78 -2 38 0
42 22 42 45 0 96 -29 113 -65 11 -23 29 -39 55 -50 45 -18 58 -19 58 -4 0 5
-4 7 -10 4 -6 -3 -10 4 -10 17 -1 25 -21 58 -37 58 -5 0 -25 8 -44 17 -33 17
-33 17 -10 23 l24 5 -27 13 c-14 6 -56 16 -93 22 -84 14 -219 60 -175 60 18 0
14 27 -4 34 -22 8 -56 7 -51 -1 5 -8 -84 -8 -113 -1 -47 12 -70 24 -115 58
-27 20 -81 54 -120 74 -38 21 -79 46 -90 56 -30 28 -94 52 -120 46 -12 -3 -27
-16 -33 -28 l-11 -23 0 25 c-1 14 -12 35 -26 48 l-24 23 10 -33 c11 -41 12
-38 -4 -38 -7 0 -19 17 -27 38 l-13 37 -12 -27 -11 -28 -17 29 c-19 33 -22 45
-7 36 6 -3 10 2 10 12 0 27 -24 68 -39 68 -8 0 -16 6 -18 13 -3 6 1 12 7 12 7
0 10 7 6 16 -5 14 -4 15 9 4 12 -10 15 -10 15 4 0 10 5 14 10 11 6 -4 8 -10 5
-14 -2 -5 7 -13 20 -19 18 -8 25 -20 25 -39 1 -41 22 -74 40 -63 11 7 12 13 2
35 -7 14 -12 39 -12 55 0 35 -21 90 -27 73 -3 -7 -14 -13 -25 -13 -19 0 -19 1
4 33 17 23 23 46 23 84 0 71 11 57 18 -25 4 -37 18 -99 31 -137 13 -39 27 -83
31 -99 l6 -29 44 43 c42 42 47 44 97 41 73 -4 157 -37 168 -66 12 -32 103
-102 148 -114 20 -6 62 -17 93 -26 40 -10 66 -25 86 -47 42 -48 53 -55 127
-83 l67 -25 30 30 c17 16 31 30 33 30 1 0 1 -25 1 -56 l0 -55 55 -20 c30 -10
63 -19 73 -19 10 0 52 -11 94 -25 77 -26 137 -66 242 -162 l58 -53 881 0 882
0 0 1650 0 1650 -30 0 c-16 0 -30 -4 -30 -8 0 -12 -56 -42 -79 -42 -16 0 -21
6 -21 27 0 26 -1 26 -14 8 -8 -11 -12 -23 -10 -27 3 -5 0 -8 -6 -8 -5 0 -18
12 -28 28 -17 27 -17 27 -77 16 -39 -7 -53 -13 -40 -16 12 -3 3 -6 -22 -7 -23
0 -48 -7 -55 -14 -7 -7 -25 -18 -40 -24 -16 -7 -28 -19 -28 -26 0 -8 -10 -13
-21 -13 -16 1 -25 -9 -36 -39 -23 -67 -32 -62 -30 18 1 41 0 74 -2 72 -2 -2
-24 4 -50 14 -35 14 -400 165 -478 198 -10 4 -13 -23 -13 -117 l0 -122 40 -15
c22 -9 37 -20 33 -26 -3 -6 -1 -7 6 -3 12 8 51 -1 51 -12 0 -4 -14 -13 -30
-19 -23 -8 -28 -8 -23 0 4 6 -6 2 -21 -11 -16 -12 -35 -22 -42 -22 -14 0 -19
-73 -15 -195 1 -25 -2 -35 -8 -27 -6 11 -20 11 -66 3 -33 -6 -64 -7 -73 -2
-10 5 -26 5 -37 0 -18 -7 -17 -8 7 -8 20 -1 26 -5 22 -16 -8 -19 -44 -19 -72
1 -12 8 -22 11 -22 4 0 -7 -7 -6 -19 2 -17 10 -23 9 -40 -6 -19 -17 -21 -17
-21 -3 0 10 -4 17 -9 17 -5 0 -11 6 -14 13 -2 6 -2 0 0 -15 2 -14 -1 -29 -7
-33 -15 -9 -40 13 -41 39 -1 17 -2 17 -6 4 -3 -14 -14 -18 -46 -17 -30 2 -34
3 -14 6 45 7 30 22 -20 20 -27 -1 -56 2 -65 7 -16 7 -18 3 -18 -33 0 -43 -14
-55 -25 -21 -6 18 -8 19 -35 5 -26 -13 -28 -13 -33 5 -6 23 -27 27 -27 5 0
-10 -10 -15 -33 -15 -34 0 -58 -18 -70 -53 -9 -26 -35 -32 -56 -13 -10 9 -23
16 -29 16 -7 0 -12 5 -12 10 0 6 -8 10 -17 10 -17 -1 -17 -1 0 -14 23 -18 22
-24 -5 -23 -13 0 -31 -3 -40 -7 -13 -6 -18 -4 -18 8 0 21 -7 20 -37 -4 -33
-26 -45 -25 -41 3 2 18 -2 23 -26 25 -18 2 -26 0 -21 -7 3 -6 2 -11 -2 -11 -5
0 -14 -15 -22 -32 -12 -32 -13 -33 -23 -10 -6 12 -18 22 -27 22 -9 0 -27 3
-41 6 -19 4 -22 3 -10 -5 12 -9 12 -11 -3 -17 -21 -8 -22 -24 -2 -24 8 0 15
-6 15 -13 0 -9 -22 -19 -55 -26 -51 -12 -76 -31 -39 -31 12 0 15 -6 10 -25 -5
-18 -3 -23 8 -19 19 7 31 -15 17 -29 -9 -9 -14 -9 -20 2 -6 9 -11 10 -15 2 -4
-6 -4 -15 -1 -21 3 -5 -3 -10 -13 -10 -11 0 -23 -8 -27 -17 -7 -17 -8 -17 -14
1 -6 17 -9 15 -20 -12 -9 -20 -21 -32 -32 -32 -11 0 -28 -6 -39 -12 -17 -11
-22 -9 -35 10 -18 24 -41 29 -48 10 -4 -10 -6 -10 -6 0 -1 7 -15 12 -36 12
-28 0 -35 4 -35 20 0 26 -16 26 -30 0 -6 -11 -18 -20 -27 -20 -10 0 -14 -6
-10 -20 5 -21 -7 -28 -18 -10 -4 6 -14 5 -28 -3 -36 -21 -47 -35 -41 -54 5
-15 4 -15 -5 -3 -7 10 -11 11 -11 3 0 -26 -18 -12 -25 20 -5 22 -9 26 -12 14
-2 -9 1 -34 8 -55 7 -20 12 -43 10 -51 -1 -7 2 -10 8 -6 6 3 12 -2 12 -12 4
-40 6 -49 16 -73 6 -14 9 -28 6 -32 -2 -5 0 -8 6 -8 12 0 32 -66 25 -84 -3 -7
2 -18 10 -25 16 -13 10 -54 -8 -48 -6 2 -16 14 -23 28 -28 58 -142 369 -153
418 -8 32 -15 48 -20 41 -5 -8 -10 0 -15 21 -28 135 -38 173 -44 156 -5 -12
-11 3 -20 45 -17 84 -51 164 -62 146 -5 -7 -9 -26 -9 -43 -1 -16 -14 22 -31
85 -37 142 -64 191 -121 219 -60 28 -173 35 -257 16 -116 -28 -145 -33 -203
-40 -32 -4 -58 -12 -58 -17 0 -5 -15 -9 -32 -7 -18 1 -69 1 -114 0 -73 -1 -83
-4 -112 -30 -24 -21 -39 -27 -60 -23 l-27 5 24 -27 c29 -31 23 -33 -27 -7 -64
32 -138 43 -201 30 -42 -9 -51 -13 -36 -19 14 -5 9 -8 -24 -13 -46 -6 -81 8
-81 31 0 8 -5 10 -12 6 -7 -4 4 11 24 32 41 43 68 99 68 141 l0 28 -25 -30
c-23 -29 -24 -29 -25 -7 0 15 -4 21 -12 16 -13 -8 -9 -2 34 62 33 49 37 67 8
33 -14 -16 -9 -1 14 46 l34 70 0 185 c1 101 -3 187 -8 190 -13 8 -14 31 -6 93
10 74 0 138 -20 130 -12 -4 -14 20 -14 153 0 88 5 201 10 252 5 50 11 112 12
137 l1 45 1287 0 1286 0 55 28 c35 17 64 42 84 70 l30 44 3 268 c3 258 2 271
-19 319 -23 55 -72 100 -128 119 -24 9 -200 12 -608 12 -626 0 -614 -1 -676
58 -64 60 -71 88 -74 302 -3 217 -11 255 -66 308 -66 64 -40 62 -894 62 l-774
0 -47 24 c-95 48 -387 121 -568 142 -58 7 -68 13 -58 38 5 12 16 14 57 10 29
-3 68 -7 87 -9 19 -2 35 -4 35 -5 0 -2 32 -8 83 -15 37 -5 72 -15 94 -26 4 -2
14 5 23 16 10 14 13 15 9 4 -3 -10 1 -19 10 -22 11 -4 13 -1 9 11 -5 13 0 11
19 -6 l25 -23 1 33 c1 25 -2 29 -9 18 -9 -12 -10 -10 -6 7 3 15 1 20 -9 16 -8
-3 -11 -10 -7 -16 4 -6 1 -7 -6 -2 -9 5 -7 13 8 29 12 12 21 29 21 37 1 8 11
27 24 43 l23 28 3 -68 c4 -109 3 -104 17 -92 7 6 11 14 8 18 -3 4 2 10 10 14
8 3 14 16 14 28 -1 17 -2 18 -6 6 -2 -10 -9 -18 -14 -18 -11 0 -11 3 2 37 8
21 7 30 -4 38 -20 15 -36 89 -40 190 -3 87 0 84 21 -20 17 -83 38 -130 61
-133 18 -3 21 2 22 30 2 75 1 94 -6 112 -6 14 -5 17 4 12 17 -11 6 120 -13
149 -10 15 -13 36 -9 65 5 36 4 42 -9 37 -22 -8 -28 1 -18 28 7 18 5 25 -7 29
-8 4 -13 13 -9 21 8 21 -26 125 -41 125 -15 0 -27 36 -17 51 4 8 3 9 -4 5 -7
-4 -12 -1 -12 9 0 9 -4 13 -10 10 -5 -3 -10 -1 -10 4 0 6 5 11 10 11 6 0 10 5
10 11 0 5 -4 8 -9 5 -9 -6 -71 115 -71 139 0 7 -7 15 -15 19 -8 3 -23 22 -33
43 -9 21 -21 41 -27 45 -5 4 -10 19 -11 35 -1 15 -3 31 -3 36 -1 4 -7 7 -14 7
-7 0 -29 14 -47 30 -33 29 -57 40 -45 20 3 -6 -1 -7 -10 -4 -9 4 -14 13 -11
21 3 8 2 11 -4 8 -5 -3 -14 4 -20 15 -6 11 -14 19 -18 18 -16 -3 -41 15 -35
25 3 5 1 7 -4 4 -6 -4 -30 2 -54 12 -56 24 -80 30 -101 24z m357 -445 c4 -18
15 -42 25 -53 9 -11 27 -54 38 -95 11 -41 32 -106 46 -145 14 -38 26 -86 26
-105 1 -27 3 -31 9 -15 5 13 10 0 14 -44 4 -35 11 -69 15 -75 5 -6 5 -24 1
-41 l-7 -30 -2 35 c-1 19 -4 27 -7 18 -9 -37 -22 -15 -34 58 -9 53 -18 78 -31
85 -10 5 -18 18 -18 27 0 10 -7 45 -16 77 -9 33 -20 80 -25 105 -11 66 -32
144 -39 150 -3 3 -6 14 -7 25 0 11 -3 28 -8 38 -4 10 -3 17 3 17 6 0 14 -15
17 -32z m-542 -845 c31 -3 57 -10 57 -15 0 -5 35 -8 85 -6 79 3 85 2 95 -20
14 -32 -6 -37 -93 -23 -40 7 -97 15 -127 17 -76 6 -173 24 -191 35 -26 17 11
30 66 24 28 -3 76 -8 108 -12z m-1163 -433 l0 -40 -50 0 -50 0 0 -175 0 -175
-50 0 -50 0 0 175 0 175 -50 0 -50 0 0 40 0 40 150 0 150 0 0 -40z m368 -168
c45 -114 82 -210 82 -214 0 -5 -22 -8 -49 -8 -48 0 -48 0 -65 45 l-18 45 -82
0 -82 0 -15 -42 c-16 -42 -17 -43 -67 -46 -29 -2 -52 -1 -52 2 0 6 122 312
154 389 16 35 18 37 64 37 l47 0 83 -208z m232 51 c-1 -87 -1 -164 -1 -170 1
-9 22 -13 71 -13 39 0 70 -4 71 -10 0 -5 1 -25 2 -42 l1 -33 -122 -3 -122 -3
0 216 0 215 51 0 50 0 -1 -157z m320 -13 l0 -169 73 -3 72 -3 3 -42 3 -43
-125 0 -126 0 0 215 0 215 50 0 50 0 0 -170z m470 130 l0 -40 -75 0 -75 0 0
-45 0 -45 70 0 70 0 0 -46 0 -45 -47 1 c-95 3 -93 4 -93 -40 l0 -39 73 -3 72
-3 3 -42 3 -43 -125 0 -126 0 0 215 0 215 125 0 125 0 0 -40z m309 26 c37 -20
51 -39 61 -81 11 -51 -5 -99 -45 -132 l-34 -28 69 -84 c39 -46 70 -85 70 -87
0 -2 -26 -4 -59 -4 l-58 0 -64 81 -64 82 -3 -82 -3 -81 -49 0 -50 0 0 215 0
215 100 0 c68 0 110 -5 129 -14z m580 -6 c59 -29 78 -106 45 -176 -20 -42 -83
-74 -147 -74 l-47 0 0 -80 0 -80 -50 0 -50 0 0 215 0 215 105 0 c85 0 113 -4
144 -20z m433 -180 c43 -107 81 -203 84 -213 5 -16 0 -18 -47 -15 -52 3 -53 3
-67 46 l-14 42 -82 0 -83 0 -17 -45 c-18 -45 -18 -45 -67 -45 -27 0 -49 3 -49
7 0 4 37 101 83 216 l82 208 49 -3 50 -3 78 -195z m372 181 c16 -11 35 -30 42
-43 29 -52 6 -148 -40 -170 -15 -6 -26 -15 -26 -20 0 -11 131 -168 139 -168 4
0 44 95 91 210 l84 210 47 0 c28 0 49 -5 52 -12 3 -7 41 -103 86 -212 45 -109
81 -200 81 -202 0 -2 -24 -4 -54 -4 l-53 0 -13 45 -13 46 -85 -3 -85 -3 -16
-42 -15 -43 -116 0 -115 0 -60 80 c-33 44 -63 80 -67 80 -5 0 -8 -36 -8 -80
l0 -80 -50 0 -50 0 0 215 0 215 108 0 c89 0 112 -3 136 -19z m76 -711 c63 -18
66 -23 45 -70 -13 -30 -23 -39 -34 -34 -44 18 -73 21 -107 14 -53 -12 -87 -41
-102 -85 -16 -48 -3 -90 39 -131 26 -25 38 -29 87 -29 31 0 66 3 78 8 17 6 23
1 37 -28 21 -45 22 -42 -11 -59 -145 -75 -342 38 -342 197 0 153 155 261 310
217z m-4696 -62 c46 -111 146 -361 146 -364 0 -2 -24 -4 -53 -4 l-53 0 -14 43
-15 42 -84 0 -84 0 -14 -42 -15 -43 -54 0 -54 0 16 38 c8 20 47 117 86 215
l71 177 48 0 47 0 26 -62z m433 45 c59 -27 80 -109 47 -179 -20 -42 -83 -74
-147 -74 l-47 0 0 -80 0 -80 -50 0 -50 0 0 208 c0 115 3 212 7 215 3 4 51 7
106 7 72 0 109 -5 134 -17z m371 -3 c72 -44 70 -163 -4 -217 l-26 -19 58 -70
c31 -38 64 -77 72 -86 14 -17 11 -18 -49 -18 l-64 1 -60 81 -60 81 -3 -81 -3
-82 -49 0 -50 0 0 215 0 215 103 0 c84 0 108 -4 135 -20z m412 -20 l0 -40 -75
0 -75 0 0 -45 0 -45 71 0 70 0 -3 -42 -3 -43 -68 0 -67 0 0 -42 0 -42 73 -3
72 -3 3 -42 3 -43 -125 0 -126 0 0 215 0 215 125 0 125 0 0 -40z m264 -92 l86
-133 0 133 0 132 50 0 50 0 0 -216 0 -215 -52 3 -52 3 -80 127 c-45 69 -83
125 -85 123 -2 -2 -3 -60 -2 -129 l2 -126 -50 0 -51 0 0 215 0 215 49 0 49 0
86 -132z m492 113 c152 -69 163 -287 20 -376 -45 -27 -59 -30 -148 -33 l-98
-4 0 216 0 216 93 0 c68 0 103 -5 133 -19z m435 -1 c1 -11 2 -28 3 -37 1 -15
-10 -19 -73 -23 l-75 -5 0 -40 -1 -40 73 -3 73 -3 -3 -42 -3 -42 -70 -3 -70
-3 3 -39 4 -40 69 0 69 0 0 -45 0 -45 -120 0 -120 0 0 215 0 215 120 0 c113 0
120 -1 121 -20z m319 5 c78 -40 80 -167 4 -222 l-26 -19 58 -70 c31 -38 64
-77 72 -86 14 -17 11 -18 -47 -18 l-61 0 -63 79 -62 80 -3 -80 -3 -79 -49 0
-50 0 0 215 0 215 100 0 c71 0 110 -5 130 -15z m641 -200 l86 -215 -53 0 -52
0 -18 45 -17 45 -79 0 -79 0 -20 -45 c-20 -45 -20 -45 -69 -45 -28 0 -50 3
-50 6 0 4 130 330 160 402 8 18 17 22 57 22 l48 0 86 -215z m517 196 c141 -73
165 -261 46 -359 -49 -41 -89 -52 -186 -52 l-78 0 0 215 0 215 90 0 c70 0 99
-4 128 -19z m432 -21 l0 -40 -70 0 c-39 0 -71 -4 -71 -10 -1 -5 -1 -21 -1 -35
0 -14 0 -29 1 -35 0 -6 32 -10 72 -10 l70 0 -3 -42 -3 -43 -70 -5 -70 -5 0
-38 0 -37 73 0 72 0 0 -45 0 -45 -120 0 -120 0 0 215 0 215 120 0 120 0 0 -40z
m748 20 c72 -44 70 -163 -4 -217 l-26 -19 58 -70 c31 -38 64 -77 72 -86 14
-17 11 -18 -46 -18 l-62 0 -61 78 c-33 42 -64 78 -67 80 -4 1 -6 -34 -4 -78
l4 -80 -51 0 -51 0 0 215 0 215 103 0 c84 0 108 -4 135 -20z m407 -20 l0 -40
-71 0 -72 0 -4 -45 -3 -45 73 0 73 0 -3 -42 c-3 -42 -4 -43 -38 -44 -107 -4
-98 0 -102 -44 l-4 -40 73 0 73 0 0 -45 0 -45 -120 0 -120 0 0 215 0 215 123
0 122 0 0 -40z m355 0 l0 -40 -50 0 -50 0 0 -175 0 -175 -50 0 -50 0 0 175 0
175 -50 0 -50 0 0 40 0 40 150 0 150 0 0 -40z m368 -168 c45 -114 82 -210 82
-214 0 -5 -22 -8 -49 -8 -48 0 -48 0 -65 45 l-18 45 -79 0 -80 0 -20 -45 c-20
-45 -20 -45 -69 -45 -28 0 -50 2 -50 5 0 6 160 405 167 418 2 4 25 7 51 7 l47
0 83 -208z m361 194 c37 -20 51 -39 61 -81 11 -51 -5 -99 -45 -132 l-34 -28
69 -84 c39 -46 70 -85 70 -87 0 -2 -26 -4 -58 -4 l-58 0 -65 82 -64 81 -3 -81
-3 -82 -49 0 -50 0 0 215 0 215 100 0 c68 0 110 -5 129 -14z m1206 -2098 l195
-81 0 -37 c0 -36 -2 -38 -52 -58 -29 -11 -118 -48 -196 -81 -79 -34 -148 -61
-153 -61 -14 0 -11 86 4 98 6 5 65 29 130 53 64 24 117 46 117 49 0 3 -57 28
-128 55 l-127 50 -3 48 c-2 27 1 47 7 47 6 0 98 -37 206 -82z m-3115 -443 l0
-245 -35 0 c-24 0 -37 6 -45 20 -11 20 -11 20 -40 -1 -34 -26 -96 -30 -135 -9
-65 35 -91 189 -47 276 37 73 123 92 187 43 l25 -20 0 90 0 91 45 0 45 0 0
-245z m-3340 -22 c0 -212 -3 -243 -19 -280 -24 -51 -63 -73 -131 -73 l-50 0 0
40 c0 40 0 40 40 40 29 0 42 5 50 19 6 12 10 110 10 249 0 126 3 232 7 235 3
4 26 7 50 7 l43 0 0 -237z m2350 7 l0 -230 -51 0 -51 0 4 175 c2 96 1 175 -1
175 -2 0 -19 -13 -38 -30 -41 -37 -48 -37 -69 -4 -19 28 -22 24 65 93 52 42
71 51 102 51 l39 0 0 -230z m360 215 c62 -32 96 -150 80 -282 -14 -113 -63
-166 -154 -166 -109 0 -156 71 -156 232 0 109 13 156 55 198 30 30 39 33 89
33 32 0 70 -7 86 -15z m-1950 -110 c38 -20 60 -63 67 -131 l6 -54 -117 0
c-117 0 -117 0 -110 -22 10 -34 32 -55 62 -61 27 -5 91 4 125 18 14 6 17 2 17
-29 0 -46 -26 -58 -122 -59 -73 0 -116 18 -151 65 -22 30 -34 115 -23 173 9
45 58 102 100 115 39 12 107 5 146 -15z m752 -7 c39 -28 58 -69 58 -128 l0
-50 -110 0 c-98 0 -110 -2 -110 -17 1 -25 22 -51 53 -62 25 -10 114 0 138 14
5 4 9 -12 9 -34 0 -38 -2 -40 -37 -48 -106 -21 -197 5 -236 66 -41 66 -25 207
27 250 52 43 155 48 208 9z m355 8 c20 -10 20 -13 8 -43 l-13 -31 -51 14 c-37
11 -55 12 -70 4 -30 -15 -17 -34 42 -60 80 -37 107 -66 107 -116 0 -60 -30
-91 -97 -104 -34 -6 -71 -6 -104 0 -29 6 -53 10 -55 10 -2 0 -4 18 -4 41 0 35
3 40 17 34 50 -19 113 -26 133 -15 35 19 19 42 -52 77 -36 18 -74 43 -82 55
-40 56 -3 134 70 148 45 9 120 2 151 -14z m1808 -4 c39 -23 65 -76 65 -134 l0
-48 -110 0 c-103 0 -110 -1 -110 -20 0 -23 33 -59 55 -61 8 -1 21 -2 28 -3 16
-2 77 9 100 19 14 6 17 1 17 -33 0 -39 -2 -41 -37 -49 -69 -14 -150 -6 -189
18 -63 39 -90 136 -64 230 26 92 152 134 245 81z m-3475 -100 c0 -90 4 -123
16 -140 22 -31 67 -29 93 4 18 23 21 41 21 140 l0 114 50 0 50 0 0 -175 0
-175 -40 0 c-33 0 -40 3 -40 20 0 25 -4 25 -40 -2 -37 -27 -117 -29 -155 -4
-39 25 -45 54 -45 202 l0 134 45 0 45 0 0 -118z m797 -2 c21 -66 40 -119 43
-120 3 0 22 54 43 120 l38 120 51 0 c44 0 49 -2 43 -17 -3 -10 -31 -81 -60
-158 -29 -77 -56 -148 -60 -157 -5 -14 -19 -18 -55 -18 -36 0 -50 4 -55 18 -4
9 -31 80 -60 157 -29 77 -57 148 -60 158 -6 15 -1 17 43 17 l50 0 39 -120z
m1053 -875 l0 -245 -50 0 -50 0 0 238 c0 131 3 242 7 245 3 4 26 7 50 7 l43 0
0 -245z m1800 153 c0 -87 1 -90 18 -75 50 46 135 42 183 -9 23 -24 24 -33 27
-170 l4 -144 -51 0 -51 0 0 124 c0 100 -3 128 -16 140 -21 21 -57 20 -85 -3
-22 -18 -24 -27 -27 -140 l-4 -121 -43 0 c-54 0 -51 -16 -47 273 l3 217 44 0
45 0 0 -92z m-4507 -157 c42 -121 77 -224 77 -230 0 -6 -20 -11 -48 -11 l-48
0 -18 55 -17 55 -83 0 -82 0 -18 -55 -17 -55 -50 0 c-27 0 -49 3 -49 8 0 7
125 364 149 425 10 25 14 27 68 27 l58 0 78 -219z m3897 -11 l0 -230 -50 0
-50 0 0 175 0 176 -40 -32 -41 -33 -26 26 -25 26 76 61 c65 51 84 61 117 61
l39 0 0 -230z m360 207 c50 -33 72 -78 78 -157 8 -117 -32 -221 -98 -255 -40
-21 -129 -37 -162 -29 -24 5 -28 11 -28 40 l0 34 51 0 c28 0 66 7 84 16 34 16
65 65 65 103 0 21 0 21 -20 1 -43 -43 -126 -38 -173 9 -23 22 -31 41 -35 80
-6 64 2 92 35 131 33 40 54 49 119 49 37 1 60 -5 84 -22z m-2940 -52 l0 -35
50 0 50 0 0 -35 0 -35 -50 0 -50 0 0 -88 c0 -109 10 -127 66 -120 39 5 40 5
39 -29 0 -37 -17 -47 -80 -47 -96 0 -115 30 -115 179 l0 105 -25 0 c-35 0 -34
36 1 52 15 7 32 28 41 50 13 32 20 38 44 38 26 0 29 -3 29 -35z m-949 -35 c66
0 69 -1 69 -24 0 -17 -7 -26 -24 -30 -21 -5 -23 -10 -19 -49 3 -25 0 -54 -7
-66 -19 -36 -70 -61 -123 -61 -34 0 -49 -5 -54 -15 -9 -25 3 -30 92 -36 95 -6
121 -21 131 -74 9 -51 -17 -99 -68 -124 -58 -27 -176 -29 -227 -3 -61 30 -67
107 -11 141 27 16 28 19 15 37 -20 26 -18 48 5 69 19 18 19 18 -5 47 -45 53
-27 153 32 176 44 17 66 21 97 16 16 -2 59 -4 97 -4z m369 -20 c42 -30 58 -53
71 -100 36 -136 -62 -256 -191 -234 -83 15 -129 69 -137 163 -12 128 70 210
192 194 22 -3 51 -13 65 -23z m329 19 c60 -13 67 -21 51 -58 l-11 -28 -49 14
c-37 11 -54 12 -70 3 -32 -17 -21 -32 49 -65 76 -37 101 -65 101 -114 -1 -69
-51 -104 -150 -104 -97 0 -110 6 -110 55 0 33 3 39 16 34 55 -21 106 -28 130
-18 42 20 30 39 -46 77 -81 40 -100 61 -100 110 0 49 29 83 82 95 47 11 51 11
107 -1z m666 -18 c94 -53 102 -239 14 -303 -38 -28 -96 -39 -149 -27 -81 18
-122 77 -122 174 0 66 15 106 55 144 47 43 138 48 202 12z m565 1 c43 -32 50
-58 50 -199 l0 -133 -35 0 c-29 0 -36 4 -41 26 l-6 25 -23 -21 c-42 -39 -124
-48 -166 -17 -40 30 -52 108 -23 152 19 29 56 43 138 51 60 6 63 8 58 31 -7
38 -40 48 -101 30 l-51 -15 -15 31 c-8 17 -13 32 -10 35 2 3 26 11 52 18 60
17 140 10 173 -14z m750 0 c43 -32 50 -58 50 -199 l0 -133 -35 0 c-19 0 -35 3
-35 8 0 4 -4 13 -9 21 -7 11 -14 9 -38 -9 -19 -13 -46 -22 -75 -23 -79 -3
-118 34 -118 111 0 70 34 94 153 108 52 6 57 9 57 30 0 38 -37 49 -99 31 l-51
-15 -15 31 c-8 17 -13 32 -10 35 2 3 26 11 52 18 60 17 140 10 173 -14z m362
7 c26 -11 27 -11 11 -44 l-15 -32 -49 14 c-37 11 -53 12 -69 3 -32 -17 -21
-32 49 -65 75 -37 101 -65 101 -112 0 -73 -47 -107 -150 -106 -98 0 -110 6
-110 55 0 33 3 39 16 34 55 -21 106 -28 130 -18 42 20 30 39 -53 80 -71 37
-93 62 -93 112 0 82 120 122 232 79z m1636 0 c25 -10 27 -18 11 -52 -11 -24
-12 -24 -58 -10 -105 32 -122 -15 -22 -62 72 -35 101 -65 101 -106 0 -76 -50
-112 -154 -112 -90 0 -111 10 -114 58 -2 32 0 36 14 31 82 -32 154 -28 154 8
0 17 -16 30 -74 58 -66 33 -76 41 -85 74 -24 86 44 140 159 127 25 -3 55 -10
68 -14z m-1400 -63 c26 -37 29 -45 16 -48 -14 -3 -13 -6 5 -22 22 -20 22 -20
16 0 -3 10 4 -1 15 -26 13 -28 17 -46 11 -48 -13 -4 -4 -22 11 -22 6 0 8 11 6
25 -3 14 -1 25 3 25 5 0 9 -18 9 -39 0 -36 -2 -39 -22 -34 -13 3 -31 6 -40 6
-9 1 -14 5 -12 9 8 13 -49 87 -70 90 -24 4 -42 58 -20 58 19 0 18 17 -2 28
-14 8 -14 11 7 26 13 9 26 16 30 16 3 0 20 -20 37 -44z m-822 -361 c20 -25 42
-45 47 -45 6 0 2 9 -8 20 -12 13 -14 20 -5 20 7 0 10 7 6 16 -5 12 0 15 19 12
14 -2 24 -5 23 -8 -1 -3 5 -16 15 -30 9 -13 17 -32 17 -42 0 -21 28 -50 41
-43 5 4 9 -1 9 -9 0 -9 5 -16 10 -16 6 0 10 5 10 11 0 6 7 9 15 5 9 -3 15 0
15 10 0 8 5 12 10 9 6 -4 10 5 10 21 0 24 -3 26 -28 21 -23 -5 -33 0 -55 28
-15 19 -27 38 -27 42 0 9 217 6 318 -3 56 -6 67 -12 63 -36 0 -5 4 -8 10 -8 8
0 7 -6 -2 -17 -11 -13 -11 -17 -1 -20 6 -3 12 -11 12 -18 0 -15 27 -28 41 -19
5 3 9 2 8 -3 -5 -28 3 -43 24 -44 12 0 16 -3 10 -6 -19 -7 -17 -63 2 -63 8 0
12 -6 9 -14 -3 -9 3 -17 15 -21 21 -6 29 -25 11 -25 -5 0 -10 5 -10 10 0 6 -6
10 -14 10 -8 0 -17 6 -19 13 -4 8 -6 9 -6 0 -1 -6 13 -27 29 -45 22 -24 30
-28 30 -15 0 9 8 17 18 17 10 0 13 3 6 8 -12 8 -34 46 -34 59 0 4 4 2 9 -6 8
-13 12 -13 26 -1 15 13 17 11 13 -10 -2 -21 1 -25 20 -23 13 2 21 -1 18 -6 -7
-10 29 -53 37 -45 3 4 0 13 -8 21 -8 8 -15 22 -15 31 1 14 3 13 13 -4 7 -12
19 -20 28 -19 12 2 15 -3 12 -16 -7 -24 -37 -33 -62 -17 -11 7 -24 8 -28 4 -4
-5 -2 -11 5 -13 10 -4 8 -9 -5 -20 -17 -13 -17 -14 0 -9 19 6 24 -9 6 -20 -7
-4 -21 -7 -33 -8 -28 -1 -28 -25 2 -58 l24 -26 -21 -14 c-11 -7 -21 -16 -21
-21 0 -4 4 -6 9 -2 6 3 16 -2 23 -10 43 -52 79 -74 58 -36 -17 32 -11 38 11
12 23 -28 62 -40 53 -17 -5 14 32 33 43 23 9 -9 -17 -46 -37 -52 -11 -3 -20
-11 -20 -16 0 -12 -32 -8 -42 6 -5 6 -11 5 -17 -5 -9 -12 -12 -12 -28 1 -10 9
-25 20 -33 24 -12 6 -13 5 -2 -6 6 -7 11 -27 11 -43 -1 -24 -3 -26 -6 -8 -2
12 -8 20 -13 17 -4 -3 -11 11 -14 30 -5 23 -14 36 -29 41 -18 6 -19 8 -5 13
15 5 15 8 -3 30 -17 21 -22 22 -30 10 -5 -8 -9 -9 -9 -2 0 6 -17 30 -39 53
-31 33 -44 41 -67 38 -26 -3 -29 0 -32 30 -3 25 0 32 14 32 13 0 15 3 7 11 -6
6 -9 18 -6 25 3 8 0 14 -6 14 -6 0 -11 -4 -11 -10 0 -5 -16 -2 -35 7 -26 13
-34 21 -29 35 3 10 1 18 -5 18 -6 0 -11 -6 -11 -12 -1 -7 -8 -1 -16 15 -15 29
-30 37 -20 12 3 -9 0 -15 -8 -15 -8 0 -19 -12 -25 -27 l-11 -28 5 27 c4 20 0
30 -13 37 -26 14 -60 10 -67 -7 -3 -9 0 -12 9 -9 10 4 13 1 9 -9 -3 -7 0 -14
6 -14 6 0 11 -7 11 -16 0 -8 7 -23 16 -31 12 -12 12 -18 3 -23 -16 -11 0 -33
18 -25 13 4 14 3 3 -10 -11 -13 -10 -18 4 -28 14 -10 -18 -12 -164 -9 l-180 3
0 -30 c0 -16 -4 -32 -9 -35 -5 -3 -8 2 -7 11 1 12 -7 18 -22 19 -34 2 -35 8
-7 40 19 22 25 25 25 12 0 -31 34 -17 36 15 2 20 -12 23 -19 5 -2 -7 -3 7 -2
32 3 65 -1 70 -56 70 -40 0 -49 3 -49 18 0 14 -2 15 -10 2 -13 -20 -13 1 0 34
8 23 12 25 37 15 27 -10 27 -10 9 10 -17 18 -17 21 -3 27 12 4 14 11 6 31 -5
13 -6 30 -2 36 4 7 9 21 10 32 2 11 10 25 18 31 8 6 15 19 15 29 0 16 26 44
41 45 4 0 24 -20 45 -45z m1424 0 c8 -16 22 -36 30 -43 11 -10 12 -15 3 -18
-9 -4 -7 -15 7 -42 11 -20 20 -44 20 -53 0 -9 7 -22 15 -29 8 -7 15 -19 15
-26 0 -19 13 -17 37 5 12 11 24 17 28 13 17 -17 35 -78 35 -119 0 -24 5 -53
11 -65 16 -29 1 -36 -18 -7 -9 13 -39 44 -65 68 -26 24 -48 50 -48 58 0 7 -8
13 -18 13 -10 0 -23 5 -30 12 -19 19 -23 5 -7 -26 18 -35 18 -36 0 -36 -19 0
-19 -9 0 -30 11 -12 13 -24 7 -40 -8 -22 -9 -21 -25 13 -9 19 -17 41 -17 49 0
8 -3 18 -7 22 -15 15 -18 115 -4 129 8 8 11 7 11 -3 0 -7 3 -11 6 -8 9 10 -16
49 -27 43 -5 -4 -12 0 -15 8 -3 8 -13 13 -22 10 -9 -2 -27 5 -39 16 -25 24
-43 27 -43 9 0 -7 -11 11 -25 40 -14 30 -25 56 -25 58 0 2 11 4 25 4 23 0 65
-34 65 -52 0 -4 8 -8 18 -8 10 0 22 -4 28 -9 15 -15 81 -24 88 -12 4 6 0 11
-9 11 -8 0 -18 7 -21 15 -4 8 -17 15 -30 15 -14 0 -24 6 -24 14 0 9 -8 13 -22
10 -17 -3 -16 -1 7 11 42 20 67 15 85 -20z m228 2 c35 -37 54 -105 58 -204 1
-51 8 -102 15 -115 7 -12 15 -37 20 -55 6 -31 5 -33 -20 -33 -26 0 -27 3 -28
50 0 28 -6 57 -13 65 -9 11 -9 22 1 50 10 28 11 40 1 55 -6 11 -9 26 -6 34 3
9 -3 19 -16 26 l-22 12 20 21 20 22 -24 18 c-13 10 -24 13 -24 7 0 -6 -4 -8
-10 -5 -5 3 -10 1 -10 -5 0 -6 7 -13 15 -17 14 -5 14 -8 0 -29 -12 -18 -13
-29 -5 -43 5 -11 14 -31 20 -45 8 -23 7 -26 -10 -26 -15 0 -20 7 -20 25 0 13
-10 43 -21 65 -12 23 -19 50 -16 62 3 11 -1 34 -9 49 -19 38 -19 39 24 39 27
0 45 -7 60 -23z m-3572 -13 c-3 -9 -6 -20 -6 -25 0 -6 -4 -7 -10 -4 -12 7 -13
-5 -2 -23 6 -9 12 -5 20 13 7 16 17 23 24 19 7 -5 8 -3 3 6 -4 7 -2 16 6 21
21 13 24 11 25 -16 1 -14 -3 -25 -10 -25 -18 0 -61 -54 -63 -80 -1 -13 6 -29
15 -37 16 -12 15 -13 -2 -6 -13 4 -17 3 -12 -5 4 -7 1 -12 -6 -12 -24 0 -68
-24 -68 -37 0 -7 5 -13 11 -13 5 0 7 -5 3 -11 -5 -8 -9 -8 -14 1 -9 15 -30 4
-30 -16 0 -8 -6 -13 -12 -11 -7 1 -12 -3 -11 -10 1 -6 -4 -17 -12 -23 -8 -7
-15 -18 -15 -26 0 -20 -51 -22 -92 -2 -20 10 -55 20 -77 24 -51 8 -53 20 -3
28 128 20 122 21 123 -5 l1 -24 7 25 c5 18 9 21 15 12 6 -11 13 -8 32 9 14 13
22 29 20 36 -6 14 29 84 57 114 10 11 16 26 14 34 -3 7 1 16 9 19 8 3 14 12
14 20 0 17 27 46 42 46 5 0 7 -7 4 -16z m3154 -404 l0 -91 31 23 c37 28 105
30 144 4 44 -29 55 -72 55 -211 l0 -125 -50 0 -50 0 0 124 c0 100 -3 128 -16
140 -21 21 -57 20 -85 -3 -22 -18 -24 -27 -27 -140 l-4 -121 -44 0 -44 0 0
245 0 245 45 0 45 0 0 -90z m-3493 45 c62 -19 98 -46 123 -94 30 -59 35 -129
15 -197 -32 -109 -112 -154 -277 -154 l-88 0 0 230 0 230 88 0 c49 0 111 -7
139 -15z m3260 -7 c33 -23 53 -62 53 -105 0 -49 -32 -100 -112 -175 l-82 -78
102 0 102 0 0 -40 0 -40 -160 0 -160 0 0 31 c0 25 17 49 98 133 54 56 104 116
109 133 25 70 -42 106 -117 64 l-37 -21 -23 25 c-29 31 -22 47 32 74 60 30
150 29 195 -1z m-2379 -124 l3 -41 -43 -6 c-29 -4 -50 -14 -65 -32 -21 -23
-23 -37 -23 -131 l0 -104 -45 0 -45 0 0 175 0 175 34 0 c30 0 35 -4 41 -30 6
-30 7 -30 23 -10 23 26 72 51 97 48 16 -2 21 -12 23 -44z m313 15 c38 -27 49
-73 49 -211 l0 -118 -36 0 c-27 0 -37 5 -41 20 -6 24 -11 25 -34 4 -46 -41
-155 -35 -185 11 -18 28 -21 93 -4 124 15 29 59 47 138 56 57 6 62 9 62 31 0
34 -41 49 -97 35 -57 -15 -58 -15 -72 15 -14 32 -13 34 46 50 60 17 138 9 174
-17z m349 20 c55 -12 55 -12 39 -58 -8 -22 -16 -30 -26 -27 -97 37 -150 -4
-140 -108 6 -67 34 -91 96 -82 24 3 50 11 57 17 11 9 14 3 14 -34 l0 -46 -54
-11 c-41 -8 -66 -8 -98 0 -79 21 -111 70 -111 170 -1 102 38 161 118 181 43
10 49 10 105 -2z m521 0 c111 -37 153 -187 82 -295 -38 -59 -157 -78 -226 -35
-94 58 -102 248 -13 307 48 31 107 39 157 23z m475 -15 c35 -23 44 -66 44
-205 l0 -129 -45 0 -45 0 -1 88 c-1 162 -9 192 -56 192 -64 0 -83 -43 -83
-187 l0 -93 -45 0 -45 0 0 175 0 175 34 0 c26 0 36 -5 41 -20 8 -24 18 -25 35
-5 29 35 118 40 166 9z m1453 15 c28 -6 53 -14 56 -19 3 -4 0 -21 -6 -38 l-10
-30 -47 15 c-105 31 -123 -14 -25 -62 79 -39 91 -50 99 -91 15 -81 -39 -127
-150 -127 -91 0 -114 11 -114 59 0 28 3 34 16 29 69 -26 145 -27 155 -1 8 21
-4 32 -80 70 -63 31 -73 40 -82 72 -18 66 14 110 94 127 34 8 42 7 94 -4z
m-3659 -123 c0 -100 3 -128 16 -140 24 -25 69 -20 93 10 18 23 21 41 21 140
l0 114 50 0 50 0 0 -175 0 -175 -39 0 c-31 0 -40 4 -44 21 l-6 21 -31 -22
c-39 -28 -116 -31 -154 -7 -43 29 -50 54 -54 200 l-4 137 51 0 51 0 0 -124z
m1430 -51 l0 -175 -45 0 -45 0 0 175 0 175 45 0 45 0 0 -175z m3082 114 c18
-13 46 -38 61 -56 16 -18 36 -33 46 -33 18 -1 37 -15 66 -49 17 -21 18 -24 3
-18 -11 4 -18 2 -18 -6 0 -7 -6 -1 -13 13 -7 14 -23 27 -37 29 -14 1 -27 6
-30 10 -3 3 -24 24 -48 45 -38 36 -41 37 -36 15 25 -108 13 -158 -36 -154 -17
1 -33 5 -37 9 -12 12 -25 6 -19 -9 3 -8 0 -15 -5 -15 -7 0 -9 9 -6 21 3 12 0
22 -9 26 -25 9 -15 23 19 23 29 1 30 2 14 14 -13 10 -16 21 -12 39 4 14 2 28
-4 32 -6 3 -9 11 -5 16 3 5 10 7 15 4 5 -3 6 1 3 9 -3 8 5 34 17 57 20 39 23
42 30 23 4 -12 22 -32 41 -45z m-1981 -50 c8 -15 8 -19 0 -15 -18 12 -13 -3
21 -54 35 -53 57 -68 69 -48 4 7 10 10 13 8 2 -3 -2 -14 -10 -24 -10 -15 -16
-16 -27 -7 -12 9 -16 7 -20 -9 -3 -11 -1 -20 4 -20 5 0 7 -12 3 -27 -6 -27 -6
-27 9 -8 15 19 16 16 17 -43 0 -35 -5 -72 -10 -82 -7 -13 -7 -21 0 -25 16 -10
11 -28 -6 -21 -13 5 -15 1 -10 -18 4 -15 0 -28 -10 -36 -8 -7 -11 -16 -7 -19
14 -11 43 -69 43 -87 0 -16 -1 -16 -20 1 -11 10 -20 30 -20 44 0 20 -3 22 -9
12 -6 -9 -6 -22 1 -34 5 -10 7 -21 4 -25 -8 -8 -35 31 -29 41 3 5 -4 15 -16
23 -21 15 -31 41 -11 29 6 -4 6 4 -1 19 -6 13 -17 22 -24 19 -8 -2 -18 5 -25
16 -8 16 -17 20 -34 15 -13 -3 -27 -1 -31 5 -3 6 -11 9 -16 6 -5 -4 -5 3 0 18
6 14 7 28 4 31 -4 3 0 6 7 6 19 0 100 40 98 48 -1 4 2 15 7 25 12 28 -1 98
-23 119 -29 29 -89 40 -129 23 l-33 -14 0 40 c0 37 2 40 22 33 42 -13 96 -7
132 16 20 12 35 18 34 13 -7 -22 66 -132 79 -120 2 3 -5 15 -16 26 -12 12 -21
25 -21 30 0 5 -7 14 -16 22 -9 8 -13 21 -10 35 4 13 1 24 -7 27 -9 4 -9 6 0 6
7 1 17 -9 24 -20z m-411 -302 c28 -7 26 -44 -2 -53 -23 -7 -35 -4 -31 7 1 3
-4 6 -12 6 -8 0 -12 -4 -9 -8 2 -4 -3 -14 -12 -23 -8 -9 -12 -20 -9 -26 3 -5
0 -10 -7 -10 -9 -1 -7 -5 5 -14 24 -19 21 -27 -8 -20 -21 5 -25 3 -26 -17 0
-15 -3 -18 -6 -10 -3 8 -18 24 -32 37 -14 12 -22 26 -18 31 5 4 14 1 21 -9 10
-14 13 -10 22 28 8 33 7 44 -2 44 -6 0 -14 9 -17 20 -5 18 0 20 49 20 l54 0 0
133 c0 74 3 137 8 141 4 4 8 -55 10 -132 2 -130 4 -140 22 -145z m-4430 138
c0 -41 -4 -56 -17 -64 -15 -8 -11 -10 20 -11 37 0 37 0 37 -40 0 -29 4 -40 15
-40 11 0 15 11 15 40 0 29 4 38 13 34 8 -3 26 0 41 6 17 6 34 7 44 1 14 -8 12
-11 -13 -16 -58 -13 -75 -24 -75 -50 0 -23 -4 -25 -42 -26 -36 0 -39 -2 -20
-9 12 -5 22 -12 22 -15 0 -10 -126 8 -140 21 -12 12 -12 14 3 14 9 0 17 5 17
11 0 6 -7 9 -15 6 -19 -8 -29 10 -27 50 2 18 -2 33 -8 33 -5 0 -10 7 -10 15 0
18 20 20 20 3 0 -7 12 -21 26 -32 26 -18 26 -18 15 2 -13 24 -14 45 -3 38 5
-3 6 8 4 25 -3 24 -1 29 16 29 11 0 25 7 32 15 22 27 30 16 30 -40z m5020
-149 c0 -7 7 -19 15 -26 13 -11 14 -10 9 4 -7 19 6 21 26 4 8 -7 6 -3 -4 10
-31 37 4 27 42 -12 19 -20 40 -32 48 -29 10 4 14 -4 14 -31 0 -30 3 -36 18
-34 11 2 18 -4 20 -19 2 -13 8 -23 13 -23 5 0 9 -7 9 -16 0 -11 -13 -3 -40 25
-22 22 -40 45 -40 49 0 5 -9 17 -20 27 -23 21 -27 11 -5 -12 17 -17 10 -37
-11 -29 -18 7 -18 -8 2 -42 13 -22 13 -23 1 -9 -15 18 -16 18 -26 -2 -15 -27
-14 -30 12 -42 20 -9 20 -9 1 -6 -13 3 -21 -1 -21 -10 0 -8 6 -12 14 -9 10 4
10 1 0 -14 -6 -11 -16 -20 -20 -20 -5 0 -6 -12 -3 -26 5 -18 3 -24 -5 -19 -6
4 -9 19 -5 36 3 16 1 31 -5 35 -8 4 -7 9 1 14 10 6 8 15 -9 38 -24 34 -27 52
-9 52 7 0 3 7 -8 15 -12 8 -27 28 -34 45 -7 16 -17 30 -22 30 -6 0 -7 7 -4 15
3 9 -1 18 -9 21 -27 11 -16 24 20 24 23 0 35 -5 35 -14z m623 -19 c20 -3 37
-2 37 4 0 17 19 9 25 -12 8 -26 -3 -38 -16 -19 -9 13 -10 13 -6 0 2 -8 0 -25
-4 -38 -6 -16 -4 -30 6 -46 13 -19 13 -29 4 -49 -12 -28 -7 -57 11 -57 6 0 9
8 6 18 -6 20 9 50 21 39 4 -5 1 -12 -7 -17 -8 -5 -11 -13 -6 -17 4 -4 16 2 26
15 19 23 37 14 26 -13 -7 -18 3 -47 14 -40 4 2 5 -6 3 -18 -2 -12 3 -33 11
-47 9 -14 21 -38 27 -53 16 -39 29 -16 18 31 -5 23 -4 39 2 43 6 3 10 12 9 20
-5 30 1 36 25 31 16 -3 25 -11 25 -23 0 -24 20 -35 32 -18 7 10 8 6 4 -13 -4
-16 -2 -28 3 -28 13 0 22 -28 27 -84 3 -29 11 -54 21 -61 23 -17 8 -55 -21
-55 -19 0 -23 -5 -21 -25 2 -14 -1 -23 -6 -19 -5 3 -9 1 -9 -5 0 -5 6 -12 13
-14 9 -4 9 -8 -3 -16 -8 -5 -18 -7 -22 -5 -4 3 -3 -7 2 -21 16 -42 12 -48 -16
-26 -15 12 -32 21 -39 21 -6 0 -18 21 -26 48 -8 26 -19 46 -24 45 -6 -1 -11
16 -11 38 -1 35 1 39 18 33 15 -4 14 0 -7 20 -15 15 -30 24 -35 21 -14 -9 -40
6 -40 24 0 13 -2 13 -9 2 -5 -8 -11 -9 -15 -3 -3 6 -2 13 2 16 15 9 1 55 -18
61 -10 3 -22 19 -25 35 -5 24 -12 30 -34 30 -15 0 -36 7 -47 16 -18 15 -18 15
3 5 30 -15 38 -14 23 4 -6 8 -8 20 -4 27 5 10 4 11 -7 1 -15 -14 -43 -18 -35
-5 3 5 -2 9 -10 9 -10 0 -14 -7 -11 -18 3 -11 0 -16 -8 -13 -10 4 -11 16 -6
87 1 4 6 7 12 7 5 0 8 -4 5 -8 -2 -4 -1 -14 3 -21 6 -9 9 -5 9 13 0 16 -7 28
-19 31 -11 4 -17 11 -13 16 4 6 11 6 20 -2 8 -6 18 -9 22 -5 4 4 -1 12 -11 17
-9 6 -15 14 -12 19 8 13 45 -11 38 -25 -4 -5 3 -2 15 8 13 12 28 16 41 12 13
-4 21 -2 21 5 0 7 -8 14 -19 17 -13 3 -17 11 -14 24 6 23 -15 26 -23 4 -6 -14
-8 -13 -20 2 -18 23 -19 49 -1 36 6 -6 29 -13 50 -16z m-349 -72 c23 -21 35
-39 30 -46 -4 -8 -3 -9 5 -5 8 6 10 1 6 -16 -5 -19 -1 -25 25 -35 28 -10 31
-10 26 4 -6 14 -4 14 16 1 13 -8 36 -40 51 -71 18 -38 34 -57 46 -57 10 0 18
-7 18 -16 0 -11 -7 -14 -24 -11 -16 3 -23 0 -23 -11 0 -8 3 -12 7 -9 8 8 33
-25 27 -35 -10 -16 -30 -7 -45 18 -9 15 -19 22 -22 17 -3 -5 7 -22 22 -39 46
-49 50 -92 6 -56 -29 24 -49 76 -37 97 6 12 3 24 -12 42 -57 69 -76 79 -76 43
0 -11 -7 -20 -15 -20 -8 0 -15 7 -15 16 0 8 -4 13 -10 9 -10 -6 -33 35 -44 78
-5 20 -3 27 8 27 10 0 13 -6 10 -15 -4 -9 0 -15 10 -15 22 0 20 16 -3 32 -15
10 -19 23 -17 51 2 20 -1 34 -6 31 -5 -3 -6 -14 -3 -25 8 -25 -1 -24 -15 1 -9
17 -3 37 16 50 0 0 17 -16 38 -35z m-2 -315 c5 0 22 -13 36 -28 27 -29 35 -83
17 -112 -5 -9 -4 -11 3 -6 7 4 12 2 12 -4 0 -6 4 -9 8 -6 4 2 9 -4 9 -15 1
-10 -3 -19 -8 -19 -6 0 -8 -4 -5 -9 4 -5 -5 -6 -21 -2 -18 5 -28 14 -28 26 0
10 -8 19 -17 21 -9 1 -30 12 -47 25 -28 21 -37 41 -32 78 2 7 -2 10 -8 6 -6
-3 -11 -1 -11 4 0 6 6 11 14 11 8 0 16 5 18 12 2 6 10 8 17 4 7 -5 10 -14 7
-22 -3 -8 0 -11 9 -8 8 4 12 17 10 37 -2 18 -1 26 2 20 2 -7 9 -13 15 -13z"/>
<path d="M4057 5304 c-4 -4 -7 -63 -7 -131 l0 -123 25 0 c113 0 159 163 65
231 -29 21 -73 33 -83 23z"/>
<path d="M5969 5213 c0 -54 -2 -113 -3 -130 -2 -29 0 -33 23 -33 33 0 86 32
101 60 16 31 14 102 -4 138 -14 26 -75 62 -106 62 -6 0 -10 -41 -11 -97z"/>
<path d="M6649 2851 c-21 -17 -24 -28 -24 -84 0 -50 4 -70 19 -86 22 -24 63
-27 90 -8 20 15 33 97 22 141 -14 55 -64 72 -107 37z"/>
<path d="M6111 2961 c-34 -34 -41 -215 -11 -271 13 -25 56 -36 75 -20 33 27
47 172 25 252 -16 56 -55 73 -89 39z"/>
<path d="M7003 2080 c-40 -16 -54 -66 -32 -114 21 -46 90 -43 115 5 13 25 13
33 0 63 -8 19 -23 39 -34 45 -24 13 -20 12 -49 1z"/>
<path d="M3450 1960 c-16 -16 -20 -33 -20 -85 0 -52 4 -69 20 -85 29 -29 74
-26 99 6 34 43 26 150 -13 176 -21 14 -66 8 -86 -12z"/>
<path d="M4444 1959 c-14 -16 -19 -36 -19 -84 0 -48 5 -68 19 -84 21 -24 63
-27 90 -8 42 31 40 164 -4 187 -30 16 -65 12 -86 -11z"/>
<path d="M3280 1031 l0 -151 40 0 c57 0 106 23 125 59 38 74 25 176 -28 215
-16 11 -48 21 -82 24 l-55 4 0 -151z"/>
<path d="M5380 1060 c-16 -16 -20 -33 -20 -85 0 -75 20 -105 69 -105 48 0 74
42 69 112 -5 67 -27 98 -70 98 -15 0 -37 -9 -48 -20z"/>
<path d="M9920 7488 c-113 -10 -211 -21 -217 -23 -9 -3 -13 -32 -13 -99 l0
-95 60 -22 c33 -12 58 -24 55 -28 -4 -3 -30 -15 -58 -26 l-52 -21 -3 -96 -3
-96 48 -6 c26 -3 127 -13 223 -21 96 -8 194 -18 218 -21 l42 -5 0 290 0 291
-47 -1 c-27 -1 -140 -10 -253 -21z m240 -88 l0 -50 -62 -1 c-35 -1 -90 -4
-123 -8 l-60 -6 110 -38 c133 -45 138 -48 133 -78 -3 -21 -18 -29 -117 -64
-121 -42 -124 -52 -20 -54 25 -1 67 -4 93 -7 l46 -7 0 -44 0 -44 -82 7 c-46 4
-137 12 -203 18 l-120 11 0 49 0 48 107 42 c58 22 109 44 112 47 3 3 -45 25
-107 50 l-112 44 -3 43 c-2 32 1 44 14 49 9 3 96 14 193 23 97 9 182 18 189
19 8 1 12 -15 12 -49z"/>
<path d="M380 7067 c0 -48 3 -55 25 -65 14 -6 25 -18 25 -27 0 -8 -11 -17 -25
-21 -23 -6 -25 -11 -25 -65 0 -32 2 -59 4 -59 4 0 78 27 209 76 50 20 67 30
67 45 0 10 5 19 12 19 9 0 9 3 0 12 -7 7 -12 19 -12 28 0 10 -40 29 -133 63
-73 26 -136 47 -140 47 -4 0 -7 -24 -7 -53z m153 -37 c72 -27 87 -36 87 -54 0
-18 -15 -26 -93 -54 -50 -17 -95 -32 -99 -32 -18 0 -6 28 17 38 21 10 25 19
25 52 0 34 -4 41 -25 46 -16 4 -25 13 -25 26 0 12 5 18 13 16 6 -3 51 -20 100
-38z"/>
<path d="M9853 6774 c-138 -49 -205 -231 -135 -365 38 -73 106 -124 184 -138
175 -31 320 81 322 249 2 117 -53 203 -158 251 -50 23 -152 24 -213 3z m221
-75 c43 -29 83 -90 91 -139 13 -77 -32 -173 -98 -207 -112 -58 -250 -17 -301
91 -46 98 2 225 104 271 52 23 159 15 204 -16z"/>
<path d="M9888 6614 c-35 -19 -48 -43 -48 -92 0 -105 173 -136 224 -41 17 32
18 42 8 75 -7 25 -22 46 -41 57 -35 21 -106 22 -143 1z"/>
<path d="M382 6648 l3 -103 50 0 c47 0 50 2 53 28 2 15 6 27 8 27 3 0 25 -13
49 -30 28 -20 56 -30 79 -30 l36 0 0 105 0 105 -49 0 c-48 0 -50 -1 -53 -30
l-3 -30 -45 30 c-32 22 -57 30 -88 30 l-43 0 3 -102z"/>
<path d="M421 6404 c-56 -47 -50 -147 13 -185 25 -15 50 -19 129 -19 l97 0 0
55 0 55 -87 0 c-62 0 -84 3 -76 11 6 6 41 9 87 7 l76 -3 0 53 0 52 -104 0
c-97 0 -107 -2 -135 -26z m199 -24 c0 -18 -7 -20 -73 -20 -78 0 -97 -9 -97
-47 0 -31 28 -43 104 -43 52 0 66 -3 66 -15 0 -12 -15 -15 -77 -15 -65 0 -80
3 -100 22 -38 36 -27 109 20 128 12 5 52 9 90 9 61 1 67 -1 67 -19z"/>
<path d="M780 6085 l0 -55 140 0 140 0 0 55 0 55 -140 0 -140 0 0 -55z"/>
<path d="M9850 6091 c-99 -41 -159 -131 -160 -241 0 -154 111 -263 270 -263
152 0 263 106 264 253 1 82 -17 132 -63 183 -74 82 -205 111 -311 68z m195
-60 c124 -57 160 -201 79 -309 -90 -117 -294 -94 -358 42 -34 72 -13 178 46
233 57 53 159 68 233 34z"/>
<path d="M9888 5934 c-35 -19 -48 -43 -48 -92 0 -105 173 -136 224 -41 17 32
18 42 8 75 -7 25 -22 46 -41 57 -35 21 -106 22 -143 1z"/>
<path d="M380 5990 l0 -100 49 0 50 0 3 43 3 42 88 3 87 3 0 54 0 55 -140 0
-140 0 0 -100z"/>
<path d="M780 5865 c0 -52 1 -55 25 -55 32 0 32 -13 1 -29 -26 -14 -37 -55
-24 -90 7 -20 14 -21 143 -21 l135 0 0 55 c0 53 -1 55 -27 55 l-28 1 28 22
c15 13 27 32 27 44 0 12 6 24 13 26 10 4 10 6 0 6 -7 1 -13 10 -13 21 0 19 -7
20 -140 20 l-140 0 0 -55z m240 -5 c0 -13 -22 -34 -67 -65 -37 -25 -63 -46
-58 -46 6 -1 35 -2 65 -3 44 -1 55 -5 58 -18 3 -16 -7 -18 -97 -18 -90 0 -101
2 -101 18 0 10 28 36 67 62 l66 45 -64 5 c-50 4 -65 9 -67 23 -3 15 7 17 97
17 94 0 101 -1 101 -20z"/>
<path d="M913 5538 c-103 -39 -133 -54 -133 -68 0 -10 -6 -21 -12 -24 -10 -5
-10 -7 0 -12 6 -3 12 -14 12 -23 0 -14 29 -29 123 -64 67 -25 130 -48 140 -52
15 -6 17 0 17 52 l0 60 -42 17 -43 18 43 15 42 15 0 59 c0 32 -3 59 -7 58 -5
-1 -68 -24 -140 -51z"/>
<path d="M443 5550 c-97 -59 -75 -210 35 -237 101 -25 182 29 182 120 0 59
-23 101 -66 122 -45 21 -112 19 -151 -5z m146 -39 c32 -22 44 -67 30 -109 -9
-28 -34 -52 -53 -52 -13 0 -5 34 10 45 43 31 3 105 -57 105 -56 0 -90 -67 -53
-104 8 -9 14 -24 12 -34 -3 -15 -7 -13 -31 10 -20 20 -27 37 -27 65 1 87 94
127 169 74z"/>
<path d="M9690 5241 c0 -244 1 -251 20 -252 11 0 52 0 90 0 39 0 77 0 85 0 11
1 15 14 15 56 0 30 3 55 6 55 5 0 222 -132 292 -178 l22 -14 0 261 0 261 -100
0 -99 0 -3 -70 -3 -71 -125 78 c-69 43 -142 89 -162 102 l-38 23 0 -251z m232
35 l153 -95 3 95 3 94 39 0 40 0 0 -176 c0 -137 -3 -174 -12 -168 -7 4 -77 47
-155 96 -78 48 -147 88 -153 88 -8 0 -10 -26 -8 -80 l3 -81 -40 3 -40 3 -3
158 c-2 100 1 157 8 157 5 0 78 -43 162 -94z"/>
<path d="M380 5090 c0 -76 4 -120 10 -120 6 0 29 9 52 21 33 17 46 19 65 10
44 -20 97 -14 124 15 21 22 24 37 28 110 l3 84 -141 0 -141 0 0 -120z m240 27
c0 -29 -6 -61 -13 -71 -17 -23 -62 -24 -86 -2 -16 15 -21 15 -54 1 -46 -19
-47 -19 -47 3 0 13 13 24 40 35 23 9 40 22 40 31 0 17 -8 19 -52 16 -22 -1
-28 3 -28 19 0 20 5 21 100 21 l100 0 0 -53z"/>
<path d="M780 5155 l0 -55 140 0 140 0 0 55 0 55 -140 0 -140 0 0 -55z"/>
<path d="M960 4970 l0 -30 -90 0 -91 0 3 -57 3 -58 85 0 85 0 3 -33 c3 -33 4
-33 53 -31 l49 3 0 118 0 118 -50 0 c-49 0 -50 -1 -50 -30z"/>
<path d="M382 4823 l3 -58 138 -3 137 -3 0 61 0 60 -140 0 -141 0 3 -57z"/>
<path d="M780 4635 c0 -50 2 -56 25 -65 14 -5 25 -16 25 -24 0 -7 -11 -17 -25
-20 -23 -6 -25 -11 -25 -67 0 -55 2 -60 19 -54 11 3 73 26 138 50 95 35 119
47 121 64 2 12 8 21 15 21 8 0 8 3 -1 12 -7 7 -12 19 -12 28 0 11 -39 30 -129
63 -71 26 -134 47 -140 47 -7 0 -11 -21 -11 -55z m153 -35 c72 -27 87 -36 87
-54 0 -18 -15 -26 -93 -54 -50 -17 -95 -32 -99 -32 -19 0 -5 31 17 40 21 8 25
16 25 50 0 34 -4 41 -25 46 -16 4 -25 13 -25 26 0 12 5 18 13 16 6 -3 51 -20
100 -38z"/>
<path d="M424 4646 c-53 -37 -57 -142 -9 -184 24 -20 35 -22 105 -19 51 2 87
9 103 20 50 32 54 130 7 172 -27 25 -175 32 -206 11z m56 -40 c0 -7 -7 -19
-15 -26 -19 -15 -20 -56 -2 -63 21 -8 34 4 52 51 23 56 58 67 92 28 30 -35 29
-61 -4 -94 -24 -24 -28 -25 -31 -9 -2 10 3 27 12 36 19 21 11 53 -13 49 -9 -2
-24 -21 -35 -43 -20 -44 -32 -55 -60 -55 -50 0 -76 81 -39 122 19 21 43 24 43
4z"/>
<path d="M9953 4382 l-263 -107 0 -85 0 -85 265 -106 265 -106 0 117 0 117
-40 16 c-36 14 -40 19 -40 50 0 31 3 35 40 46 l40 12 0 119 c0 66 -1 120 -2
119 -2 0 -121 -49 -265 -107z m207 -37 c0 -43 -2 -46 -40 -61 l-40 -16 0 -78
0 -77 40 -16 c39 -15 40 -17 40 -61 0 -25 -4 -46 -9 -46 -4 0 -95 36 -202 79
l-194 79 0 43 0 43 190 77 c105 42 196 78 203 78 8 1 12 -14 12 -44z"/>
<path d="M560 4320 l0 -30 -90 0 -91 0 3 -57 3 -58 88 -3 87 -3 0 -29 c0 -29
1 -30 50 -30 l50 0 0 120 0 120 -50 0 c-49 0 -50 -1 -50 -30z"/>
<path d="M380 3981 c0 -54 2 -59 25 -65 14 -4 25 -13 25 -21 0 -8 -11 -17 -25
-21 -23 -6 -25 -11 -25 -65 0 -32 3 -59 8 -59 4 0 67 21 139 47 99 36 133 52
133 65 0 9 7 21 16 26 15 8 15 10 0 15 -9 4 -16 14 -16 24 0 14 -30 29 -133
66 -73 26 -136 47 -140 47 -4 0 -7 -27 -7 -59z m223 -58 c14 -5 26 -53 12 -53
-2 0 -47 -16 -100 -35 -89 -32 -95 -33 -95 -15 0 13 9 22 25 26 22 5 25 12 25
49 0 37 -3 44 -25 49 -16 4 -25 13 -25 25 0 18 5 18 83 -11 45 -17 90 -33 100
-35z"/>
<path d="M9692 3673 l3 -108 263 -3 262 -2 0 110 0 110 -265 0 -266 0 3 -107z
m468 2 l0 -45 -205 0 -205 0 0 38 c0 21 3 42 7 45 3 4 96 7 205 7 l198 0 0
-45z"/>
<path d="M380 3564 l0 -105 53 3 52 3 3 43 3 42 83 0 c45 0 85 2 87 4 2 2 2
29 1 60 l-4 56 -139 0 -139 0 0 -106z"/>
<path d="M2230 2046 c0 -18 -7 -47 -15 -62 -8 -16 -15 -37 -15 -46 0 -10 -4
-18 -10 -18 -5 0 -10 -8 -10 -18 0 -13 12 -22 35 -29 19 -6 33 -7 30 -3 -3 5
6 8 21 7 18 -1 32 6 47 25 20 27 20 28 2 42 -16 12 -17 16 -6 29 18 23 -18 62
-50 54 -19 -5 -21 -3 -15 24 3 16 1 29 -4 29 -6 0 -10 -15 -10 -34z"/>
<path d="M5291 680 c2 -67 -1 -86 -10 -72 -6 10 -10 8 -14 -10 -11 -38 -8 -51
8 -44 9 3 15 0 15 -9 0 -8 -4 -15 -10 -15 -5 0 -10 -11 -10 -24 0 -19 4 -23
20 -19 12 3 20 0 20 -6 0 -7 -4 -9 -10 -6 -5 3 -10 2 -10 -4 0 -5 4 -12 10
-16 5 -3 7 -12 4 -20 -4 -8 -11 -12 -17 -8 -6 4 -8 -3 -3 -20 4 -16 1 -31 -7
-38 -7 -7 -11 -25 -9 -41 2 -15 0 -28 -6 -28 -19 0 -18 -34 1 -72 13 -26 19
-59 19 -110 0 -50 3 -65 8 -48 l8 25 1 -25 c2 -30 30 -84 31 -58 0 9 8 22 18
27 9 6 11 11 5 11 -15 0 -17 28 -4 49 6 9 15 -4 29 -45 15 -44 21 -52 21 -32
1 15 -3 29 -8 33 -6 3 -10 13 -9 23 0 22 -24 85 -37 94 -7 5 -6 14 2 26 7 12
8 24 2 33 -5 8 -9 29 -9 47 0 20 -6 35 -16 39 -13 5 -13 8 -2 15 10 7 10 11 1
14 -7 3 -9 12 -6 20 4 12 8 13 13 3 11 -17 33 27 27 52 -3 10 -1 19 5 19 6 0
7 8 3 18 -4 9 -8 29 -10 44 -3 22 -1 26 13 21 15 -6 15 -5 2 11 -8 10 -16 35
-17 55 -2 26 0 32 7 21 5 -8 10 -10 10 -4 0 25 -22 32 -41 13 -17 -17 -18 -25
-10 -55 7 -26 7 -34 -2 -31 -15 5 -13 113 3 132 7 9 8 15 0 20 -5 3 -10 3 -11
-2 0 -4 -5 1 -10 12 -7 16 -8 14 -8 -15z"/>
<path d="M2641 549 c0 -8 -12 -26 -26 -39 -14 -13 -25 -29 -25 -37 0 -17 -27
-17 -33 0 -3 8 -11 6 -28 -9 -25 -22 -58 -38 -71 -36 -5 1 -8 -5 -8 -14 0 -8
-4 -12 -10 -9 -5 3 -10 2 -10 -2 0 -5 -10 -13 -22 -18 -12 -6 -24 -16 -26 -24
-3 -8 0 -11 7 -7 8 5 8 0 -1 -18 -14 -31 -28 -34 -21 -5 6 21 5 21 -21 4 -25
-17 -30 -26 -27 -53 1 -6 -10 -27 -24 -46 -22 -29 -23 -35 -11 -46 9 -6 19 -9
25 -6 14 9 23 -25 10 -41 -18 -21 -5 -25 41 -13 34 9 41 15 37 31 -5 20 27 53
64 64 11 4 19 15 19 29 0 24 38 66 59 66 7 0 9 4 6 10 -3 6 -1 10 5 10 7 0 9
7 6 16 -3 9 3 27 14 41 11 14 20 29 20 34 0 5 14 28 31 52 18 26 29 52 26 63
-3 14 -5 15 -6 3z"/>
<path d="M3235 340 c-3 -5 7 -13 22 -16 39 -10 72 -36 73 -57 0 -27 -87 -17
-111 12 -12 15 -19 17 -23 9 -3 -7 -3 -3 -1 9 3 12 1 24 -4 27 -13 9 -51 -15
-51 -31 0 -7 -4 -13 -10 -13 -5 0 -10 -9 -10 -20 0 -11 -4 -20 -10 -20 -5 0
-9 -4 -7 -8 3 -13 -61 -83 -68 -73 -3 5 -2 17 2 27 5 14 3 16 -11 11 -10 -4
-20 -7 -22 -7 -2 0 -4 -7 -4 -16 0 -8 -13 -20 -30 -25 -21 -8 -30 -18 -30 -32
-1 -16 -14 -28 -49 -45 -56 -26 -61 -26 -61 -9 0 18 -70 14 -101 -6 -32 -20
-76 -29 -84 -18 -3 6 -26 3 -58 -6 -28 -9 -60 -17 -69 -18 -10 -1 -21 -4 -24
-8 -4 -4 157 -7 357 -7 355 0 364 0 377 20 12 19 14 19 34 6 19 -14 25 -13 58
5 20 11 40 30 45 42 6 12 25 27 43 33 19 6 38 17 44 25 7 10 8 8 3 -8 -7 -24
9 -33 18 -10 4 9 8 8 17 -3 7 -9 13 -11 16 -4 6 14 65 5 82 -13 10 -9 13 -27
9 -54 -4 -34 -3 -39 14 -39 27 0 34 24 16 51 -14 19 -14 24 -1 36 16 17 19 43
4 43 -5 0 -10 -6 -10 -14 0 -8 -5 -18 -11 -22 -8 -4 -9 1 -4 17 5 19 4 21 -4
9 -10 -13 -12 -13 -20 0 -12 17 -5 30 15 30 8 0 14 5 14 11 0 6 7 9 15 6 8 -4
17 -2 20 4 4 5 -1 12 -10 15 -13 5 -14 9 -4 15 19 11 22 50 4 43 -8 -3 -13
-10 -12 -16 1 -6 -9 -12 -23 -14 -13 -3 -28 -10 -32 -17 -6 -9 -12 -7 -24 8
-8 11 -20 19 -25 18 -5 -2 -9 9 -9 23 0 19 -4 25 -15 20 -9 -3 -15 0 -15 9 0
18 -16 20 -26 3 -4 -6 0 -16 9 -23 19 -14 21 -24 8 -44 -10 -15 -11 -15 -55
37 -15 18 -16 24 -6 37 15 18 0 21 -18 3 -9 -9 -17 -5 -37 16 -18 19 -31 25
-45 21 -14 -5 -20 -2 -20 9 0 18 -45 23 -55 6z"/>
<path d="M2258 262 c-9 -2 -19 -14 -22 -28 -4 -13 -13 -24 -22 -24 -22 0 -74
-29 -74 -41 0 -6 6 -7 13 -3 8 5 8 2 -2 -9 -7 -9 -20 -17 -27 -17 -8 0 -14 -8
-14 -19 0 -10 -7 -24 -16 -32 -13 -10 -17 -10 -24 2 -7 9 -5 15 5 17 16 4 21
22 6 22 -13 0 -57 -24 -59 -33 -4 -16 -28 -34 -40 -30 -8 3 -10 0 -7 -10 8
-18 -23 -31 -40 -17 -10 8 -19 5 -35 -12 -13 -14 -17 -24 -9 -27 6 -2 15 2 19
9 5 9 9 9 14 1 4 -7 40 -11 88 -11 65 0 85 4 105 20 14 11 29 20 34 20 4 0 11
-9 14 -20 6 -18 15 -20 121 -20 69 0 114 4 114 10 0 6 -9 10 -20 10 -15 0 -20
7 -20 25 0 19 -5 25 -21 25 -15 0 -19 -5 -15 -16 3 -8 2 -13 -3 -10 -5 3 -14
-1 -21 -9 -6 -7 -17 -12 -25 -9 -7 3 -16 1 -20 -5 -8 -13 -35 11 -35 30 0 7
21 32 47 55 26 24 45 46 41 49 -3 3 -16 -6 -29 -20 -33 -34 -45 -32 -20 4 12
16 17 31 12 33 -18 7 -22 46 -6 62 20 19 16 33 -7 28z"/>
</g>
</svg>
