<?xml version="1.0" standalone="no"?>
<!DOCTYPE svg PUBLIC "-//W3C//DTD SVG 20010904//EN"
 "http://www.w3.org/TR/2001/REC-SVG-20010904/DTD/svg10.dtd">
<svg version="1.0" xmlns="http://www.w3.org/2000/svg"
 width="958.000000pt" height="954.000000pt" viewBox="0 0 958.000000 954.000000"
 preserveAspectRatio="xMidYMid meet">
<metadata>
Created by potrace 1.16, written by Peter Selinger 2001-2019
</metadata>
<g transform="translate(0.000000,954.000000) scale(0.100000,-0.100000)"
fill="#000000" stroke="none">
<path d="M957 9478 c-7 -4 -20 -8 -30 -8 -10 0 -30 -11 -44 -25 l-27 -24 13
-83 c6 -46 18 -105 26 -133 12 -43 46 -269 49 -329 1 -14 -9 -23 -31 -29 -18
-6 -33 -14 -33 -18 0 -5 -8 -9 -17 -9 -10 0 -74 -14 -143 -30 -321 -79 -415
-103 -421 -112 -3 -5 -36 -15 -72 -23 -36 -8 -102 -24 -146 -35 l-81 -22 0
-365 0 -365 27 7 c15 3 30 10 33 14 3 5 16 11 30 15 69 19 229 70 258 82 18 8
43 14 56 14 13 0 31 9 40 19 13 14 26 18 49 14 23 -3 39 1 56 16 13 12 32 21
42 21 10 0 33 6 51 14 18 7 60 21 93 31 75 22 122 37 207 65 95 31 103 26 117
-68 21 -148 60 -438 77 -582 10 -80 21 -147 24 -150 11 -8 34 -165 27 -183 -3
-8 -19 -18 -36 -22 -17 -3 -53 -17 -81 -31 -27 -13 -57 -24 -65 -24 -8 0 -15
-4 -15 -9 0 -5 -15 -14 -32 -21 -18 -8 -40 -19 -48 -25 -8 -7 -33 -18 -55 -25
l-40 -13 50 -14 c28 -7 114 -16 193 -20 109 -5 142 -9 142 -20 0 -16 4 -16
-185 -2 -240 18 -365 9 -379 -28 -4 -9 -5 -16 -4 -17 2 -1 13 -7 25 -13 13 -7
51 -14 85 -15 l63 -2 -58 -3 -58 -4 23 -18 c19 -15 53 -20 193 -26 94 -5 203
-9 243 -10 40 -1 76 -6 81 -11 5 -5 17 -74 26 -154 26 -217 28 -257 17 -264
-6 -4 -30 -2 -54 4 -24 5 -61 12 -83 14 -47 5 -157 44 -167 60 -5 8 -8 7 -8
-1 0 -7 -9 -13 -21 -13 -11 0 -18 4 -15 9 3 5 -15 12 -40 16 -65 9 -73 14 -89
46 -19 35 -19 59 -1 73 14 10 20 34 17 63 -1 9 -19 12 -59 11 -59 -1 -82 5
-82 23 0 6 4 7 10 4 5 -3 7 0 4 8 -3 8 2 21 10 30 9 9 16 26 16 38 0 12 -3 19
-7 16 -3 -4 -12 -2 -20 4 -10 9 -13 8 -13 -5 0 -9 -5 -16 -11 -16 -5 0 -7 -4
-4 -10 3 -5 1 -10 -5 -10 -6 0 -9 -4 -6 -9 9 -14 -32 -21 -179 -31 -77 -4
-156 -13 -175 -19 -19 -6 -48 -11 -64 -11 -16 0 -52 -6 -80 -14 -28 -8 -70
-20 -93 -26 -31 -8 -44 -17 -48 -33 -3 -12 -4 -310 -3 -662 3 -640 3 -640 22
-602 16 29 25 37 48 37 18 0 28 5 28 15 0 8 6 15 13 15 24 0 124 60 168 100
24 22 53 43 64 46 10 4 32 20 48 35 16 16 37 29 48 29 10 0 19 5 19 10 0 6 8
10 18 10 9 0 26 7 36 15 11 8 27 15 36 15 9 0 24 13 33 29 10 17 26 33 37 36
11 4 18 10 15 14 -2 5 15 14 38 20 58 17 127 59 127 76 0 8 5 15 10 15 6 0 10
7 10 15 0 9 9 15 25 15 14 0 49 17 78 39 29 21 62 42 74 45 12 4 32 20 43 37
12 16 29 29 39 29 10 0 29 8 42 19 13 10 41 24 61 30 21 7 38 19 38 27 0 8 6
14 13 14 7 0 20 9 30 20 9 11 28 20 41 20 22 0 25 -5 31 -62 3 -35 12 -103 20
-153 7 -49 18 -128 24 -175 6 -47 18 -134 27 -195 8 -60 20 -144 25 -185 5
-41 14 -100 19 -131 6 -30 10 -70 10 -87 0 -18 4 -32 9 -32 9 0 12 -20 33
-225 9 -95 16 -127 35 -155 33 -49 30 -60 -17 -60 -29 0 -40 -4 -40 -15 0 -8
-4 -15 -9 -15 -5 0 -12 -13 -16 -28 -3 -16 -30 -73 -60 -127 -30 -55 -55 -105
-55 -112 0 -8 -6 -16 -14 -19 -7 -3 -22 -22 -32 -42 -11 -20 -25 -43 -31 -50
-7 -7 -13 -20 -13 -28 0 -8 -3 -14 -7 -14 -5 0 -19 -23 -33 -52 -14 -28 -33
-56 -42 -62 -10 -6 -18 -16 -18 -22 0 -12 -30 -76 -39 -84 -4 -3 -14 -18 -24
-33 -10 -15 -23 -25 -28 -21 -20 12 -199 -7 -199 -21 0 -7 -8 -15 -18 -17 -10
-3 -31 -32 -47 -64 -17 -32 -32 -61 -35 -64 -3 -3 -17 -26 -30 -52 -14 -27
-31 -48 -37 -48 -7 0 -13 -5 -13 -10 0 -6 -11 -23 -25 -38 -14 -15 -25 -30
-25 -35 0 -4 -18 -36 -40 -69 -22 -34 -40 -67 -40 -73 0 -5 -9 -16 -21 -23
-15 -10 -19 -20 -15 -36 4 -15 -1 -29 -12 -39 -57 -54 -83 -76 -113 -97 -19
-13 -36 -27 -39 -30 -12 -14 -111 -80 -120 -80 -5 0 -14 -9 -20 -20 -6 -11
-16 -20 -22 -20 -5 0 -32 -16 -58 -35 -26 -19 -52 -35 -56 -35 -5 0 -24 -13
-42 -28 -31 -27 -33 -32 -30 -82 l3 -53 43 37 c24 20 50 36 58 36 8 0 19 9 26
20 7 11 18 20 24 20 7 0 14 7 18 15 3 8 12 15 21 15 8 0 15 5 15 10 0 6 6 10
13 10 6 0 23 9 37 20 14 11 33 20 43 20 10 0 20 7 23 15 3 8 14 17 25 20 11 4
17 10 14 15 -3 5 9 16 27 24 18 8 50 30 71 50 21 20 42 36 47 36 5 0 13 6 17
14 8 14 12 16 33 16 6 0 10 6 10 13 1 26 48 57 97 62 44 5 49 4 50 -15 1 -11
-4 -20 -12 -20 -7 0 -17 -15 -20 -33 -4 -17 -11 -34 -15 -37 -4 -3 -22 -36
-39 -75 -18 -38 -38 -79 -44 -90 -6 -11 -19 -36 -29 -55 -10 -19 -18 -31 -18
-26 0 4 -19 -27 -41 -71 -23 -43 -48 -89 -55 -103 -8 -14 -14 -31 -14 -37 0
-7 -4 -13 -10 -13 -5 0 -10 -6 -10 -12 0 -7 -11 -23 -24 -36 -13 -12 -27 -34
-31 -50 -3 -15 -24 -55 -46 -90 -21 -35 -39 -69 -39 -77 0 -8 -14 -28 -30 -45
-17 -17 -30 -33 -30 -36 0 -13 -73 -154 -80 -154 -5 0 -11 -13 -15 -29 -3 -16
-17 -40 -30 -54 -13 -13 -38 -49 -55 -81 l-30 -58 0 -1054 0 -1054 2258 1
c1524 0 2248 4 2230 11 -16 5 -28 15 -29 21 -2 45 -11 83 -19 85 -22 8 -8 23
17 20 17 -2 32 -12 37 -24 8 -18 19 -21 70 -23 60 -2 60 -1 37 15 -13 9 -40
17 -60 18 -23 1 -35 6 -33 14 1 8 -16 12 -55 13 -165 5 -213 13 -213 39 0 13
17 13 60 0 21 -7 151 -11 322 -11 l287 0 -1 -31 c-1 -21 -7 -32 -20 -36 -10
-2 -18 -11 -18 -18 0 -9 -11 -14 -30 -14 -33 0 -35 3 -20 30 7 13 6 19 -5 24
-8 3 -16 1 -16 -4 -1 -6 -2 -16 -3 -22 0 -7 -20 -17 -43 -22 -42 -9 -43 -10
-43 -47 l0 -39 2435 0 2435 0 0 50 0 50 -89 0 c-53 0 -93 4 -96 11 -5 7 23 9
89 7 l96 -3 0 133 0 132 -37 1 c-179 3 -277 19 -122 19 101 0 126 6 132 31 3
10 1 19 -3 19 -5 0 -11 13 -15 30 -4 16 -11 30 -16 30 -14 0 -11 26 4 39 11 9
17 3 30 -27 9 -20 18 -44 21 -52 2 -8 5 146 5 343 1 351 1 357 -19 357 -11 0
-20 5 -20 10 0 6 10 10 23 10 13 0 17 3 10 8 -6 4 -14 19 -18 34 -4 16 -15 28
-26 30 -11 2 -18 8 -17 13 2 6 6 9 11 7 4 -1 7 2 7 8 0 5 -7 10 -17 10 -9 0
-13 3 -10 6 7 8 -31 44 -45 44 -5 0 -6 5 -2 11 3 6 15 8 26 6 12 -4 18 -1 15
6 -2 7 -13 13 -25 15 -26 4 -29 19 -4 25 16 4 16 5 0 6 -10 0 -18 6 -18 11 0
6 -7 10 -16 10 -10 0 -14 6 -11 14 3 7 0 19 -6 25 -8 8 -6 11 9 11 16 1 17 2
4 13 -8 7 -15 21 -15 32 0 16 -6 19 -30 17 -33 -4 -25 12 10 21 15 4 14 5 -7
6 -34 1 -48 21 -16 22 17 1 18 3 6 6 -20 5 -25 33 -5 33 6 1 0 8 -16 16 -15 8
-27 21 -27 29 0 8 -9 19 -21 25 -12 7 -18 18 -15 26 3 8 0 13 -7 11 -7 -1 -13
12 -15 31 -3 25 1 32 14 32 13 0 10 6 -12 27 -27 25 -27 27 -9 34 18 7 18 8 2
8 -29 1 -43 22 -39 58 3 25 0 33 -11 33 -9 0 -18 13 -22 30 -4 17 -11 28 -16
25 -5 -4 -6 1 -3 9 3 9 1 16 -6 16 -6 0 -9 4 -5 9 3 5 -3 16 -12 23 -20 14
-25 30 -25 68 0 14 -6 35 -14 48 -8 12 -13 22 -10 22 2 0 -4 21 -13 47 -14 39
-22 49 -43 51 -23 3 -71 52 -51 52 5 0 9 20 10 45 1 25 -2 45 -7 45 -4 0 -6
-10 -3 -23 4 -21 4 -21 -8 -2 -7 11 -15 22 -19 25 -3 3 -9 13 -13 23 -4 11 -1
17 9 17 24 0 11 25 -15 28 -19 3 -22 9 -20 40 3 46 -8 72 -27 65 -8 -3 -14 0
-14 6 0 6 4 11 9 11 5 0 12 8 16 17 5 14 4 15 -6 6 -10 -10 -15 -9 -25 5 -12
15 -12 14 -7 -8 6 -24 5 -23 -27 8 -18 19 -35 46 -36 60 -2 15 -4 36 -6 46 -2
10 3 21 10 23 6 3 12 -2 12 -11 0 -9 5 -16 11 -16 6 0 8 7 5 16 -3 9 -6 18 -6
20 0 2 -5 4 -10 4 -21 0 -59 54 -53 75 3 11 2 17 -2 13 -11 -10 -28 10 -54 64
-12 26 -33 62 -45 80 -34 51 -37 65 -15 71 13 4 19 0 19 -12 0 -9 6 -26 14
-37 13 -17 14 -15 6 20 -5 22 -16 43 -24 48 -9 5 -16 13 -16 18 0 16 22 11 36
-7 7 -10 14 -13 14 -6 0 6 -4 15 -10 18 -5 3 -10 15 -10 26 0 11 -7 19 -16 19
-8 0 -12 4 -9 10 3 6 -1 7 -9 4 -9 -3 -16 -1 -16 5 0 6 -17 11 -39 11 -35 0
-39 3 -43 30 -3 17 -3 30 -1 30 6 0 48 -25 66 -39 29 -24 27 -8 -4 27 -16 18
-29 27 -29 20 0 -8 -3 -9 -8 -3 -4 6 -13 10 -19 11 -29 2 -33 5 -33 21 0 9 -8
25 -17 35 -16 18 -16 18 0 12 10 -3 20 -17 23 -29 7 -27 21 -35 48 -25 19 6
19 7 0 14 -19 7 -19 8 1 22 19 15 19 15 -9 12 -18 -2 -31 2 -34 11 -3 10 0 12
11 8 11 -4 14 -2 11 8 -3 8 -14 17 -24 20 -21 7 -35 35 -18 35 6 0 20 -7 30
-17 17 -15 18 -15 18 0 0 10 -4 17 -10 17 -5 0 -10 5 -10 10 0 9 -9 20 -56 72
-9 9 -13 22 -9 28 4 6 1 11 -6 9 -35 -4 -70 2 -64 11 4 6 2 17 -4 24 -8 9 -8
26 -2 52 5 23 9 30 10 17 1 -16 6 -21 16 -17 8 4 15 11 15 17 0 6 -3 7 -6 4
-4 -4 -25 19 -47 51 -23 31 -47 63 -54 70 -16 16 -13 6 -19 77 -4 37 -12 65
-21 72 -8 6 -12 16 -9 22 3 5 -1 17 -11 26 -11 12 -13 19 -5 24 7 4 1 13 -18
25 -34 19 -37 31 -14 44 15 8 15 12 0 40 -9 18 -22 32 -29 32 -9 0 -9 -2 0 -8
15 -10 28 -62 15 -62 -5 0 -15 14 -21 30 -5 17 -16 30 -23 30 -10 0 -10 2 -1
8 9 6 6 15 -12 35 -14 14 -25 30 -24 34 4 24 -3 43 -16 43 -8 0 -15 9 -15 20
0 11 5 20 10 20 6 0 10 7 10 15 0 8 -4 15 -9 15 -12 0 -20 25 -26 83 l-5 47
35 0 c22 0 38 -6 44 -17 8 -14 10 -15 10 -3 0 23 -22 48 -49 53 -23 4 -23 4 4
6 21 1 27 5 22 17 -3 9 -6 20 -6 25 0 5 -20 9 -45 9 -34 0 -47 5 -55 20 -8 15
-8 20 3 20 7 0 18 -5 25 -12 9 -9 12 -9 12 0 0 18 31 14 46 -5 12 -17 13 -17
19 2 4 11 13 34 20 50 8 17 16 64 20 105 7 77 27 189 45 250 5 19 13 55 16 80
3 25 9 47 13 50 8 6 92 368 138 595 9 44 19 82 24 85 4 3 23 82 43 175 68 326
100 470 107 475 4 3 10 25 14 50 3 25 10 59 15 75 19 65 51 205 71 305 11 58
24 123 30 145 5 22 12 59 16 83 3 23 9 42 14 42 4 0 13 26 19 58 6 31 15 77
20 102 5 25 18 97 30 160 12 63 27 140 35 170 8 30 17 78 21 105 3 28 12 64
20 80 11 24 104 464 146 692 6 29 13 51 17 49 4 -3 12 26 19 62 17 94 72 360
82 402 16 62 29 124 35 163 3 21 10 35 16 32 5 -4 9 -2 9 4 0 5 -6 12 -12 14
-10 4 -10 6 0 6 16 1 15 19 -1 36 -13 13 -85 20 -286 30 -57 3 -107 8 -112 10
-4 3 -132 6 -284 5 -151 0 -373 5 -492 10 -120 6 -434 14 -698 20 -264 5 -545
14 -625 19 -80 6 -314 13 -520 16 -206 4 -442 9 -525 11 -236 6 -610 33 -613
44 -4 12 -102 13 -102 1 0 -7 -106 -17 -250 -24 -84 -3 -695 16 -700 23 -10
14 -3021 32 -3043 18z m5823 -3919 c96 -6 185 -14 198 -19 14 -6 22 -6 22 0 0
6 9 10 19 10 11 0 21 5 23 12 3 8 12 8 35 -2 18 -8 29 -19 26 -27 -4 -10 14
-13 81 -13 59 0 86 -4 86 -12 0 -6 3 -8 7 -5 3 4 12 -1 19 -11 10 -13 26 -17
78 -16 36 1 66 -3 66 -8 0 -5 10 -8 23 -7 12 1 35 -3 52 -10 20 -8 31 -9 33
-2 2 7 10 8 20 2 24 -12 217 -35 272 -32 42 3 52 1 77 -11 32 -15 39 -39 23
-77 -11 -27 -15 -29 -93 -34 -45 -4 -129 -11 -187 -17 -58 -6 -138 -12 -179
-15 -41 -3 -76 -7 -79 -9 -2 -3 -15 -1 -28 4 -13 5 -33 6 -44 2 -12 -4 -60 -2
-108 5 -48 7 -138 19 -201 27 -63 8 -117 20 -121 26 -6 9 -13 9 -28 1 -14 -7
-23 -8 -27 -1 -3 5 -15 10 -25 10 -22 0 -92 30 -102 45 -4 5 -4 13 -2 17 3 4
-4 8 -15 8 -12 0 -20 5 -18 12 1 6 -9 15 -23 19 -14 4 -19 7 -12 8 6 1 12 5
12 9 0 5 -18 9 -41 10 -52 2 -61 9 -53 34 11 36 11 53 1 59 -15 10 3 31 21 24
9 -3 95 -11 192 -16z m1385 -584 c23 -2 32 -30 16 -49 -7 -8 -31 -19 -55 -25
-27 -7 -54 -22 -69 -41 -30 -35 -37 -25 -37 50 0 66 17 81 78 74 26 -4 56 -7
67 -9z m-5628 -512 c18 -7 33 -16 33 -19 0 -3 -4 -2 -10 1 -5 3 -10 2 -10 -4
0 -5 -3 -17 -7 -27 -4 -12 -3 -15 5 -10 27 16 9 -10 -36 -53 -45 -43 -52 -46
-110 -49 -34 -2 -62 0 -62 3 0 4 10 15 23 25 l22 18 -27 7 c-16 4 -28 12 -28
17 0 6 9 8 20 5 13 -3 18 -1 13 6 -4 7 0 8 12 3 22 -8 57 2 49 15 -3 5 -22 9
-42 8 -20 0 -65 2 -99 6 -53 7 -64 5 -69 -9 -3 -9 -12 -16 -20 -16 -8 0 -14
-8 -14 -18 0 -23 -34 -52 -61 -52 l-21 0 22 -37 c25 -42 15 -60 -35 -65 l-30
-3 3 53 c3 52 2 53 -20 47 -13 -4 -33 -20 -46 -36 -13 -16 -32 -29 -43 -29
-10 0 -19 -4 -19 -10 0 -5 -7 -10 -15 -10 -13 0 -20 -23 -17 -51 1 -9 -58 -20
-68 -14 -13 8 18 61 45 79 16 10 22 22 18 32 -8 22 28 124 49 135 10 5 18 21
18 34 0 13 8 29 18 35 26 15 517 1 559 -17z m4732 -37 c9 -11 6 -17 -14 -30
-14 -9 -25 -23 -25 -31 0 -13 16 -15 104 -11 57 3 113 9 123 14 10 5 33 16 51
25 42 21 89 22 108 2 9 -8 24 -15 34 -15 29 0 83 -55 95 -98 14 -46 10 -62
-18 -62 -18 0 -15 -4 16 -25 35 -25 51 -43 25 -30 -7 4 -4 -1 7 -10 11 -9 19
-20 18 -25 -1 -4 9 -20 23 -35 13 -14 21 -31 18 -37 -4 -7 -2 -8 5 -4 6 4 19
2 27 -5 10 -8 18 -9 22 -3 11 16 59 15 66 -1 3 -8 14 -15 24 -15 15 0 18 6 14
29 -2 16 1 32 7 35 17 11 13 24 -9 28 -25 4 -27 23 -3 23 10 0 23 -10 29 -23
l11 -23 5 25 c4 19 0 27 -13 31 -19 6 -27 35 -9 35 5 0 7 8 3 18 -4 12 1 9 18
-8 13 -14 24 -34 25 -45 1 -31 7 -47 27 -69 9 -11 17 -26 17 -34 0 -19 41 -54
56 -48 7 3 18 -2 25 -10 10 -12 9 -13 -5 -8 -9 3 -16 2 -16 -4 0 -5 7 -13 15
-16 12 -4 13 -10 6 -25 -9 -16 -8 -18 9 -14 17 4 20 0 20 -25 0 -17 5 -34 10
-37 6 -3 10 -11 10 -16 0 -14 -25 -5 -26 9 -1 7 -2 17 -3 22 -1 8 -31 16 -31
8 0 -2 6 -26 14 -54 13 -50 13 -51 -8 -49 -11 1 -33 3 -47 4 -21 1 -26 6 -26
26 0 34 -5 37 -52 39 -22 0 -37 4 -35 7 10 17 -30 18 -42 2 -7 -10 -21 -18
-31 -19 -10 -1 -29 -2 -41 -3 -15 0 -26 -9 -29 -21 -5 -17 -12 -20 -49 -16
-32 3 -44 0 -44 -9 0 -8 -8 -16 -17 -18 -10 -2 -8 -3 5 -2 12 1 22 -1 22 -4 0
-4 21 -13 48 -21 69 -20 98 -45 111 -96 6 -24 15 -44 20 -44 5 0 12 -15 16
-32 3 -18 10 -42 15 -53 5 -11 23 -65 41 -120 17 -55 42 -131 55 -169 21 -64
21 -72 8 -99 -9 -17 -21 -27 -29 -23 -8 3 -15 0 -18 -7 -4 -13 -26 -14 -311
-9 -93 1 -167 5 -164 8 4 3 105 5 227 4 310 -1 304 -8 221 241 -27 82 -50 156
-50 164 0 7 -4 15 -10 17 -5 2 -23 40 -38 86 -41 121 -32 118 -348 131 -143 7
-286 13 -319 14 -33 2 57 4 200 6 144 1 251 6 240 10 -11 5 -24 6 -28 4 -17
-10 -54 8 -64 30 -10 22 -18 24 -85 25 -238 5 -544 15 -549 18 -3 2 -172 6
-375 9 -203 3 -383 8 -400 11 -45 6 -66 34 -62 81 l3 38 460 -3 c275 -2 464
-7 469 -12 6 -6 32 -10 58 -10 41 0 48 -3 46 -17 -2 -14 5 -19 32 -21 28 -3
33 -1 23 9 -17 17 -16 30 1 23 13 -5 52 54 42 63 -17 17 -143 24 -588 33 -587
11 -578 10 -578 88 l0 45 493 -6 c270 -4 502 -10 515 -13 13 -4 21 -12 19 -18
-4 -13 17 -36 32 -36 16 0 14 15 -4 30 -11 9 -12 15 -2 25 7 7 14 12 17 10 3
-1 13 1 24 4 17 7 17 8 2 23 -25 25 -84 29 -586 37 -325 6 -475 12 -497 21
-30 11 -33 16 -33 55 0 24 5 47 11 50 11 7 948 -13 986 -21 15 -3 20 -9 17
-19 -5 -11 1 -15 20 -15 17 0 26 5 26 16 0 8 -4 12 -10 9 -6 -3 -7 1 -4 9 3 9
9 14 14 11 8 -5 30 38 30 60 0 20 73 20 89 1z m-3079 -74 c18 -14 22 -25 16
-45 -3 -15 -13 -27 -22 -27 -8 0 -29 -7 -45 -16 -30 -15 -30 -16 -28 -87 2
-69 2 -71 -24 -78 -38 -10 -47 12 -35 90 7 47 7 76 -2 105 -11 37 -10 42 10
58 30 24 101 24 130 0z m587 3 c83 -4 133 -2 137 4 4 6 13 8 21 5 8 -4 13 -10
10 -14 -3 -4 2 -13 10 -20 37 -31 7 -80 -49 -80 -51 0 -56 -7 -56 -86 0 -72
-1 -74 -25 -74 -29 0 -30 10 -15 91 14 71 -2 131 -40 147 -15 7 -68 13 -118
13 -74 0 -92 3 -92 15 0 12 9 14 43 10 23 -3 101 -8 174 -11z m935 -55 c13
-16 15 -26 8 -41 -10 -19 -21 -22 -91 -34 -42 -6 -49 -20 -49 -102 0 -50 -2
-53 -25 -53 -29 0 -29 3 -10 90 7 36 11 84 8 107 -5 38 -3 44 18 53 40 17 120
6 141 -20z m-2342 -67 c0 -5 37 -8 82 -8 69 0 83 -3 86 -17 5 -24 -34 -55 -79
-62 -21 -3 -39 -11 -39 -16 0 -16 -37 -11 -44 6 -8 20 -26 8 -26 -17 0 -11 -7
-22 -15 -25 -19 -8 -19 -22 0 -26 10 -2 12 -7 5 -17 -5 -10 -23 -14 -47 -13
-80 3 -104 4 -138 2 -20 -1 -42 3 -50 10 -10 8 -19 8 -34 1 -26 -15 -63 -14
-84 2 -15 11 -16 18 -5 65 l13 52 43 0 c48 0 61 -16 44 -56 -7 -13 -8 -24 -3
-24 11 0 36 31 44 53 5 14 16 18 49 15 24 -2 42 -7 42 -13 -1 -5 -5 -25 -9
-43 -6 -29 -4 -33 10 -30 18 3 47 69 46 105 -1 27 10 34 50 35 17 1 33 7 36
15 5 14 23 18 23 6z m-663 -21 c7 -4 13 -38 14 -82 l2 -75 -29 1 c-16 1 -41 2
-56 3 -21 1 -25 5 -21 21 5 18 0 20 -43 20 -53 0 -80 -11 -70 -29 5 -7 -8 -11
-41 -11 -44 1 -47 2 -29 15 11 8 24 15 29 15 4 0 24 12 44 27 53 40 156 101
173 102 8 0 20 -3 27 -7z m237 -50 c7 -12 -17 -38 -56 -59 -32 -17 -34 -21
-19 -30 11 -7 23 -8 34 -2 20 12 60 -6 54 -24 -6 -19 -98 -20 -142 -1 l-39 16
34 29 35 28 -27 1 c-20 0 -28 5 -28 18 0 10 3 22 7 25 9 10 141 9 147 -1z
m-202 -179 c-5 -46 23 -60 141 -66 100 -6 122 -11 98 -26 -9 -6 -4 -11 18 -19
50 -18 37 -39 -21 -34 -12 1 -16 -4 -12 -16 4 -10 3 -13 -3 -6 -4 6 -20 13
-35 16 -22 4 -28 1 -28 -13 0 -11 -10 -20 -30 -24 -40 -9 -70 2 -70 26 0 17
-8 19 -92 19 -105 0 -135 11 -103 36 12 9 28 12 40 8 43 -14 86 -16 99 -5 8 7
17 8 19 4 3 -5 22 -10 42 -11 34 -3 36 -1 22 13 -9 8 -23 15 -32 15 -30 0
-107 51 -101 67 3 8 6 23 6 32 0 13 7 18 23 17 19 -1 22 -6 19 -33z m-398 -78
c25 -19 43 -24 82 -23 55 1 133 -8 141 -15 13 -13 -12 -27 -47 -27 -36 0 -40
-2 -45 -33 -4 -18 -15 -39 -26 -45 -18 -11 -21 -9 -30 18 -6 16 -15 30 -20 30
-5 0 -9 6 -9 14 0 30 -79 27 -82 -3 -1 -9 -2 -23 -3 -31 -3 -39 -45 -58 -45
-19 0 11 -4 17 -10 14 -9 -6 -11 -1 -14 38 -2 20 -16 25 -88 32 -59 6 -68 10
-68 27 0 19 4 19 76 13 71 -7 76 -6 81 14 8 30 64 29 107 -4z m3011 -146 c4
-5 30 -9 58 -8 76 2 470 -11 475 -16 2 -2 1 -9 -3 -16 -6 -9 -60 -10 -229 -4
-122 4 -248 9 -281 10 -88 2 -88 2 -76 43 3 7 51 0 56 -9z m2173 -101 c2 -4
10 -8 18 -8 25 0 54 -39 54 -71 l0 -31 -47 6 c-94 13 -157 52 -133 81 7 8 18
15 25 15 7 0 15 7 19 15 4 11 13 14 33 9 16 -4 30 -11 31 -16z m-4787 -34 c16
-14 16 -18 4 -31 -8 -8 -15 -21 -15 -29 0 -20 322 -21 339 0 31 37 209 41 232
5 3 -6 12 -12 20 -13 8 -2 21 -6 29 -9 8 -3 31 -10 50 -15 34 -8 35 -10 34
-56 0 -26 -6 -53 -15 -61 -8 -7 -42 -16 -76 -19 -57 -4 -97 -21 -131 -53 -18
-18 -26 -16 -47 7 -10 11 -23 20 -28 20 -6 0 -18 6 -26 14 -17 15 -601 39
-1256 51 -309 6 -447 14 -460 27 -8 8 30 91 49 107 18 15 74 14 671 -9 132 -5
309 -9 393 -10 148 0 152 1 152 21 0 15 5 19 15 15 17 -6 21 9 5 19 -5 3 -10
13 -10 21 0 19 49 18 71 -2z m142 -261 c15 -9 6 -23 -18 -29 -38 -9 -30 -22
19 -29 46 -7 94 -44 68 -52 -7 -3 -25 -15 -40 -28 -23 -19 -35 -22 -82 -18
-60 5 -65 8 -74 40 -8 24 14 37 72 42 21 2 13 21 -13 33 -29 13 -33 44 -7 51
17 4 59 -2 75 -10z m-1073 -68 c196 -4 316 -9 343 -14 4 0 7 -8 7 -16 0 -16
-81 -16 -410 0 -47 2 -122 5 -167 6 -62 1 -83 5 -83 15 0 21 30 33 59 23 14
-5 127 -11 251 -14z m-130 -106 c3 -4 57 -10 120 -12 63 -2 -11 -4 -165 -5
-277 -1 -324 -6 -372 -37 -22 -15 -93 -147 -93 -174 0 -6 -4 -11 -10 -11 -5 0
-21 -26 -36 -57 -14 -32 -42 -91 -60 -131 -19 -40 -34 -79 -34 -87 0 -18 -20
-30 -21 -13 0 9 -2 8 -6 -2 -11 -31 -36 -87 -65 -148 -17 -34 -34 -79 -38 -98
-7 -31 -5 -39 18 -64 l27 -28 255 -12 c140 -6 417 -15 615 -21 198 -5 459 -13
580 -19 121 -5 308 -9 415 -10 187 0 197 1 240 24 61 33 77 57 97 153 9 45 20
80 24 78 3 -3 12 23 19 58 8 34 14 64 15 67 0 3 7 30 14 60 18 80 37 163 62
268 24 101 19 133 -25 148 -61 21 -63 22 -39 23 36 2 93 -31 99 -56 4 -13 10
-23 15 -23 5 0 9 -8 9 -17 0 -15 -2 -16 -10 -3 -8 13 -10 12 -10 -4 0 -10 -7
-50 -16 -90 -19 -86 -50 -220 -60 -261 -4 -16 -7 -33 -6 -37 1 -4 -3 -20 -10
-35 -6 -15 -13 -39 -14 -53 -5 -45 -36 -164 -53 -200 -19 -42 -79 -100 -103
-100 -9 0 -18 -6 -21 -12 -3 -10 -74 -12 -322 -10 -176 1 -322 6 -325 11 -3 4
-167 11 -365 15 -198 3 -373 8 -390 11 -16 2 -165 7 -330 10 -326 7 -381 15
-422 62 -31 35 -29 53 16 147 70 147 101 215 101 226 0 5 3 10 8 10 7 0 13 10
127 244 73 149 107 187 180 200 19 4 35 11 35 16 0 5 15 10 33 12 60 6 292 -4
297 -13z m3170 1 c3 -5 93 -11 200 -13 107 -2 29 -2 -175 1 -203 2 -375 8
-381 13 -6 5 -82 10 -170 12 -87 2 -6 2 181 0 191 -2 342 -8 345 -13z m-1895
-36 c127 -4 232 -9 235 -12 7 -7 -854 9 -1015 18 -144 9 383 4 780 -6z m-465
-59 c19 -3 69 -9 110 -14 103 -13 190 -31 190 -41 0 -8 33 -22 98 -39 24 -7
51 -20 60 -29 24 -24 76 -57 85 -54 7 2 11 -14 8 -32 -1 -5 7 -15 19 -23 11
-8 20 -19 20 -25 0 -6 7 -20 17 -30 21 -23 20 -99 -2 -111 -8 -4 -15 -19 -15
-31 0 -13 -12 -34 -26 -47 -15 -13 -48 -45 -75 -71 -26 -27 -53 -48 -60 -48
-7 0 -21 -8 -31 -17 -21 -19 -109 -52 -155 -59 -18 -2 -53 -15 -77 -29 -25
-14 -61 -25 -80 -25 -19 0 -38 -4 -41 -10 -3 -5 -34 -10 -68 -10 -34 0 -80 -5
-102 -11 -89 -26 -673 -6 -691 23 -3 4 -22 8 -42 8 -41 0 -130 28 -150 47 -7
7 -21 13 -30 13 -10 0 -35 9 -56 21 -22 11 -49 22 -61 23 -29 3 -85 44 -85 61
0 8 -9 17 -20 20 -11 3 -20 14 -20 24 0 9 -7 26 -15 37 -17 22 -21 164 -5 164
6 0 10 6 10 14 0 7 9 16 20 19 13 3 18 10 14 21 -4 12 0 16 16 16 24 0 62 30
38 30 -7 1 3 8 22 18 20 9 51 29 70 43 21 15 62 31 100 38 36 7 69 17 74 22 6
5 24 9 42 9 30 0 88 22 80 31 -3 2 17 5 42 7 26 2 65 8 87 14 22 6 63 12 90
15 28 2 59 8 70 13 35 17 413 20 525 5z m1060 11 c0 -1 -11 -15 -25 -30 -13
-14 -27 -43 -30 -64 -4 -20 -13 -51 -21 -69 -8 -17 -14 -39 -14 -50 0 -10 -9
-51 -20 -92 -10 -41 -17 -78 -15 -81 2 -4 -3 -29 -11 -55 -8 -27 -16 -63 -19
-80 -2 -16 -13 -76 -24 -133 -12 -56 -21 -111 -21 -121 0 -21 40 -71 57 -71 6
0 13 -5 15 -12 2 -6 26 -15 54 -18 l49 -7 -48 -2 c-56 -1 -79 9 -126 58 -27
27 -35 43 -34 69 1 19 5 37 10 41 4 3 18 56 31 116 48 228 62 292 77 360 8 39
20 94 26 124 8 41 19 61 47 87 36 33 42 37 42 30z m405 -29 c221 -7 205 -5
205 -27 0 -19 -7 -20 -165 -20 -103 0 -165 4 -165 10 0 6 -18 10 -40 10 -27 0
-40 4 -40 13 0 23 13 29 50 23 19 -3 89 -7 155 -9z m443 -13 c63 -2 102 1 102
7 0 6 5 7 12 3 15 -10 78 -11 78 -1 0 4 5 7 11 7 6 0 9 -6 6 -13 -4 -10 3 -12
24 -9 51 7 99 -6 99 -29 0 -18 -8 -19 -132 -19 -73 -1 -140 0 -148 1 -8 0 -69
4 -135 7 l-120 7 -3 29 -4 29 54 -8 c29 -4 99 -9 156 -11z m1207 -33 c3 -11
19 -22 35 -26 17 -4 33 -11 36 -17 3 -5 12 -51 20 -101 27 -188 43 -277 49
-286 3 -6 1 -20 -5 -31 -10 -18 -8 -19 22 -13 42 8 70 33 38 33 -21 0 -21 3
-19 166 1 129 4 167 15 171 8 3 62 0 121 -5 139 -14 143 -18 99 -120 -18 -43
-36 -89 -40 -104 -3 -16 -10 -28 -15 -28 -5 0 -19 -25 -31 -55 -14 -35 -28
-55 -39 -55 -11 0 -7 -6 12 -18 34 -21 43 -47 26 -78 -11 -21 -19 -24 -76 -24
-50 0 -74 6 -110 25 -43 24 -46 25 -58 8 -7 -10 -12 -21 -9 -24 2 -3 -8 -11
-22 -18 -14 -6 -24 -19 -23 -29 3 -38 -2 -52 -20 -52 -11 0 -21 -8 -23 -17 -3
-17 -27 -18 -373 -14 -480 5 -601 11 -596 31 2 8 3 22 3 30 0 8 2 28 5 43 l5
29 76 -8 c72 -6 76 -6 62 11 -10 12 -24 16 -51 12 -59 -8 -67 5 -34 50 16 21
33 40 37 41 4 2 8 10 8 18 0 16 1 17 50 76 18 21 29 42 25 48 -7 11 59 80 76
80 6 0 27 11 47 25 20 14 45 25 54 25 10 0 18 4 18 9 0 5 9 13 20 16 11 3 26
12 32 19 21 20 79 43 161 65 43 11 82 23 87 26 5 3 47 10 92 16 177 22 202 26
176 28 -38 2 -58 11 -58 27 0 10 13 14 44 14 35 0 46 -4 51 -19z m1975 9 c0
-6 56 -10 148 -10 192 -1 346 -15 374 -35 13 -8 29 -15 38 -15 21 0 69 -56 76
-89 3 -14 17 -54 30 -89 13 -34 24 -69 24 -76 0 -8 4 -16 9 -18 5 -1 30 -70
56 -153 25 -82 57 -181 71 -218 13 -38 24 -77 24 -88 0 -10 5 -19 10 -19 15 0
12 -40 -2 -41 -10 0 -10 -2 0 -6 6 -2 12 -9 12 -14 0 -6 -5 -7 -10 -4 -6 3
-13 -1 -16 -10 -7 -17 -65 -45 -96 -45 -10 0 -16 -4 -13 -10 4 -6 -18 -10 -59
-10 -36 0 -67 4 -70 8 -5 9 -211 15 -1221 33 -330 6 -679 14 -775 18 l-175 8
220 1 c121 1 463 -5 760 -13 297 -8 723 -15 946 -16 l405 -2 32 23 c40 30 42
70 8 167 -13 37 -41 121 -62 186 -20 64 -41 117 -45 117 -4 0 -12 22 -19 49
-22 94 -90 274 -107 287 -10 7 -43 22 -73 33 -49 17 -91 20 -365 25 -444 9
-675 18 -675 28 0 4 122 8 270 8 173 0 270 -4 270 -10z m-1315 -117 c17 -3 39
-12 50 -19 11 -8 27 -14 37 -14 10 0 18 -4 18 -9 0 -5 15 -14 33 -21 17 -7 52
-23 77 -36 25 -13 68 -34 95 -48 28 -14 72 -46 100 -71 27 -25 53 -45 59 -45
9 0 86 -79 86 -89 0 -3 14 -22 30 -41 16 -19 30 -41 30 -47 0 -8 12 -12 33
-12 23 1 26 3 9 6 -12 2 -20 9 -17 14 8 12 122 12 130 -1 3 -6 -4 -10 -17 -11
l-23 0 23 -10 c41 -16 14 -32 -44 -24 l-53 6 9 -33 c5 -18 14 -42 19 -53 16
-34 31 -88 27 -93 -3 -2 -146 1 -318 7 -172 6 -390 11 -485 11 -178 0 -203 3
-203 25 0 8 -9 17 -21 20 -19 6 -20 12 -14 58 4 29 12 57 19 62 14 11 29 58
16 50 -14 -9 -30 20 -20 35 6 8 10 11 10 7 0 -13 30 20 30 33 0 17 37 85 54
99 9 8 16 22 16 32 0 11 4 19 9 19 5 0 14 14 21 30 7 17 21 35 31 41 11 5 19
16 19 25 0 8 6 17 14 20 8 3 12 13 9 25 -3 11 0 32 8 45 11 21 18 24 39 19 14
-3 39 -9 55 -12z m820 -276 c43 -14 46 -16 20 -17 -28 -1 -29 -2 -7 -10 12 -5
22 -14 22 -20 0 -5 9 -10 20 -10 11 0 20 -7 20 -15 0 -10 -11 -15 -35 -15 -19
0 -35 5 -35 10 0 14 -27 12 -34 -2 -5 -10 -7 -10 -12 0 -3 7 -25 12 -54 12
-27 0 -52 5 -55 10 -3 6 0 10 7 11 10 0 10 2 0 6 -6 2 -10 8 -7 13 3 4 -12 6
-32 3 -21 -2 -56 0 -78 6 -37 10 -36 10 28 8 37 -2 67 1 67 5 0 4 12 9 28 9
l27 1 -30 9 c-22 6 -14 7 30 4 33 -1 83 -10 110 -18z m-2530 -447 c125 -5 44
-6 -235 -3 -234 3 -499 9 -590 13 -105 5 -20 6 235 3 220 -3 486 -9 590 -13z
m-3362 -25 c-1 -5 -4 -17 -7 -25 -3 -9 9 -31 29 -54 34 -39 34 -40 17 -69 -26
-44 -37 -49 -106 -49 -58 0 -67 3 -93 29 l-29 30 42 41 c40 41 64 53 64 31 0
-6 -7 -17 -15 -26 -21 -20 -14 -38 15 -38 20 0 23 6 27 53 3 41 1 54 -11 58
-9 3 -16 13 -16 21 0 11 11 13 43 11 23 -2 41 -7 40 -13z m726 -57 c10 -6 16
-19 14 -28 -3 -10 0 -21 6 -24 17 -11 13 -48 -11 -93 -23 -43 -38 -55 -38 -30
0 6 -5 4 -11 -6 -6 -9 -15 -14 -21 -11 -7 5 -9 1 -5 -9 6 -15 -3 -17 -66 -18
-40 -1 -86 -2 -104 -4 -18 -1 -30 1 -28 6 3 4 -4 14 -16 23 -12 8 -18 19 -14
25 3 6 1 11 -5 11 -6 0 -13 -7 -16 -15 -4 -8 -13 -15 -21 -15 -12 0 -13 12 -8
68 7 70 23 94 75 119 33 16 244 17 269 1z m1119 -19 c2 -5 85 -9 185 -9 100 0
425 -7 722 -16 l540 -16 47 -32 c27 -17 49 -38 49 -46 4 -37 -4 -156 -10 -160
-7 -5 -22 -185 -41 -487 -14 -225 -18 -250 -46 -282 -13 -16 -38 -32 -54 -36
-17 -4 -30 -11 -30 -16 0 -12 -332 -12 -365 1 -14 5 -242 14 -508 20 -265 6
-581 15 -702 20 -121 5 -279 9 -352 10 -105 0 -139 4 -167 18 -20 9 -36 23
-36 30 0 6 -7 12 -15 12 -11 0 -15 11 -15 39 0 22 4 41 8 43 5 2 26 64 46 138
20 74 50 180 67 234 16 54 29 105 29 112 0 7 4 14 8 16 4 2 23 57 41 123 65
237 75 258 132 270 16 4 29 10 29 15 0 5 8 11 18 13 29 8 417 -5 420 -14z
m4782 -109 c580 -11 634 -15 659 -38 10 -10 26 -22 37 -28 10 -6 30 -33 44
-60 14 -27 27 -51 30 -54 3 -3 18 -45 33 -95 72 -231 120 -370 128 -373 5 -2
9 -9 9 -15 0 -7 23 -81 50 -165 60 -182 62 -210 19 -246 -30 -25 -35 -26 -162
-26 -73 0 -278 5 -457 10 -179 5 -580 14 -892 20 -376 6 -583 13 -615 21 -51
13 -103 45 -103 64 0 6 -8 18 -19 26 -13 12 -20 37 -25 90 -4 41 -13 128 -21
194 -77 643 -76 632 -42 662 12 12 33 23 47 26 33 5 636 -1 1280 -13z m-6856
-276 c20 -8 20 -23 -1 -46 -15 -17 -15 -18 3 -18 20 0 38 -17 63 -60 12 -21
12 -25 0 -29 -8 -2 -28 -19 -45 -36 -30 -32 -32 -33 -102 -27 -76 5 -85 11
-96 54 -5 21 -1 31 19 46 14 11 25 25 25 30 0 13 36 25 50 17 15 -10 12 -35
-5 -35 -8 0 -15 -5 -15 -11 0 -5 -4 -7 -10 -4 -5 3 -10 -1 -10 -9 0 -18 42
-31 66 -22 13 5 14 9 4 22 -10 11 -10 18 -2 26 20 20 14 59 -8 65 -20 5 -26
23 -13 36 8 9 56 9 77 1z m4500 -13 c6 -8 -61 -21 -118 -21 -30 -1 -30 -1 -11
-16 15 -11 17 -17 8 -22 -13 -8 -28 -66 -40 -150 -6 -47 -12 -55 -33 -42 -16
10 -18 96 -3 126 6 10 13 38 17 61 5 38 4 42 -11 36 -12 -4 -9 1 7 15 21 18
38 21 102 22 42 0 79 -4 82 -9z m-3630 -28 c12 -8 -2 -79 -24 -121 -11 -20
-20 -42 -20 -49 0 -7 -4 -13 -9 -13 -5 0 -12 -15 -15 -33 -13 -67 -9 -66 -240
-68 -166 -1 -210 2 -217 12 -12 19 -11 25 6 43 8 8 15 21 15 28 0 8 4 18 9 24
5 5 14 25 19 44 20 68 39 112 56 132 17 19 25 20 214 13 108 -4 201 -10 206
-12z m-1324 -484 c0 -8 18 -10 60 -6 33 4 60 3 60 -1 0 -4 54 -9 120 -10 82
-3 120 0 120 7 0 6 7 11 15 11 8 0 15 -4 15 -10 0 -5 11 -10 25 -10 14 0 25
-6 26 -12 0 -10 2 -10 6 0 2 6 18 12 33 12 16 0 32 5 36 11 4 8 9 8 17 0 6 -6
21 -11 34 -11 13 0 23 -4 23 -10 0 -5 18 -10 40 -10 45 0 51 -11 17 -33 -18
-11 -48 -14 -137 -11 -63 2 -206 6 -318 8 -147 3 -206 7 -218 17 -13 10 -19
10 -36 0 -29 -18 -41 -2 -27 37 10 29 15 32 50 32 23 0 39 -5 39 -11z m980
-35 c0 -14 20 -15 164 -12 90 1 159 -1 153 -5 -7 -4 -1 -5 13 -2 31 7 66 -16
57 -39 -5 -12 -20 -16 -64 -16 -32 0 -66 -7 -76 -14 -9 -7 -28 -11 -42 -8 -21
4 -24 8 -19 26 6 17 4 19 -7 9 -8 -7 -35 -11 -59 -9 -25 2 -82 4 -127 4 -77 2
-83 4 -83 23 0 39 19 59 55 59 25 0 35 -4 35 -16z m-1018 -93 c2 -5 76 -11
166 -15 90 -3 167 -8 172 -11 5 -3 13 3 19 12 8 15 13 16 30 6 12 -7 30 -13
40 -13 11 0 23 -5 26 -10 4 -7 12 -7 25 0 29 15 52 2 48 -29 -3 -25 -6 -26
-58 -25 -30 0 -151 2 -267 3 -199 2 -214 4 -223 22 -13 23 -30 25 -30 4 0 -19
-36 -20 -43 -1 -9 22 33 66 64 66 15 0 29 -4 31 -9z m746 -27 c8 -14 10 -14
21 0 17 20 37 20 45 1 4 -12 27 -15 121 -15 101 0 115 -2 115 -17 0 -15 1 -15
13 2 8 10 19 15 24 12 6 -4 13 -1 16 7 4 9 18 13 39 11 45 -4 45 -4 28 -15
-11 -7 -2 -10 33 -10 30 0 47 -4 48 -12 0 -10 2 -10 6 0 2 6 18 12 34 12 22 0
30 -6 35 -25 4 -14 4 -29 1 -32 -10 -9 -417 -3 -622 10 -25 2 -30 6 -28 24 3
26 32 63 50 63 6 0 16 -7 21 -16z m1788 -64 c6 -6 54 -12 107 -13 53 -2 99 -6
102 -9 4 -3 0 -16 -7 -27 -12 -20 -19 -21 -88 -16 -41 3 -103 6 -137 6 -35 0
-65 3 -67 7 -2 4 -2 19 1 35 5 24 10 27 42 27 20 0 42 -5 47 -10z m320 -5 c26
-20 120 -20 128 0 5 15 35 10 47 -8 4 -5 58 -10 120 -11 122 -2 139 -6 139
-37 0 -19 -6 -20 -167 -17 -93 1 -208 4 -258 7 l-90 6 4 30 c1 17 5 33 8 38 7
12 48 8 69 -8z m4005 -96 c11 -6 63 -11 116 -11 83 -1 97 -3 114 -22 11 -11
15 -22 9 -24 -5 -2 -8 -8 -4 -13 3 -5 -55 -9 -140 -9 -133 0 -146 2 -156 19
-5 11 -10 31 -10 45 0 21 5 26 26 26 14 0 34 -5 45 -11z m359 -10 c30 -7 58
-18 62 -24 5 -6 8 -6 8 3 0 7 14 12 35 12 21 0 35 -5 36 -12 0 -10 2 -10 6 0
2 6 13 12 23 12 10 0 21 -6 24 -12 5 -10 7 -10 12 0 3 6 18 12 34 12 16 0 31
-6 34 -12 3 -9 8 -8 16 5 14 22 34 22 56 0 13 -13 19 -14 22 -5 5 15 29 16 34
1 2 -7 33 -12 80 -13 83 -1 84 -2 90 -31 2 -17 -2 -20 -27 -18 -16 2 -34 3
-40 3 -11 1 -143 2 -195 1 -19 0 -36 -5 -38 -10 -5 -15 -49 -14 -54 0 -3 8
-52 13 -143 16 -77 2 -145 6 -151 8 -13 4 -27 63 -18 76 3 6 13 8 22 5 10 -2
42 -10 72 -17z m-3795 -328 c6 -5 118 -12 250 -16 132 -4 242 -9 245 -12 6 -7
-568 4 -752 13 -71 4 -128 11 -128 16 0 11 373 10 385 -1z"/>
<path d="M4754 2576 c-9 -24 4 -34 52 -42 25 -3 52 -13 60 -21 8 -9 17 -13 20
-10 3 3 27 -1 52 -9 26 -7 61 -14 77 -14 24 0 27 -2 15 -10 -11 -8 -7 -9 14
-4 19 5 27 3 23 -4 -5 -6 7 -10 31 -10 20 -1 58 -4 85 -7 39 -6 47 -4 47 9 0
9 -7 16 -15 16 -8 0 -15 5 -15 10 0 6 -10 10 -22 8 -44 -4 -118 14 -118 29 0
8 -4 12 -8 9 -4 -3 -26 0 -48 5 -21 6 -46 10 -54 10 -31 0 -61 10 -55 18 3 5
-14 12 -37 16 -24 4 -55 9 -71 11 -18 3 -29 -1 -33 -10z"/>
</g>
</svg>
