<?xml version="1.0" standalone="no"?>
<!DOCTYPE svg PUBLIC "-//W3C//DTD SVG 20010904//EN"
 "http://www.w3.org/TR/2001/REC-SVG-20010904/DTD/svg10.dtd">
<svg version="1.0" xmlns="http://www.w3.org/2000/svg"
 width="958.000000pt" height="960.000000pt" viewBox="0 0 958.000000 960.000000"
 preserveAspectRatio="xMidYMid meet">
<metadata>
Created by potrace 1.16, written by Peter Selinger 2001-2019
</metadata>
<g transform="translate(0.000000,960.000000) scale(0.100000,-0.100000)"
fill="#000000" stroke="none">
<path d="M32 9288 c2 -234 6 -312 15 -315 7 -3 15 -20 19 -39 3 -19 10 -34 15
-34 4 0 11 -16 15 -35 3 -19 10 -35 15 -35 4 0 11 -16 15 -35 3 -19 10 -35 15
-35 4 0 11 -16 15 -35 3 -19 10 -35 14 -35 4 0 10 -18 14 -40 3 -22 10 -40 16
-40 5 0 12 -16 16 -35 3 -19 10 -35 15 -35 4 0 14 -27 21 -60 6 -33 15 -60 20
-60 4 0 10 -16 14 -35 3 -19 10 -35 15 -35 5 0 9 -8 9 -17 1 -10 9 -36 20 -58
11 -22 19 -50 20 -62 0 -13 4 -23 9 -23 5 0 12 -13 16 -30 4 -16 10 -30 15
-30 4 0 10 -18 14 -39 3 -22 10 -41 15 -43 4 -1 11 -27 13 -57 4 -44 2 -56
-13 -69 -11 -9 -19 -20 -19 -25 0 -4 -20 -29 -45 -55 -25 -26 -45 -50 -45 -54
0 -4 -12 -21 -27 -37 -60 -63 -73 -79 -73 -86 0 -3 -20 -27 -45 -52 -25 -24
-45 -49 -45 -54 0 -5 -20 -29 -45 -52 l-45 -44 0 -3731 0 -3732 4775 0 c3169
0 4775 3 4775 10 0 7 -167 8 -493 4 -315 -5 -591 -3 -767 5 -151 6 -369 14
-485 17 -283 7 -410 17 -368 27 17 5 55 8 85 7 29 -1 298 -2 598 -1 421 0 546
-2 552 -12 5 -9 102 -12 405 -14 219 0 415 1 436 4 l37 5 0 155 0 155 -27 -2
c-16 -1 -32 -1 -38 0 -24 5 -73 -3 -120 -20 -66 -25 -113 -30 -335 -36 -217
-7 -642 17 -735 41 -33 9 -68 14 -78 11 -9 -2 -41 2 -70 10 -28 7 -64 14 -79
14 -20 0 -27 6 -30 22 -2 15 -14 26 -33 33 -36 12 -65 41 -65 67 0 10 -3 17
-8 16 -4 -2 -18 7 -31 19 -13 12 -28 20 -32 17 -4 -2 -13 4 -18 15 -8 13 -26
21 -66 26 -30 3 -55 10 -55 13 0 12 -63 36 -115 44 -27 4 -88 12 -135 18 -47
6 -101 15 -120 20 -19 5 -55 11 -79 14 -24 3 -48 11 -53 18 -9 14 -7 41 3 36
3 -2 13 3 22 11 14 11 60 12 249 7 199 -5 450 2 578 18 19 2 183 7 363 10 309
5 377 12 362 35 -2 5 27 12 65 15 41 4 73 13 77 20 5 8 28 16 53 19 48 6 162
33 195 47 11 5 49 17 85 26 36 9 71 22 78 28 8 5 54 10 103 11 l89 0 -3 830
c-2 457 -7 843 -12 860 -4 16 -14 36 -22 43 -7 7 -13 22 -13 33 0 10 -4 19 -9
19 -5 0 -12 16 -15 35 -4 19 -11 35 -16 35 -4 0 -11 18 -15 40 -4 22 -11 40
-15 40 -5 0 -12 16 -16 35 -3 19 -10 35 -14 35 -4 0 -10 16 -13 35 -3 19 -12
42 -19 50 -30 34 -38 45 -38 56 0 6 -6 9 -14 6 -7 -3 -25 6 -39 19 -18 17 -41
26 -69 27 -36 3 -44 7 -46 26 -4 25 -10 33 -54 80 -14 15 -32 47 -38 70 -6 24
-14 40 -17 37 -8 -7 -52 83 -53 107 0 10 -4 16 -9 13 -5 -4 -12 12 -16 34 -4
22 -11 40 -16 40 -5 0 -11 11 -15 25 -3 14 -10 25 -14 25 -5 0 -11 14 -15 31
-4 18 -23 45 -43 63 -20 17 -43 38 -52 47 -22 21 -40 13 -40 -17 0 -13 -4 -24
-9 -24 -5 0 -11 -10 -14 -22 -10 -35 -37 -3 -37 43 0 35 -3 39 -25 39 -16 0
-25 -6 -25 -15 0 -8 -5 -15 -11 -15 -6 0 -8 -7 -5 -16 3 -8 2 -13 -3 -10 -5 3
-17 -14 -28 -39 -17 -42 -20 -45 -55 -43 -21 1 -38 6 -39 12 0 6 -4 2 -9 -9
-8 -18 -9 -17 -9 8 -1 16 3 26 8 22 5 -3 12 -1 16 5 4 6 11 8 16 5 5 -4 9 0 9
8 0 7 9 23 19 34 11 11 21 29 23 38 4 23 -29 28 -41 7 -8 -14 -23 -17 -75 -15
-53 2 -67 -1 -75 -15 -8 -14 -10 -14 -11 -2 -1 34 -20 -16 -20 -53 0 -21 -4
-36 -9 -33 -5 3 -11 -5 -13 -19 -5 -25 12 -40 28 -25 5 5 25 10 44 11 19 2 40
7 47 11 7 6 16 2 25 -10 11 -16 31 -20 128 -26 96 -6 118 -10 136 -27 17 -16
22 -17 20 -6 -1 8 -8 23 -16 33 -12 13 -12 18 -2 21 6 3 10 9 6 14 -8 13 10
11 24 -3 13 -13 17 -58 4 -58 -4 0 -8 -9 -9 -20 -1 -11 4 -20 13 -20 8 0 14
-8 14 -18 0 -11 9 -29 20 -42 11 -13 20 -29 20 -37 0 -8 4 -12 9 -9 5 4 12 -7
16 -24 4 -16 11 -30 16 -30 5 0 11 -11 15 -25 3 -14 10 -23 14 -20 17 11 22
-36 6 -54 -18 -20 -21 -36 -6 -26 6 3 13 -2 16 -12 3 -10 12 -32 20 -50 9 -20
14 -72 15 -150 1 -74 4 -109 9 -93 7 20 8 16 9 -22 1 -28 6 -50 15 -55 7 -4
16 -29 20 -54 7 -46 7 -47 -44 -107 -13 -14 -40 -16 -40 -2 0 6 -6 10 -13 10
-24 0 -46 34 -49 73 -1 21 -6 41 -10 43 -10 6 -137 -33 -155 -47 -7 -6 -13 -8
-13 -3 0 5 -4 3 -8 -3 -5 -7 -34 -18 -67 -24 -32 -6 -64 -17 -72 -25 -8 -8
-30 -14 -50 -14 -35 0 -93 -27 -93 -43 0 -5 -6 -7 -14 -4 -8 3 -22 -2 -32 -12
-34 -31 -53 -33 -60 -6 -3 14 -9 25 -13 25 -4 0 -8 7 -8 15 0 8 5 15 10 15 6
0 0 9 -13 20 -23 20 -76 29 -65 11 3 -6 -1 -13 -9 -18 -8 -4 -16 -19 -18 -33
-5 -42 -40 -37 -92 13 -36 34 -46 51 -46 75 0 18 -4 32 -9 32 -5 0 -12 13 -16
30 -4 16 -11 30 -16 30 -5 0 -11 11 -15 25 -3 14 -10 25 -15 25 -5 0 -9 6 -9
13 0 8 -9 22 -20 32 -11 10 -20 24 -20 32 0 7 -4 13 -10 13 -5 0 -10 9 -10 19
0 11 -7 26 -15 35 -8 8 -15 25 -15 38 0 37 -12 46 -60 50 l-45 3 1 73 c0 41 5
77 11 80 6 4 12 31 15 61 3 29 10 56 15 60 5 3 15 21 22 38 10 24 23 35 50 43
20 5 41 10 47 10 7 0 23 6 36 13 26 13 27 37 2 37 -8 0 -14 4 -14 8 0 5 -27
21 -60 37 -33 16 -60 32 -60 36 0 4 -3 14 -6 23 -5 12 0 16 19 16 36 0 57 -10
57 -27 0 -8 4 -11 10 -8 6 3 10 2 10 -2 0 -14 97 -63 125 -63 14 0 25 6 25 13
0 19 -56 77 -74 77 -9 0 -16 4 -16 10 0 5 -11 12 -25 16 -31 8 -44 43 -21 59
10 8 16 27 16 55 l0 42 -55 -4 c-38 -3 -59 0 -67 9 -6 7 -17 13 -24 13 -8 0
-14 4 -14 8 0 4 -11 9 -25 10 -14 1 -25 -3 -25 -8 0 -6 -12 -10 -27 -10 -14 0
-23 3 -20 7 4 4 -6 12 -22 19 -42 18 -120 77 -121 91 0 17 21 21 140 32 234
22 329 34 408 52 45 10 100 19 120 19 21 0 42 4 48 10 8 8 258 22 369 21 17
-1 50 6 75 14 52 17 246 37 278 28 16 -4 24 -15 28 -44 4 -21 10 -37 14 -34 4
3 14 -22 21 -55 7 -33 16 -60 20 -60 4 0 10 -12 13 -26 8 -29 29 -54 45 -54 6
0 11 -4 11 -10 0 -5 -4 -10 -10 -10 -5 0 -10 -11 -10 -25 0 -14 4 -25 10 -25
5 0 12 -16 16 -35 3 -19 10 -33 14 -30 5 3 11 1 15 -5 3 -5 17 -10 29 -10 38
0 94 -28 101 -50 3 -11 10 -20 15 -20 4 0 11 -23 15 -50 4 -28 10 -50 15 -50
4 0 10 -22 14 -50 4 -27 10 -50 15 -50 5 0 11 -22 15 -50 4 -27 10 -50 15 -50
5 0 11 -22 15 -50 4 -27 10 -50 15 -50 5 0 11 -27 15 -60 4 -33 11 -60 16 -60
4 0 11 -19 15 -42 4 -24 11 -45 15 -48 4 -3 11 -30 17 -60 8 -40 11 190 12
833 0 488 -1 887 -2 887 -2 0 -29 -9 -60 -19 -30 -11 -100 -25 -154 -32 -54
-7 -101 -17 -104 -21 -8 -12 -388 -11 -403 1 -6 5 -42 12 -81 16 -38 3 -101
13 -140 22 -38 9 -81 17 -95 18 -42 3 -139 36 -154 51 -10 10 -15 11 -18 2 -3
-8 -12 -4 -25 9 -12 12 -35 24 -52 28 -17 3 -33 11 -36 16 -4 5 -14 9 -24 9
-26 0 -98 37 -105 55 -3 8 -9 14 -13 13 -17 -5 -134 66 -177 108 -25 24 -57
51 -71 60 -14 9 -25 21 -25 26 0 5 -20 29 -45 54 -25 24 -45 51 -45 59 0 8 -4
15 -9 15 -5 0 -13 10 -17 22 -3 12 -13 28 -20 36 -8 7 -14 22 -14 32 0 10 -5
20 -10 22 -6 2 -14 29 -17 61 -3 32 -10 60 -14 63 -12 7 -12 74 0 74 5 0 11
23 13 51 3 28 11 55 17 59 7 4 12 10 12 14 -3 23 2 36 29 66 17 18 30 40 30
47 0 8 14 19 31 25 23 8 27 13 17 19 -14 9 -10 11 43 13 24 1 79 48 79 67 0 5
4 9 10 9 5 0 33 11 62 23 29 13 69 30 88 37 19 8 37 16 40 20 3 3 53 21 113
40 59 18 107 37 107 41 0 3 -35 7 -77 7 -43 0 -152 3 -243 5 -91 3 -291 -1
-445 -8 -481 -22 -589 -23 -608 -3 -24 24 -22 70 4 86 15 10 122 18 378 29
196 8 364 19 373 24 24 12 168 12 168 -1 0 -5 11 -10 25 -10 14 0 25 5 25 10
0 6 13 10 29 10 22 0 32 6 37 22 3 12 13 28 20 36 8 7 14 26 14 41 0 31 34 56
66 49 27 -5 20 -55 -12 -85 -38 -35 -30 -43 44 -43 99 1 206 17 273 41 55 20
60 21 99 5 47 -19 50 -19 50 -6 0 6 -6 10 -13 10 -17 0 -67 23 -67 32 0 12
-134 70 -203 88 -27 7 -51 19 -54 26 -2 7 -16 15 -31 19 -15 3 -64 24 -109 46
-46 21 -87 39 -93 39 -5 0 -10 4 -10 9 0 5 -11 12 -25 15 -24 6 -65 39 -65 51
0 7 70 -5 85 -14 6 -3 15 -6 20 -6 19 -1 130 -37 135 -44 7 -9 97 -51 110 -51
6 0 30 -9 52 -20 23 -11 50 -20 59 -20 10 0 25 -7 33 -16 9 -8 16 -13 16 -10
0 2 33 -6 74 -19 41 -12 87 -21 103 -19 23 4 24 3 8 -4 -18 -8 -16 -10 13 -16
17 -4 45 -5 61 -1 18 4 43 0 67 -11 22 -9 48 -16 60 -15 11 1 32 -9 45 -23 13
-14 27 -26 31 -26 3 0 45 -18 92 -40 47 -22 90 -40 96 -40 5 0 10 -3 10 -8 0
-8 73 -42 90 -42 6 0 10 5 10 10 0 6 -4 10 -9 10 -5 0 -12 14 -16 30 -4 17
-10 30 -14 30 -4 0 -13 17 -20 37 -14 38 -33 63 -47 63 -5 0 -18 10 -29 23
-18 21 -51 33 -140 52 -16 4 -32 10 -35 14 -3 4 -48 17 -100 30 -101 24 -242
70 -250 82 -7 10 -174 64 -262 84 -43 10 -75 22 -72 26 3 5 -1 9 -8 10 -7 0
-31 9 -53 20 l-40 19 35 -4 c55 -5 204 -38 210 -46 9 -12 142 -42 210 -47 36
-3 79 -11 95 -18 17 -7 46 -16 66 -19 21 -4 49 -16 63 -27 14 -11 27 -19 28
-19 4 2 60 -20 78 -31 8 -5 22 -12 30 -15 39 -15 78 -38 75 -44 -2 -3 64 -28
146 -55 82 -26 149 -52 149 -56 0 -4 42 -29 94 -54 92 -44 95 -47 98 -82 3
-31 9 -40 44 -57 22 -12 51 -31 65 -44 l24 -23 3 43 c3 37 0 46 -25 65 -15 13
-34 23 -40 23 -7 0 -13 4 -13 9 0 5 -20 19 -44 31 -25 12 -46 24 -48 28 -2 4
-21 16 -43 27 -22 11 -45 27 -52 35 -7 8 -13 11 -13 5 0 -5 -5 -3 -10 5 -5 8
-13 15 -17 16 -4 0 -30 11 -58 23 -27 13 -65 29 -82 36 -18 8 -33 18 -33 23 0
4 -16 14 -35 22 -19 8 -35 17 -35 22 0 4 -7 8 -17 8 -28 0 -197 54 -211 67 -7
7 -23 13 -35 13 -16 0 -18 3 -9 12 16 16 78 12 105 -7 12 -8 31 -15 43 -15 12
0 24 -6 27 -14 3 -7 18 -16 34 -19 15 -3 36 -9 46 -12 12 -5 17 -2 17 9 0 9
-4 16 -10 16 -6 0 -10 40 -10 100 0 55 4 100 8 100 10 0 30 149 42 314 5 66
13 122 18 125 8 6 33 249 32 318 0 17 5 33 10 35 6 2 13 55 17 121 3 64 9 117
14 117 4 0 10 61 14 135 4 74 11 135 15 135 4 0 11 41 14 90 4 50 11 90 16 90
4 0 11 64 15 143 4 78 11 144 16 147 4 3 11 58 15 123 4 64 10 117 15 117 4 0
11 40 14 88 7 86 8 88 41 110 41 26 113 42 195 42 l59 0 0 295 0 295 -4776 0
-4775 0 3 -312z m6318 -2167 c3 -5 23 -11 45 -14 141 -20 434 -84 445 -97 3
-3 25 -14 50 -25 65 -27 70 -35 19 -34 -69 1 -267 43 -279 60 -10 14 -129 45
-255 65 -16 3 -60 11 -97 19 -37 8 -80 15 -96 15 -18 0 -32 6 -36 16 -6 15 4
16 96 9 57 -4 105 -10 108 -14z m1320 -105 c0 -8 -7 -22 -16 -30 -24 -24 -101
-76 -113 -76 -6 0 -11 -4 -11 -8 0 -5 -17 -17 -37 -28 -21 -10 -41 -23 -45
-29 -4 -5 -13 -10 -20 -10 -15 0 -18 -30 -3 -30 6 0 19 -6 30 -12 19 -12 19
-12 -6 -13 -16 0 -29 7 -33 16 -5 12 -13 14 -33 9 -16 -4 -30 -10 -33 -14 -6
-9 -284 -101 -305 -101 -8 0 -15 -4 -15 -9 0 -4 -35 -14 -77 -21 -43 -8 -82
-15 -88 -16 -9 -3 -131 -29 -185 -39 -14 -3 -65 -10 -115 -16 -49 -7 -92 -16
-95 -20 -9 -14 -177 -16 -190 -3 -18 18 35 31 175 43 137 13 251 28 312 42 23
5 55 9 71 9 16 0 35 6 41 14 7 8 27 18 44 21 42 9 199 56 212 63 6 4 19 8 30
9 11 2 25 9 30 16 6 7 33 21 60 31 71 25 125 50 125 58 0 3 14 9 30 13 17 4
30 11 30 16 0 5 5 9 11 9 6 0 29 13 52 28 23 15 54 33 70 40 15 6 27 18 27 26
0 13 17 20 58 25 6 0 12 -5 12 -13z m-4877 -900 c6 -8 10 -8 13 1 4 8 11 7 25
-5 47 -39 66 -58 72 -75 10 -28 41 -17 45 16 3 27 34 39 47 17 3 -5 1 -10 -4
-10 -6 0 -11 -9 -11 -20 0 -11 5 -20 10 -20 6 0 10 -13 10 -29 0 -16 6 -36 14
-44 8 -7 17 -39 21 -70 4 -32 11 -57 15 -57 4 0 10 -14 14 -31 3 -17 25 -50
51 -75 25 -25 45 -50 45 -54 0 -5 28 -7 63 -5 34 3 185 7 336 9 272 4 290 6
291 38 0 11 -67 78 -79 78 -6 0 -11 5 -11 10 0 6 -7 10 -15 10 -8 0 -15 4 -15
9 0 5 -14 11 -32 15 -36 7 -98 -12 -98 -31 0 -18 -37 -16 -44 2 -3 8 -15 15
-26 15 -11 0 -20 3 -20 8 0 11 -59 42 -81 42 -10 0 -19 7 -19 15 0 8 6 15 14
15 32 0 25 49 -7 50 -20 0 -47 -22 -47 -38 0 -12 -9 -18 -25 -20 -34 -3 -45
25 -18 47 18 14 21 30 14 82 -1 8 -163 29 -227 29 -58 0 -88 14 -64 30 36 25
480 -31 480 -61 0 -3 19 -11 43 -18 23 -7 49 -14 59 -17 12 -3 18 4 23 26 5
21 13 30 26 30 10 0 19 5 19 11 0 6 6 9 12 7 7 -3 19 1 26 9 7 7 25 15 40 18
15 3 40 12 55 20 33 17 47 12 47 -16 0 -10 4 -19 9 -19 5 0 13 -9 16 -20 5
-16 15 -20 50 -20 35 0 45 -4 50 -20 3 -11 11 -20 16 -20 5 0 9 -9 9 -21 0
-11 -4 -17 -10 -14 -5 3 -10 2 -10 -3 0 -5 -25 -15 -55 -22 -30 -7 -55 -19
-55 -26 0 -14 -42 -26 -64 -18 -26 10 -18 -15 14 -48 17 -16 30 -34 30 -39 0
-9 8 -21 37 -53 26 -29 35 -107 23 -196 -7 -47 -10 -103 -8 -125 l3 -40 53 -3
c31 -2 52 1 52 7 0 15 19 13 36 -3 8 -9 14 -34 14 -61 0 -44 1 -47 23 -41 65
18 65 18 72 -3 9 -31 -2 -56 -33 -72 -29 -15 -54 -34 -84 -62 -10 -10 -32 -20
-48 -24 -21 -4 -27 -9 -21 -17 4 -6 11 -33 14 -59 4 -38 1 -50 -11 -54 -8 -4
-20 1 -27 10 -7 9 -15 14 -18 10 -4 -3 -7 0 -7 8 0 9 -9 25 -20 37 -11 12 -23
36 -27 54 -3 18 -10 37 -15 43 -5 5 -17 20 -27 33 l-19 23 -25 -23 c-14 -13
-34 -30 -45 -39 -11 -9 -21 -21 -23 -25 -6 -13 -76 -64 -88 -64 -6 0 -11 -5
-11 -11 0 -5 -5 -7 -11 -4 -6 4 -13 -2 -16 -13 -2 -11 -21 -28 -41 -38 -21
-11 -38 -22 -40 -26 -2 -4 -19 -10 -38 -14 -19 -3 -34 -10 -34 -15 0 -5 -7 -9
-15 -9 -8 0 -15 -3 -15 -8 0 -16 -205 -92 -251 -92 -15 0 -31 -5 -34 -10 -4
-6 -10 -8 -15 -5 -4 3 -10 -4 -13 -15 -4 -16 -14 -20 -44 -20 -21 0 -56 -6
-78 -14 -22 -7 -104 -21 -183 -31 -237 -29 -656 -8 -670 34 -4 12 16 12 124 5
153 -10 437 -11 514 -1 106 14 190 30 190 38 0 4 10 9 22 11 24 3 34 28 24 55
-5 13 -9 14 -18 5 -14 -14 -88 -16 -88 -2 0 5 18 14 40 20 52 14 61 30 16 30
-22 0 -36 -5 -36 -12 0 -10 -2 -10 -8 -1 -4 6 -25 13 -47 15 -70 5 -43 23 50
31 64 6 99 5 120 -3 30 -12 30 -12 8 -23 -22 -10 -40 -43 -30 -54 13 -12 55
34 61 67 6 39 -1 50 -33 53 -11 1 -23 8 -26 17 -3 9 -24 24 -48 34 -23 10 -56
25 -73 33 -29 13 -36 12 -76 -7 -25 -11 -56 -31 -68 -42 -20 -19 -41 -23 -154
-31 -72 -4 -169 -7 -216 -4 -72 3 -94 0 -145 -20 -33 -13 -80 -31 -105 -40
-25 -8 -47 -19 -50 -23 -3 -4 -25 -14 -50 -22 -41 -14 -45 -18 -42 -44 2 -33
-14 -65 -25 -49 -7 10 -28 21 -163 83 -25 12 -56 35 -70 53 -14 17 -35 43 -47
57 -13 14 -23 31 -23 38 0 8 -4 14 -10 14 -5 0 -10 6 -10 14 0 8 -7 22 -16 31
-9 9 -19 37 -22 63 -5 45 -20 72 -40 72 -5 0 -12 10 -16 23 -12 45 -6 66 24
84 17 9 33 25 36 35 3 10 9 18 14 18 4 0 11 16 14 35 4 19 11 35 16 35 6 0 10
8 10 18 0 11 9 29 20 42 11 12 22 31 25 41 4 10 33 46 66 80 32 33 59 64 59
67 0 4 29 25 65 47 49 30 64 45 62 60 -1 12 -11 21 -24 23 -13 2 -23 8 -23 13
0 21 -34 43 -62 40 -20 -2 -28 2 -28 13 0 9 -4 16 -10 16 -21 0 -9 30 15 36
14 3 29 12 33 19 10 19 59 7 65 -16 8 -30 25 -22 29 14 3 27 7 32 33 35 16 2
33 9 37 15 6 9 8 9 8 0 0 -18 25 -16 40 2 7 9 15 13 18 10 3 -3 11 0 18 6 6 5
24 7 38 3 22 -5 26 -12 26 -40 0 -38 16 -45 28 -13 8 20 9 20 25 4 9 -9 17
-21 17 -26 0 -5 7 -9 15 -9 8 0 15 4 15 8 0 5 12 15 28 23 15 8 35 22 46 31
10 9 35 25 55 34 20 9 50 28 67 41 17 12 36 23 42 23 7 0 12 5 12 10 0 6 18
10 40 10 22 0 40 -4 40 -10 0 -5 14 -10 31 -10 16 0 28 4 24 9 -13 22 102 19
118 -3z m1992 -6 c3 -11 11 -20 16 -20 24 0 4 -19 -46 -45 -30 -15 -55 -31
-55 -36 0 -5 -9 -9 -20 -9 -11 0 -20 5 -20 10 0 16 -27 12 -34 -6 -3 -8 -10
-13 -14 -10 -10 6 -52 -30 -52 -43 0 -5 11 -16 25 -25 51 -34 165 -7 165 39 0
13 7 25 15 29 12 4 15 -5 15 -55 0 -34 -4 -58 -9 -54 -5 3 -11 -5 -13 -17 -3
-25 -32 -35 -109 -37 -117 -3 -219 -69 -219 -143 0 -43 27 -76 81 -100 16 -7
29 -16 29 -20 0 -4 21 -10 47 -14 36 -5 43 -9 28 -14 -39 -14 -235 11 -235 30
0 4 -12 11 -26 14 -46 12 -153 89 -163 119 -6 15 -15 27 -20 27 -6 0 -11 9
-11 20 0 11 4 20 10 20 5 0 12 17 16 38 4 20 15 45 25 55 11 10 19 22 19 28 0
16 86 109 101 109 5 0 11 11 15 25 3 13 9 24 13 23 3 -1 13 1 21 4 8 3 31 10
50 17 49 16 178 41 217 41 17 0 35 5 38 10 3 6 26 10 50 10 35 0 45 -4 50 -20z
m1312 -70 c3 -11 9 -20 13 -20 4 0 11 -16 14 -35 4 -19 11 -35 16 -35 15 0 12
-30 -4 -46 -8 -8 -28 -14 -45 -14 -26 0 -31 4 -31 25 0 19 -6 25 -33 30 -43 8
-87 -9 -87 -34 0 -19 -18 -31 -46 -31 -35 0 11 58 79 98 15 9 27 22 27 28 0
14 58 54 78 54 8 0 16 -9 19 -20z m373 -34 c0 -19 5 -38 11 -42 14 -8 29 14
29 43 0 16 8 25 24 29 46 11 61 2 62 -40 1 -21 6 -41 13 -45 20 -13 -30 -31
-84 -30 -89 1 -146 -6 -153 -18 -14 -22 -52 -29 -98 -19 -53 13 -68 40 -35 65
26 20 18 31 -21 31 -25 0 -29 4 -26 23 3 20 9 22 78 24 41 1 69 0 63 -3 -7 -3
-13 -11 -13 -18 0 -6 -9 -20 -21 -29 -41 -36 -8 -56 60 -37 34 9 41 15 41 36
0 14 -4 22 -10 19 -5 -3 -10 -1 -10 6 0 18 32 38 63 39 24 0 27 -3 27 -34z
m1325 -66 c3 -5 -3 -15 -15 -22 -11 -7 -20 -17 -20 -22 0 -10 -42 -50 -73 -71
-16 -10 -83 -15 -250 -20 -125 -4 -230 -12 -233 -16 -3 -5 -47 -9 -99 -9 -85
0 -94 2 -100 20 -3 11 -11 20 -16 20 -18 0 -9 50 13 72 24 24 17 24 533 47
105 4 204 9 222 9 17 1 35 -2 38 -8z m-1067 -182 c83 -1 98 -9 65 -34 -13 -10
-62 -14 -178 -15 -88 -1 -191 -4 -230 -8 -59 -5 -70 -9 -74 -26 -2 -11 -7 -22
-12 -25 -5 -4 -12 -20 -15 -37 l-6 -32 78 6 c44 2 122 10 174 16 118 13 286
13 323 -2 24 -9 27 -16 27 -53 0 -50 -7 -63 -37 -72 -13 -4 -23 -12 -23 -17 0
-5 -13 -9 -30 -9 -16 0 -50 -7 -75 -16 -36 -12 -53 -13 -79 -4 -48 16 -444 16
-918 0 -223 -7 -413 -10 -422 -7 -11 5 -16 19 -16 52 0 38 4 47 23 54 12 5
206 14 430 21 375 12 409 12 425 -4 10 -9 22 -16 26 -16 16 0 33 27 40 62 4
20 12 39 19 42 9 5 9 7 0 12 -7 3 -13 14 -13 25 0 14 -7 19 -29 19 -33 0 -54
20 -45 43 8 21 47 29 81 16 29 -11 238 -4 323 11 25 4 54 6 65 3 11 -2 57 -4
103 -5z m-728 -37 c7 -9 21 -7 53 9 22 11 30 11 40 1 27 -27 -18 -38 -165 -40
-78 -1 -145 -6 -148 -11 -3 -5 -88 -11 -188 -12 l-183 -3 3 30 c2 24 8 31 31
33 18 2 29 -2 33 -12 5 -14 17 -15 73 -10 36 4 71 10 77 15 6 5 55 7 110 5 54
-2 119 -1 144 3 46 8 111 3 120 -8z m1595 -166 c4 -41 11 -75 16 -75 5 0 9
-34 9 -75 0 -60 -3 -75 -15 -75 -8 0 -15 5 -15 10 0 6 -11 21 -24 34 -19 17
-26 34 -28 77 l-3 54 -40 -2 c-22 -1 -127 -6 -233 -12 -132 -7 -200 -7 -213 0
-14 7 -19 21 -19 54 0 68 6 69 289 72 134 1 246 5 249 8 14 14 20 -1 27 -70z
m-2637 -101 c11 -11 18 -39 20 -83 4 -53 9 -70 28 -88 24 -22 33 -63 14 -63
-5 0 -10 -8 -10 -19 0 -23 -71 -35 -156 -25 -78 9 -106 27 -97 63 3 14 10 28
15 29 12 5 10 62 -2 62 -5 0 -10 20 -10 45 0 48 5 51 43 34 20 -9 32 -7 62 7
21 10 40 26 43 36 5 22 28 23 50 2z m2044 -154 c43 0 49 -2 39 -14 -7 -8 -36
-17 -64 -20 -94 -10 -527 -13 -527 -4 0 26 26 33 109 30 47 -1 149 1 226 6 77
5 146 7 153 5 8 -1 36 -3 64 -3z m588 -60 c0 -5 6 -10 14 -10 18 0 26 -22 26
-72 0 -38 -1 -40 -25 -34 -14 3 -37 8 -52 11 -69 14 -103 29 -109 48 -7 21 17
47 43 47 7 0 13 5 13 10 0 6 20 10 45 10 25 0 45 -4 45 -10z m-952 -55 c18
-19 23 -33 20 -67 l-3 -43 -58 3 c-110 5 -161 49 -108 93 48 42 117 48 149 14z
m-927 -23 c41 -39 -4 -78 -113 -98 -37 -6 -38 -5 -38 24 0 17 -6 32 -12 34 -9
3 -7 10 6 24 46 46 116 53 157 16z m-2413 -448 c27 -8 29 -43 5 -85 -22 -37
-70 -48 -117 -25 -19 9 -39 16 -45 16 -12 0 -16 49 -3 51 4 1 21 2 37 3 17 1
41 12 53 24 23 23 33 25 70 16z m-1503 -59 c26 -29 31 -29 55 -5 36 36 124 21
113 -20 -3 -11 -9 -20 -13 -20 -5 0 -11 -9 -15 -20 -8 -24 -50 -36 -110 -32
-30 3 -45 9 -45 18 0 8 -4 14 -10 14 -5 0 -10 7 -10 15 0 8 5 15 10 15 22 0 9
38 -15 44 -14 4 -25 10 -25 15 0 15 43 -1 65 -24z m858 -122 c-3 -25 0 -26
199 -49 32 -4 55 -11 52 -15 -3 -5 3 -9 14 -9 27 0 230 -58 272 -78 19 -9 44
-24 54 -34 28 -26 51 -30 91 -19 27 7 35 6 35 -4 0 -7 -6 -15 -12 -18 -18 -7
19 -35 55 -43 15 -4 27 -10 27 -15 0 -5 15 -9 33 -9 29 -1 30 -2 14 -14 -13
-10 -16 -21 -11 -40 3 -14 10 -26 15 -26 5 0 9 -5 9 -11 0 -6 15 -25 33 -42
24 -24 39 -31 62 -29 24 3 28 1 18 -9 -23 -23 -14 -44 28 -69 22 -14 45 -32
50 -41 4 -9 21 -20 36 -24 15 -3 30 -10 33 -15 3 -4 14 -10 25 -12 35 -6 56
-36 53 -76 -1 -20 -5 -39 -8 -42 -4 -3 -10 -18 -14 -34 l-7 -29 48 7 c26 4 64
8 83 9 30 2 35 6 38 30 2 15 7 27 11 27 4 0 8 14 9 31 1 18 4 35 6 38 3 3 355
7 784 9 l780 2 7 -37 c11 -63 15 -162 6 -133 -7 20 -9 15 -10 -27 -1 -33 3
-53 12 -56 9 -3 9 -7 1 -18 -17 -21 -24 -177 -25 -577 0 -200 -3 -361 -6 -358
-4 3 -12 -2 -19 -12 -12 -16 -52 -17 -596 -15 -321 2 -706 6 -856 9 l-274 6 4
67 3 66 -53 3 c-41 2 -58 9 -80 30 -25 25 -27 33 -25 96 1 38 6 72 11 75 10 7
32 199 32 278 0 28 4 53 10 55 15 5 18 124 3 121 -7 -2 -13 7 -14 20 0 21 -1
21 -9 2 -7 -17 -9 -17 -9 -2 -1 18 -21 25 -21 7 0 -5 -7 -10 -16 -10 -9 0 -14
-6 -11 -12 2 -7 14 -12 26 -11 16 2 21 -3 21 -21 0 -24 -24 -41 -41 -30 -5 3
-9 -3 -9 -13 0 -10 14 -27 30 -36 33 -20 40 -56 15 -81 -8 -8 -15 -18 -15 -23
0 -5 -8 -16 -17 -25 -33 -30 -43 -47 -43 -68 0 -11 -8 -24 -17 -27 -10 -4 -20
-9 -23 -13 -3 -3 -21 -17 -40 -30 -19 -14 -43 -35 -53 -47 -10 -13 -27 -23
-37 -23 -11 0 -23 -6 -27 -14 -4 -7 -27 -25 -50 -40 -24 -14 -43 -31 -43 -38
0 -6 -3 -8 -6 -5 -4 4 -19 -1 -33 -11 -14 -10 -39 -19 -55 -21 -17 -2 -40 -7
-54 -12 -13 -5 -47 -9 -77 -9 -30 0 -55 -5 -57 -11 -2 -6 -18 -13 -36 -15 -18
-2 -48 -15 -66 -29 -18 -14 -40 -25 -48 -25 -18 0 -120 -34 -165 -55 -17 -8
-36 -15 -42 -15 -6 0 -11 -4 -11 -9 0 -5 -28 -16 -62 -25 -35 -10 -79 -22 -98
-27 -74 -21 -158 -38 -222 -45 -37 -3 -65 -10 -63 -14 19 -30 -634 -32 -654
-2 -3 5 -26 12 -51 16 -75 11 -143 28 -190 48 -77 34 -94 43 -110 59 -9 8 -37
25 -62 37 -24 12 -59 34 -76 50 -17 15 -47 40 -66 56 -20 16 -38 38 -42 48 -5
17 -18 32 -79 99 -8 9 -15 21 -15 28 0 6 -12 23 -27 37 -20 19 -33 23 -57 19
-53 -9 -166 61 -166 102 0 8 -4 12 -9 9 -4 -3 -11 13 -13 37 -7 57 0 151 12
155 5 2 12 19 16 38 3 18 10 31 15 28 5 -3 9 5 9 18 0 25 21 58 54 87 10 9 26
24 35 34 8 9 23 17 33 17 9 0 20 5 23 10 3 6 14 10 24 10 23 0 81 52 81 73 0
10 9 25 20 34 11 10 20 23 20 30 0 7 8 21 18 31 9 10 24 29 32 41 8 13 23 32
32 43 10 12 18 26 18 33 0 6 11 18 25 25 16 9 25 22 25 37 0 18 8 27 30 34 17
6 30 15 30 20 0 5 6 9 14 9 19 0 96 72 96 90 0 13 2 13 10 0 8 -13 10 -12 10
3 0 22 -39 23 -55 0 -8 -11 -18 -14 -31 -8 -10 4 -22 7 -26 7 -14 -3 -8 21 9
40 9 10 25 18 36 18 31 0 107 40 107 56 0 8 4 14 9 14 5 0 26 16 46 35 20 19
50 40 66 47 16 7 29 16 29 20 0 5 6 8 13 8 7 0 28 8 47 19 19 10 46 22 60 26
14 4 43 15 65 25 22 10 61 28 86 39 46 21 92 26 146 15 25 -5 29 -10 25 -30
-3 -15 0 -24 8 -24 32 0 196 24 200 30 3 3 61 15 130 25 105 16 170 21 333 25
9 0 17 6 17 14 0 16 17 26 40 22 9 -1 14 -11 13 -23z m2896 -33 c63 0 118 3
123 6 5 3 27 3 49 -1 30 -5 39 -11 37 -23 -3 -14 -22 -18 -113 -24 -61 -4
-117 -8 -125 -9 -26 -2 -104 3 -122 8 -21 5 -24 39 -5 46 6 3 19 3 27 0 8 -2
66 -4 129 -3z m2449 -13 c41 -7 70 -15 66 -20 -4 -4 -1 -7 7 -7 8 0 20 5 27
12 9 9 13 8 18 -5 3 -9 40 -27 85 -42 43 -15 81 -31 85 -36 3 -5 9 -7 13 -4 5
2 29 -15 54 -39 24 -24 56 -52 71 -61 16 -10 26 -27 26 -40 0 -21 -7 -25 -57
-35 -32 -7 -71 -16 -87 -21 -16 -5 -44 -9 -61 -9 -18 0 -55 -7 -83 -16 -59
-19 -88 -14 -73 13 14 28 -18 93 -46 93 -12 0 -28 -8 -35 -18 -20 -26 -74 -28
-88 -3 -6 12 -16 20 -23 18 -7 -1 -13 10 -15 25 -2 21 -10 28 -34 33 -18 4
-32 15 -35 26 -3 10 -9 16 -14 13 -5 -3 -9 10 -9 29 0 19 -3 48 -6 65 -5 24
-2 31 12 35 34 9 128 6 202 -6z m-3986 -109 c42 -24 65 -58 39 -58 -5 0 -11
-12 -14 -28 -4 -20 -15 -31 -40 -40 -45 -16 -56 -15 -104 8 -50 24 -53 27 -46
64 5 27 8 28 45 22 34 -6 44 -3 65 19 30 29 27 29 55 13z m3406 -364 c15 -4
25 -17 29 -35 3 -16 9 -26 14 -23 5 3 9 -13 9 -36 0 -25 -4 -39 -10 -35 -16
10 -12 -25 5 -41 8 -9 15 -26 15 -39 0 -13 5 -25 12 -27 10 -4 17 -23 20 -55
1 -7 4 -11 6 -8 13 12 42 -31 42 -61 0 -31 33 -101 54 -116 5 -3 10 -29 11
-55 1 -32 9 -62 23 -85 12 -19 22 -47 22 -62 0 -14 4 -26 10 -26 5 0 12 -11
16 -25 3 -14 10 -25 14 -25 5 0 11 -18 15 -40 4 -22 11 -40 15 -40 5 0 11 -13
15 -30 4 -16 11 -30 15 -30 10 0 26 -66 22 -87 -2 -7 1 -13 7 -13 5 0 9 -10 9
-22 -1 -77 23 -148 51 -148 6 0 11 -7 11 -15 0 -8 -4 -15 -10 -15 -5 0 -10 -7
-10 -15 0 -8 4 -15 9 -15 12 0 31 -56 31 -90 0 -15 7 -33 15 -40 8 -7 15 -21
15 -31 0 -11 5 -19 10 -19 6 0 10 -9 10 -20 0 -11 6 -23 14 -26 8 -3 17 -16
20 -30 4 -13 11 -24 16 -24 5 0 12 -16 16 -35 3 -19 10 -35 15 -35 5 0 9 -8 9
-17 0 -10 9 -33 20 -51 11 -18 20 -39 20 -48 0 -8 4 -13 9 -10 10 7 21 -27 21
-66 0 -16 4 -28 8 -28 12 0 32 -47 32 -75 0 -14 -4 -25 -10 -25 -23 0 -57 23
-72 51 -9 16 -30 35 -45 42 -40 17 -60 40 -68 76 -4 17 -10 31 -15 31 -5 0
-12 20 -16 45 -3 25 -10 45 -14 45 -4 0 -12 25 -19 55 -7 30 -17 55 -22 55 -5
0 -12 18 -15 40 -4 22 -10 38 -14 35 -4 -3 -10 13 -14 35 -3 22 -11 40 -16 40
-6 0 -10 17 -10 38 0 26 -8 48 -23 65 -22 26 -27 27 -125 27 -107 0 -104 -1
-170 58 -21 19 -27 34 -30 85 -3 34 -9 65 -14 68 -5 3 -12 94 -15 202 -3 109
-9 197 -13 197 -9 0 -30 117 -30 168 0 22 -4 44 -10 47 -14 9 -12 74 3 90 36
38 48 58 39 64 -6 3 -13 28 -17 54 -4 26 -13 53 -20 60 -14 14 -29 110 -18
120 8 9 40 9 71 1z m682 -1979 c0 -5 13 -16 30 -23 16 -8 28 -18 27 -24 -7
-37 248 -33 873 12 221 16 255 16 246 1 -5 -8 -57 -16 -176 -27 -30 -3 -84 -9
-120 -14 -36 -5 -114 -12 -175 -16 -62 -4 -113 -12 -117 -18 -5 -7 -8 -6 -8 4
0 10 -3 11 -8 3 -8 -12 -221 -31 -464 -40 l-148 -6 0 27 c0 26 4 29 65 52 l20
7 -20 4 c-67 13 -65 11 -65 58 0 44 0 44 20 28 11 -10 20 -22 20 -28z m-3560
-157 l85 -2 -75 -5 -75 -6 -3 -45 c-2 -24 -9 -48 -15 -52 -7 -4 -54 -8 -104
-8 -90 0 -93 1 -99 24 -13 53 -4 61 64 57 54 -3 61 -1 56 13 -3 9 -11 16 -18
17 -6 0 -2 4 9 9 11 5 36 7 55 5 19 -3 73 -6 120 -7z m3655 -58 c-4 -6 7 -10
27 -10 25 0 29 3 18 10 -10 7 16 9 82 9 54 -1 95 -6 92 -10 -3 -5 112 -9 258
-9 145 0 292 -5 327 -11 61 -9 118 -32 133 -54 4 -5 23 -10 43 -11 37 -1 64
-18 51 -31 -4 -5 -273 -8 -597 -8 -459 0 -591 3 -597 12 -5 8 -32 12 -76 12
-75 -1 -84 2 -62 24 8 8 12 17 9 20 -3 3 8 9 23 12 16 4 39 10 52 15 14 6 31
6 46 -1 19 -9 29 -8 47 5 13 9 38 16 56 16 18 0 33 5 33 10 0 6 9 10 21 10 11
0 17 -4 14 -10z m805 -181 c151 -6 298 -11 327 -10 56 1 65 -4 57 -36 -5 -18
-33 -37 -119 -81 -16 -9 -32 -18 -35 -21 -5 -6 -29 -18 -85 -41 -16 -7 -63
-14 -104 -16 -117 -5 -138 -12 -132 -47 1 -4 -11 -13 -26 -19 -35 -16 -46 -30
-30 -40 7 -5 2 -8 -13 -8 -14 0 -35 -7 -47 -15 -12 -9 -28 -14 -34 -13 -7 2
-13 -2 -14 -9 0 -19 -7 -22 -106 -47 -118 -29 -152 -35 -261 -41 -48 -2 -97
-9 -108 -15 -47 -24 -57 -27 -106 -39 -80 -19 -257 -28 -556 -29 -234 0 -282
2 -312 16 -20 9 -36 22 -36 29 0 7 -12 16 -27 19 -15 4 -34 13 -41 21 -7 7
-23 14 -35 14 -49 3 -76 8 -111 23 -21 9 -59 18 -87 22 -27 4 -49 10 -49 14 0
4 -11 11 -25 14 -24 6 -33 25 -18 40 13 13 10 51 -5 62 -25 18 52 40 83 24 27
-14 80 -5 69 11 -4 6 0 15 7 20 10 6 11 9 2 9 -7 0 -13 4 -13 10 0 5 21 8 48
5 52 -4 142 -26 142 -35 0 -3 19 -4 43 -2 31 2 38 1 27 -7 -8 -6 -24 -11 -35
-11 -18 -1 -18 -2 3 -11 25 -10 72 -2 72 11 0 5 -6 11 -12 13 -10 4 -9 8 2 16
12 8 10 14 -14 32 -24 19 -26 23 -12 31 9 5 13 15 9 25 -4 10 -2 14 5 9 6 -3
13 -2 16 3 10 16 -24 41 -57 42 -24 1 -26 3 -9 6 12 3 19 9 16 15 -5 7 5 9 30
4 20 -4 36 -3 36 2 0 10 141 31 230 35 195 8 1222 5 1450 -4z m-4905 -10 c55
-6 125 -13 155 -16 30 -3 59 -11 65 -18 19 -24 83 -36 207 -41 119 -4 170 -10
344 -40 44 -8 99 -14 121 -14 23 0 43 -4 45 -9 2 -5 71 -19 153 -30 83 -12
177 -26 210 -31 33 -6 107 -17 165 -26 58 -8 107 -19 108 -25 2 -5 16 -9 30
-9 15 0 95 -12 177 -26 153 -25 198 -33 340 -55 44 -7 82 -16 85 -19 3 -4 43
-13 90 -19 47 -7 121 -19 165 -26 44 -8 123 -19 175 -26 102 -12 163 -24 195
-39 11 -5 57 -13 103 -19 46 -5 86 -12 90 -16 4 -4 7 -48 7 -99 l0 -92 -37
-37 c-41 -44 -103 -61 -114 -33 -3 9 -10 13 -15 10 -5 -3 -9 6 -9 20 0 22 -4
26 -32 27 -32 0 -83 16 -63 19 11 1 -61 23 -135 40 -25 6 -49 16 -55 23 -5 7
-29 19 -52 26 -24 8 -43 17 -43 21 0 12 -155 49 -255 61 -38 5 -92 13 -120 19
-27 5 -86 12 -130 16 -44 4 -85 11 -91 15 -6 5 -67 14 -135 19 -185 14 -495
48 -537 59 -20 5 -63 12 -95 15 -32 3 -65 13 -73 21 -10 9 -34 15 -62 15 -46
0 -160 18 -277 45 -33 7 -93 19 -132 26 -40 7 -73 17 -73 21 0 4 -17 10 -37
13 -21 4 -63 16 -93 27 -93 33 -121 38 -247 38 -68 0 -123 4 -123 8 0 5 -21 9
-47 10 -64 3 -103 12 -103 23 0 5 -7 9 -15 9 -8 0 -15 4 -15 9 0 5 -9 11 -20
14 -17 4 -20 14 -20 56 l0 51 63 0 c34 -1 107 -5 162 -11z m615 -489 c25 -5
85 -15 134 -24 48 -8 93 -19 100 -24 6 -5 35 -12 65 -15 30 -4 58 -12 61 -18
4 -6 37 -13 73 -15 37 -3 85 -11 108 -19 23 -8 56 -15 73 -15 17 0 52 -7 78
-15 27 -8 67 -17 90 -21 24 -3 54 -8 68 -10 14 -3 32 -5 40 -7 8 -1 26 -10 40
-19 14 -9 45 -22 70 -28 25 -7 50 -15 55 -19 6 -4 31 -9 57 -10 26 -1 75 -11
110 -22 35 -10 80 -19 101 -19 21 0 36 -4 33 -9 -7 -11 28 -21 81 -21 23 0 54
-5 70 -11 30 -12 187 -42 313 -60 41 -6 83 -14 92 -19 16 -9 43 -13 163 -25
45 -4 56 -3 45 5 -11 8 5 10 64 5 83 -7 120 -17 131 -35 11 -17 78 -41 101
-36 22 6 85 -11 94 -25 6 -8 71 -15 245 -25 61 -4 118 -11 127 -15 9 -5 60
-18 113 -28 54 -11 101 -23 107 -29 11 -11 -1 -132 -13 -132 -5 0 -9 -9 -9
-19 0 -11 -7 -26 -15 -35 -8 -8 -15 -19 -15 -25 0 -6 -9 -11 -19 -11 -11 0
-21 -5 -23 -12 -3 -9 -11 -9 -34 0 -16 6 -63 13 -104 16 -42 2 -123 17 -180
34 -58 16 -127 35 -153 41 -27 7 -57 20 -68 30 -18 16 -154 64 -219 76 -14 3
-40 8 -57 11 -18 3 -31 9 -28 13 2 4 -31 13 -73 20 -42 7 -99 16 -127 21 -27
5 -79 13 -115 19 -36 6 -78 13 -95 16 -16 3 -61 10 -100 16 -38 6 -72 14 -75
18 -3 4 -117 25 -255 46 -137 21 -259 40 -270 42 -11 3 -54 7 -95 10 -41 3
-77 9 -80 14 -6 8 -65 17 -285 45 -66 8 -136 19 -155 24 -19 5 -80 14 -135 20
-68 8 -103 17 -111 27 -6 9 -15 13 -21 10 -6 -4 -37 0 -69 7 -61 14 -159 32
-229 41 -63 8 -82 13 -104 25 -33 17 -68 56 -75 84 -3 14 -11 26 -16 26 -6 0
-10 9 -10 20 0 11 7 20 15 20 10 0 15 10 15 30 0 17 7 33 18 39 21 13 219 13
282 1z"/>
<path d="M3821 5624 c-30 -8 -59 -18 -65 -23 -6 -5 -22 -12 -36 -16 -14 -4
-29 -13 -35 -20 -5 -7 -53 -27 -106 -45 -53 -18 -109 -43 -125 -56 -15 -14
-45 -27 -66 -30 -38 -7 -51 -27 -23 -38 8 -3 15 -12 15 -21 0 -8 5 -15 10 -15
15 0 12 -39 -4 -56 -8 -8 -17 -14 -20 -14 -3 0 -15 -9 -26 -20 -11 -11 -27
-20 -35 -20 -8 0 -15 -4 -15 -9 0 -5 -9 -11 -21 -14 -17 -4 -19 -10 -14 -29 4
-13 11 -25 15 -28 4 -3 10 -25 14 -48 3 -24 13 -51 21 -59 9 -9 15 -33 15 -62
0 -51 13 -71 45 -71 27 0 154 66 184 96 13 13 35 27 48 30 12 4 23 10 23 15 0
4 14 16 30 26 17 9 30 22 30 28 0 5 16 26 36 45 l36 35 -81 3 -81 3 7 27 c3
14 10 31 15 37 5 5 17 21 28 34 11 13 20 33 20 44 0 11 3 17 7 14 8 -9 33 59
33 91 0 12 6 22 14 22 8 0 16 5 18 11 5 16 95 24 112 9 8 -6 24 -9 36 -5 17 5
20 15 20 61 0 30 -4 54 -9 54 -5 0 -11 6 -13 14 -3 11 -11 11 -57 0z"/>
<path d="M3299 5618 c-39 -15 -14 -33 49 -36 52 -2 62 -6 62 -21 0 -13 -12
-22 -42 -30 -24 -7 -51 -18 -61 -26 -18 -13 -18 -14 2 -34 21 -21 41 -28 41
-13 0 10 54 34 136 62 32 11 69 25 82 32 22 11 31 38 12 38 -5 0 -10 9 -10 21
0 20 -4 20 -125 17 -69 -2 -134 -6 -146 -10z"/>
<path d="M1820 5571 c0 -4 -16 -25 -35 -45 -26 -28 -35 -46 -35 -72 0 -19 -4
-33 -9 -30 -7 5 -20 -23 -21 -44 0 -3 36 -4 79 -3 l79 3 0 -45 c-1 -29 5 -52
15 -63 34 -37 16 -73 -51 -103 -19 -8 -32 -21 -32 -31 0 -21 16 -23 35 -5 43
37 44 38 65 25 38 -24 25 -45 -34 -52 -46 -6 -55 -11 -58 -29 -3 -24 -25 -32
-47 -18 -7 5 -16 29 -18 55 -5 36 -9 46 -24 46 -11 0 -19 -7 -19 -15 0 -20 22
-65 32 -65 4 0 8 -6 8 -13 0 -13 10 -27 58 -82 9 -11 33 -32 52 -45 19 -14 43
-33 52 -42 10 -10 24 -18 32 -18 13 0 66 57 66 72 0 4 5 8 11 8 12 0 48 40 49
53 0 5 24 32 54 60 29 29 56 62 60 75 4 12 12 20 17 17 5 -4 9 0 9 8 0 26 -44
40 -107 32 -48 -5 -67 -3 -94 12 -52 28 -51 61 5 117 25 25 52 46 60 46 10 0
16 9 16 25 0 14 -4 25 -9 25 -5 0 -11 12 -14 28 -5 25 -39 45 -117 67 -3 1
-22 9 -42 18 -21 10 -42 17 -48 17 -5 0 -10 5 -10 10 0 6 -7 10 -15 10 -8 0
-15 -4 -15 -9z"/>
<path d="M2720 4466 c0 -7 24 -29 53 -48 44 -30 65 -36 130 -42 42 -4 77 -12
77 -17 0 -5 8 -9 18 -9 24 0 93 -25 101 -37 3 -5 22 -20 41 -33 19 -13 38 -29
42 -35 5 -6 8 -6 8 3 0 7 14 12 35 12 34 0 43 12 27 36 -8 12 -94 54 -111 54
-6 0 -11 4 -11 9 0 9 -78 41 -185 75 -27 9 -83 19 -122 23 -40 3 -73 10 -73
14 0 5 -7 9 -15 9 -8 0 -15 -6 -15 -14z"/>
<path d="M2385 4450 c-11 -5 -36 -9 -55 -10 -38 -1 -167 -48 -135 -49 11 -1
42 6 69 14 69 21 77 20 74 -13 -1 -15 1 -33 6 -40 4 -8 -3 -16 -21 -24 -29
-12 -73 -55 -73 -70 0 -5 -7 -17 -16 -25 -18 -19 -12 -92 9 -105 6 -4 12 -26
12 -48 l0 -42 57 6 c46 4 58 2 58 -10 0 -8 -10 -14 -25 -14 -36 0 -113 -39
-120 -60 -6 -20 3 -51 19 -62 19 -13 95 -9 134 7 l37 15 -25 -20 c-14 -11 -33
-20 -42 -20 -9 0 -28 -5 -42 -11 -20 -10 -34 -8 -71 5 -50 20 -63 44 -46 89
13 34 -1 36 -66 6 -25 -12 -76 -26 -112 -32 -36 -6 -68 -13 -71 -16 -3 -3 -17
-12 -33 -20 -48 -25 -97 -84 -97 -118 0 -12 -4 -23 -10 -23 -5 0 -10 -18 -10
-40 0 -28 -6 -45 -20 -57 -11 -10 -20 -23 -20 -31 0 -7 -4 -11 -9 -8 -5 3 -11
-5 -15 -17 -3 -13 -13 -33 -23 -45 -42 -50 -53 -67 -53 -82 0 -13 -1 -13 -10
0 -8 13 -10 12 -10 -3 0 -10 -10 -21 -23 -26 -25 -10 -58 -35 -118 -93 -22
-20 -39 -35 -39 -32 0 2 -19 -15 -42 -38 -72 -73 -116 -98 -174 -98 -90 0
-114 -9 -114 -40 0 -25 -4 -28 -49 -34 -26 -3 -59 -15 -71 -26 -13 -11 -31
-20 -42 -20 -10 0 -18 -4 -18 -9 0 -13 82 -25 122 -17 44 8 67 -6 46 -27 -15
-16 -13 -72 3 -83 14 -8 10 -24 -6 -24 -8 0 -15 5 -15 10 0 6 -6 10 -14 10 -8
0 -16 6 -19 14 -5 13 -66 31 -75 22 -9 -10 76 -97 111 -116 16 -8 38 -24 50
-36 33 -33 112 -74 143 -74 15 0 50 -15 78 -32 28 -18 53 -33 56 -34 3 0 12
-3 20 -6 17 -6 77 -23 133 -37 21 -5 47 -7 57 -3 17 6 13 11 -25 36 -25 15
-45 33 -45 40 0 19 -55 46 -97 46 -70 1 -137 23 -170 56 -21 23 -47 36 -87 45
-31 7 -56 15 -56 18 0 3 48 6 107 5 68 -1 122 4 147 12 21 8 52 15 68 16 17 1
33 8 35 16 4 8 19 13 42 11 20 -1 49 3 64 10 16 6 40 11 55 11 15 0 60 9 100
20 85 24 128 25 148 5 8 -8 21 -12 29 -9 17 7 20 24 5 24 -5 0 -10 7 -10 15 0
16 55 22 64 6 3 -5 25 -6 50 -4 26 3 46 1 50 -6 4 -6 21 -11 37 -11 16 0 45
-7 65 -15 19 -8 88 -22 154 -32 65 -9 116 -21 114 -25 -3 -4 -2 -8 3 -8 14 -1
136 -19 163 -24 14 -3 57 -7 95 -9 109 -8 155 13 225 100 6 7 10 32 10 56 l0
44 104 -5 c70 -3 105 -1 110 7 4 6 1 11 -8 11 -12 0 -16 11 -17 38 -1 20 -3
30 -6 20 -6 -23 -30 -30 -47 -13 -8 8 -22 15 -30 15 -10 0 -16 9 -16 25 0 29
-29 40 -88 32 -45 -5 -90 18 -98 50 -4 13 -10 23 -14 23 -5 0 -11 14 -15 30
-4 17 -11 30 -16 30 -5 0 -11 11 -15 25 -3 14 -10 25 -14 25 -5 0 -12 10 -16
23 -4 12 -17 32 -30 44 -27 25 -43 85 -44 161 0 28 -4 52 -10 52 -5 0 -10 9
-10 20 0 11 3 20 8 20 8 0 32 70 32 94 0 8 6 17 13 19 10 4 10 6 0 6 -7 1 -13
11 -14 24 -1 30 -24 93 -33 88 -11 -6 -134 21 -151 33 -14 10 -7 15 44 30 40
12 61 23 61 33 0 25 -101 13 -130 -15 -13 -12 -36 -22 -52 -22 -24 0 -28 -4
-28 -30 0 -19 -5 -30 -14 -30 -8 0 -13 11 -13 27 0 14 -8 32 -17 38 -24 18
-19 25 13 15 25 -7 30 -5 37 13 21 62 22 64 23 40 1 -18 7 -23 30 -23 73 0 85
35 16 46 -25 3 -45 9 -45 13 0 7 37 41 46 41 3 0 16 12 29 26 21 23 24 35 22
86 -3 61 -14 78 -49 78 -22 0 -24 38 -3 46 20 8 19 44 -2 60 -20 15 -97 17
-128 4z m78 -129 c17 -17 12 -72 -8 -87 -24 -18 -95 -17 -119 1 -33 25 -20 79
24 98 21 9 90 1 103 -12z m-531 -722 c-2 -19 -8 -35 -13 -37 -5 -2 -9 -25 -9
-52 0 -29 -6 -54 -15 -63 -7 -8 -17 -26 -21 -41 -3 -14 -10 -26 -15 -26 -5 0
-9 -8 -9 -19 0 -25 -38 -64 -80 -81 -19 -8 -41 -20 -48 -27 -8 -8 -39 -13 -82
-13 -38 0 -71 -4 -74 -9 -3 -5 -25 -12 -49 -15 -24 -4 -53 -15 -64 -26 -11
-10 -39 -24 -62 -31 -22 -7 -41 -16 -41 -21 0 -4 -9 -8 -20 -8 -30 0 -24 27 7
35 15 3 38 15 52 25 14 10 28 18 31 18 17 2 47 19 65 37 11 11 52 36 90 55 39
19 74 41 78 48 4 6 15 12 22 12 8 0 15 4 15 9 0 5 9 13 21 16 23 8 99 78 99
92 0 9 18 34 58 81 13 15 28 40 34 55 14 38 34 29 30 -14z m359 8 c20 -12 32
-58 22 -84 -13 -33 -76 -83 -106 -83 -14 0 -10 7 18 32 19 18 35 39 35 45 0 7
5 13 10 13 6 0 2 10 -9 21 -17 18 -28 21 -68 17 -120 -12 -145 -103 -33 -121
14 -2 -1 -4 -33 -4 -52 0 -58 2 -63 23 -3 13 -10 24 -15 24 -5 0 -9 9 -9 20 0
11 5 20 10 20 6 0 10 6 10 14 0 7 9 16 20 19 11 3 20 12 20 20 0 36 143 54
191 24z m228 -37 c5 0 11 -25 15 -56 3 -30 12 -62 19 -70 6 -8 26 -31 44 -50
17 -20 33 -39 35 -43 2 -4 24 -22 51 -40 26 -17 47 -37 47 -44 0 -11 105 -85
123 -86 11 -1 47 -40 47 -52 0 -12 -71 -3 -80 10 -3 4 -23 15 -45 25 -22 10
-44 24 -50 30 -16 19 -135 53 -189 55 -27 0 -52 5 -55 9 -3 5 -16 14 -28 21
-13 6 -23 19 -23 27 0 8 -5 12 -11 8 -8 -5 -8 -1 0 13 6 11 13 53 17 93 3 42
12 79 20 87 8 8 14 22 14 32 0 24 34 65 38 46 2 -8 7 -15 11 -15z"/>
<path d="M5257 3853 c-84 -4 -88 -5 -100 -31 -6 -15 -24 -40 -40 -56 -21 -21
-27 -37 -25 -59 3 -29 8 -33 61 -49 59 -18 107 -52 107 -76 0 -7 4 -11 9 -8 5
3 11 -1 15 -9 4 -11 21 -14 75 -12 38 1 72 -1 76 -5 7 -7 -30 -48 -43 -48 -19
0 -29 -45 -20 -90 10 -48 2 -130 -12 -130 -4 0 -8 -33 -8 -72 0 -72 -1 -73
-38 -105 -21 -17 -42 -29 -46 -27 -4 3 -8 -4 -8 -16 0 -12 5 -18 10 -15 6 3
10 2 10 -4 0 -6 6 -8 13 -6 18 6 51 -45 49 -75 -2 -24 0 -25 38 -22 23 2 40 9
40 16 0 7 7 13 15 13 8 0 15 -9 15 -19 0 -10 5 -18 10 -18 6 0 10 -7 10 -15 0
-8 6 -15 14 -15 13 0 26 102 26 218 0 32 4 51 10 47 9 -5 20 652 11 683 -3 12
-52 13 -274 5z"/>
<path d="M4036 3834 c-3 -9 -6 -35 -6 -58 0 -23 -4 -46 -9 -51 -6 -6 -13 -41
-17 -80 -4 -38 -12 -74 -18 -78 -8 -6 -7 -10 2 -14 6 -2 12 -18 12 -34 0 -27
3 -29 39 -29 22 0 46 6 53 13 7 7 23 13 36 14 12 0 31 1 42 2 10 1 38 19 62
42 52 49 94 80 100 74 3 -3 17 6 31 19 15 14 27 22 27 18 1 -19 20 26 20 46 0
13 4 21 9 17 5 -3 11 5 13 17 3 20 9 23 48 24 25 1 50 -1 55 -5 17 -9 35 -10
29 0 -3 5 2 19 10 31 30 43 5 47 -275 48 -225 0 -258 -2 -263 -16z"/>
<path d="M3970 3357 c0 -16 -4 -26 -9 -23 -4 3 -13 -47 -20 -112 -6 -64 -16
-118 -21 -120 -6 -2 -10 -21 -10 -43 0 -22 -6 -55 -14 -74 -8 -19 -18 -67 -22
-107 -4 -40 -11 -76 -15 -79 -5 -3 -11 -28 -13 -56 l-5 -50 137 -7 c370 -20
1418 -13 1441 9 14 15 -32 21 -212 25 -111 3 -208 9 -214 13 -22 14 -15 46 10
51 12 3 73 7 135 11 81 4 118 10 129 20 8 8 10 15 4 15 -6 0 -11 7 -11 15 0 8
-8 15 -17 16 -12 0 -13 2 -5 6 16 6 -3 33 -25 33 -7 0 -16 7 -19 15 -8 19 -74
21 -74 3 0 -9 -4 -8 -10 2 -8 13 -10 13 -10 -1 0 -47 -189 -88 -424 -93 -73
-2 -111 -7 -114 -14 -5 -17 -33 -15 -72 5 -19 9 -46 16 -62 16 -16 0 -28 6
-28 13 0 19 -52 26 -124 19 -53 -6 -64 -5 -69 10 -4 9 -3 14 3 10 6 -4 10 10
10 33 0 31 -5 41 -25 52 -13 7 -37 31 -52 54 -15 23 -31 43 -34 46 -3 3 -9 26
-13 53 -4 26 -11 45 -15 42 -5 -2 -11 8 -14 24 -4 20 -13 31 -29 34 l-23 4 23
2 c17 1 22 7 22 26 0 14 7 28 15 31 20 8 19 48 -1 65 -9 7 -32 12 -51 10 -22
-2 -39 2 -44 11 -6 9 -9 4 -9 -15z"/>
<path d="M1885 2922 c-6 -5 -35 -14 -65 -22 -69 -16 -190 -78 -190 -98 0 -11
10 -13 48 -8 69 8 72 9 72 16 0 4 18 12 41 19 101 30 190 101 127 101 -13 0
-28 -4 -33 -8z"/>
<path d="M2060 2906 c0 -17 11 -31 35 -46 42 -26 47 -47 5 -25 -16 8 -35 15
-43 15 -15 0 -27 -29 -27 -67 0 -13 -5 -23 -10 -23 -12 0 -10 59 2 66 4 3 8
10 8 15 0 6 -4 7 -10 4 -6 -4 -10 7 -10 24 0 19 -5 31 -14 31 -15 0 -66 -58
-66 -76 0 -6 -7 -14 -15 -18 -9 -3 -15 1 -15 11 0 13 -7 14 -42 9 -23 -4 -45
-10 -48 -14 -3 -5 -23 -15 -44 -23 -21 -7 -39 -18 -39 -24 0 -5 19 -19 42 -30
22 -11 41 -26 41 -32 0 -8 12 -13 29 -13 30 0 41 18 41 68 0 12 5 22 10 22 6
0 10 -30 10 -69 0 -39 4 -72 10 -76 13 -8 49 16 56 37 6 22 44 24 44 3 0 -8
-9 -19 -20 -25 -11 -6 -20 -19 -20 -30 0 -18 5 -19 48 -13 26 3 55 10 64 14 9
5 25 9 36 9 25 0 121 49 151 77 13 12 28 20 33 17 4 -3 8 2 8 12 0 14 -7 16
-51 11 -40 -5 -50 -3 -46 7 3 8 -8 20 -29 29 -42 20 -44 37 -4 37 17 0 30 -4
30 -9 0 -11 55 -31 87 -31 19 0 24 5 21 21 -4 27 -117 97 -170 105 -21 4 -35
10 -32 15 3 5 -9 9 -25 9 -26 0 -31 -4 -31 -24z"/>
<path d="M2700 2823 c-8 -3 -17 -9 -20 -12 -12 -15 -151 -45 -210 -46 -71 0
-146 -27 -155 -55 -3 -9 -22 -22 -43 -29 -20 -8 -45 -21 -56 -30 -10 -9 -19
-15 -20 -13 0 2 -10 0 -20 -4 -19 -7 -19 -8 -1 -14 31 -11 365 64 365 81 0 5
8 9 19 9 10 0 32 7 47 15 16 8 37 15 46 15 19 0 89 38 100 55 21 29 -8 45 -52
28z"/>
<path d="M8670 6161 c-44 -6 -44 -7 -21 -20 18 -10 45 -11 107 -6 117 10 173
8 188 -4 7 -6 16 -8 19 -4 4 3 7 1 7 -5 0 -7 6 -12 13 -12 6 0 23 -9 37 -20
l25 -20 -152 0 c-138 0 -248 -12 -264 -29 -11 -10 9 -51 26 -51 24 0 75 -58
75 -85 0 -29 -36 -65 -64 -65 -12 0 -27 -4 -35 -9 -16 -10 -6 -31 14 -31 7 0
17 -9 20 -20 3 -11 10 -20 15 -20 5 0 10 -12 12 -27 3 -23 9 -29 45 -36 27 -5
44 -14 48 -27 3 -10 12 -21 20 -24 10 -3 15 -19 15 -45 0 -44 -20 -63 -80 -75
-36 -7 -770 -21 -894 -17 -41 1 -79 -3 -93 -10 -27 -14 -31 -53 -8 -75 8 -9
15 -29 15 -45 0 -17 6 -37 13 -44 28 -32 35 -43 41 -63 4 -12 12 -22 17 -22 5
0 9 -6 9 -14 0 -7 17 -32 38 -54 20 -22 44 -50 52 -61 8 -12 41 -39 72 -59 32
-20 58 -41 58 -47 0 -13 50 -36 61 -29 5 3 9 14 9 24 0 24 15 33 40 25 28 -9
25 -39 -5 -55 -14 -7 -25 -17 -25 -21 0 -10 38 -22 49 -15 15 9 41 -5 41 -22
0 -8 3 -12 7 -9 3 4 11 -3 17 -16 10 -18 21 -22 69 -25 31 -2 58 -7 58 -12 1
-6 2 -15 3 -22 0 -6 16 -16 34 -20 17 -5 32 -12 32 -17 0 -5 15 -11 33 -14 17
-4 62 -13 98 -21 36 -8 117 -16 179 -17 62 -2 118 -8 124 -14 35 -34 403 -23
546 15 19 5 61 16 93 25 l57 16 0 121 c0 119 -16 238 -32 238 -4 0 -8 11 -8
24 0 14 -6 31 -13 38 -8 7 -17 30 -21 51 -4 20 -11 37 -16 37 -5 0 -12 20 -16
45 -3 25 -10 45 -14 45 -5 0 -12 29 -15 65 -4 36 -11 65 -16 65 -4 0 -11 20
-15 45 -3 25 -10 45 -14 45 -5 0 -11 19 -15 43 -4 23 -12 45 -17 48 -4 3 -14
34 -20 70 -7 35 -15 66 -20 69 -14 10 -21 67 -8 75 20 12 59 -4 65 -28 3 -12
26 -35 51 -51 24 -15 44 -32 44 -37 0 -6 22 -32 50 -58 l50 -48 -1 150 c0 101
-4 154 -12 162 -19 19 -201 73 -321 96 -27 5 -54 15 -58 22 -6 9 -10 9 -17 -2
-6 -9 -10 -9 -12 -2 -9 25 -380 56 -489 42z m-83 -871 c22 -10 43 -27 47 -35
18 -49 -9 -124 -35 -97 -7 6 -35 12 -62 12 -58 0 -114 24 -123 52 -8 27 28 64
75 76 52 14 53 14 98 -8z"/>
<path d="M8004 5839 c-3 -5 -31 -9 -62 -9 -55 -1 -92 -16 -92 -38 0 -6 -13
-24 -29 -40 -17 -16 -33 -41 -37 -56 -3 -14 -10 -26 -15 -26 -5 0 -9 -7 -9
-15 0 -13 23 -15 138 -17 75 -1 155 -2 177 -3 40 -1 85 12 85 25 0 4 9 17 20
30 15 17 19 32 15 54 -7 42 5 57 54 63 40 6 41 5 41 -25 0 -21 -7 -35 -20 -42
-11 -6 -20 -17 -20 -24 0 -8 -7 -16 -15 -20 -20 -7 -19 -23 3 -28 27 -7 42 2
42 27 0 18 11 28 46 45 46 23 71 59 50 72 -6 4 -79 8 -163 8 -83 0 -154 4
-157 9 -8 13 -45 20 -52 10z"/>
<path d="M9478 839 c-21 -12 -25 -75 -5 -82 6 -3 2 -6 -11 -6 -18 -1 -23 -6
-20 -23 3 -24 28 -34 56 -22 9 4 32 6 50 5 l32 -3 0 71 c0 56 -3 71 -15 71 -8
0 -15 -5 -15 -11 0 -6 -5 -7 -12 -2 -20 12 -42 13 -60 2z"/>
<path d="M8715 606 c-17 -7 -36 -20 -42 -28 -11 -12 -8 -17 14 -27 19 -9 23
-15 15 -20 -8 -5 2 -12 28 -20 48 -14 149 3 151 26 1 7 2 19 3 26 3 19 -15 27
-62 27 -29 0 -45 5 -48 15 -7 18 -20 18 -59 1z"/>
</g>
</svg>
